<svg width="89" height="89" viewBox="0 0 89 89" fill="none" xmlns="http://www.w3.org/2000/svg">
<g filter="url(#filter0_d_43889_10549)">
<rect x="18.8594" y="8.07593" width="52" height="52" rx="13" fill="white" shape-rendering="crispEdges"/>
<rect x="18.8594" y="8.07593" width="52" height="52" rx="13" fill="url(#paint0_radial_43889_10549)" fill-opacity="0.15" shape-rendering="crispEdges"/>
<rect x="19.6094" y="8.82593" width="50.5" height="50.5" rx="12.25" stroke="white" stroke-width="1.5" shape-rendering="crispEdges"/>
<g opacity="0.35" filter="url(#filter1_f_43889_10549)">
<path d="M44.3866 45.8595C42.7928 45.8594 41.2967 45.5585 39.8983 44.9568C38.5078 44.3629 37.2813 43.5386 36.2189 42.4838C35.1643 41.4212 34.3362 40.1946 33.7348 38.8039C33.1411 37.4055 32.8444 35.9093 32.8445 34.3156C32.8447 32.7218 33.1417 31.2297 33.7355 29.8391C34.3372 28.4407 35.1654 27.2142 36.2202 26.1596C37.2828 25.0972 38.5094 24.2692 39.9001 23.6755C41.2986 23.0741 42.7947 22.7734 44.3884 22.7736C45.9822 22.7737 47.4743 23.0746 48.8649 23.6763C50.2633 24.2701 51.4898 25.0984 52.5444 26.1609C53.6068 27.2157 54.4348 28.4423 55.0285 29.8408C55.6299 31.2315 55.9306 32.7237 55.9305 34.3175C55.9303 35.9112 55.6294 37.4073 55.0278 38.8057C54.4339 40.1963 53.6057 41.4228 52.5431 42.4852C51.4883 43.5398 50.2617 44.3639 48.8632 44.9575C47.4725 45.559 45.9803 45.8596 44.3866 45.8595ZM40.0397 36.2498L44.3873 36.2501C44.7311 36.2502 45.0163 36.133 45.2428 35.8986C45.4772 35.6565 45.5944 35.3674 45.5945 35.0315L45.595 29.0901C45.595 28.7541 45.4778 28.469 45.2435 28.2346C45.0169 28.0002 44.7318 27.883 44.388 27.8829C44.0443 27.8829 43.7552 28.0001 43.5208 28.2344C43.2864 28.4688 43.1692 28.7539 43.1692 29.0899L43.1688 33.8242L40.0399 33.824C39.6961 33.824 39.4071 33.9411 39.1727 34.1755C38.9383 34.4098 38.8211 34.695 38.821 35.0309C38.821 35.3669 38.9382 35.6559 39.1725 35.8981C39.4069 36.1325 39.6959 36.2497 40.0397 36.2498ZM34.0991 25.8313C33.9272 25.8313 33.7749 25.7844 33.6421 25.6907C33.5171 25.5891 33.4234 25.4602 33.3609 25.3039C33.2828 25.1242 33.2203 24.9172 33.1734 24.6828C33.1344 24.4484 33.1149 24.1828 33.1149 23.8859C33.115 23.214 33.2869 22.6086 33.6307 22.0696C33.9745 21.5227 34.4354 21.0892 35.0136 20.7689C35.5917 20.4486 36.2246 20.2885 36.9121 20.2886C37.3808 20.2886 37.8183 20.3551 38.2246 20.4879C38.6308 20.6207 38.998 20.8044 39.3261 21.0388C39.5917 21.2341 39.7245 21.4841 39.7245 21.7888C39.7244 22.0232 39.6189 22.2185 39.408 22.3747L34.603 25.6321C34.5015 25.6946 34.4155 25.7454 34.3452 25.7845C34.2749 25.8157 34.1929 25.8313 34.0991 25.8313ZM54.7007 25.833C54.5913 25.833 54.5015 25.8174 54.4312 25.7861C54.3608 25.747 54.2788 25.6962 54.1851 25.6337L49.3807 22.3755C49.1541 22.2271 49.0408 22.0318 49.0409 21.7896C49.0409 21.4849 49.1776 21.2349 49.4511 21.0396C49.7792 20.8053 50.1464 20.6217 50.5527 20.4889C50.9589 20.3561 51.3964 20.2898 51.8652 20.2898C52.5605 20.2899 53.1972 20.4501 53.7753 20.7704C54.3534 21.0908 54.8104 21.5244 55.1463 22.0713C55.49 22.6104 55.6618 23.2159 55.6618 23.8878C55.6618 24.1846 55.6422 24.4503 55.6031 24.6846C55.564 24.919 55.5054 25.126 55.4273 25.3057C55.357 25.4541 55.2554 25.5791 55.1226 25.6807C54.9976 25.7822 54.8569 25.833 54.7007 25.833ZM34.1561 46.1282C33.8905 45.8625 33.7577 45.5461 33.7577 45.1789C33.7577 44.8196 33.8906 44.5071 34.1562 44.2415L36.8752 41.5112L38.7969 43.4333L36.1365 46.0698C35.8553 46.3588 35.5232 46.5072 35.1404 46.515C34.7654 46.5306 34.4373 46.4017 34.1561 46.1282ZM54.617 46.1299C54.3357 46.4033 54.0037 46.5322 53.6209 46.5165C53.2459 46.5008 52.9178 46.3524 52.6365 46.0711L49.9766 43.4342L51.8986 41.5125L54.6172 44.2431C54.8906 44.5088 55.0234 44.8213 55.0155 45.1807C55.0155 45.5479 54.8826 45.8643 54.617 46.1299Z" fill="url(#paint1_linear_43889_10549)"/>
</g>
<g filter="url(#filter2_i_43889_10549)">
<path d="M44.2869 45.7239C42.6932 45.7238 41.1971 45.4229 39.7987 44.8212C38.4082 44.2274 37.1817 43.403 36.1192 42.3483C35.0646 41.2857 34.2366 40.0591 33.6352 38.6684C33.0415 37.2699 32.7448 35.7738 32.7449 34.18C32.745 32.5863 33.042 31.0941 33.6359 29.7035C34.2376 28.3052 35.0658 27.0787 36.1206 26.0241C37.1832 24.9616 38.4098 24.1336 39.8005 23.54C41.199 22.9385 42.6951 22.6379 44.2888 22.638C45.8826 22.6381 47.3747 22.939 48.7653 23.5407C50.1637 24.1346 51.3902 24.9628 52.4448 26.0254C53.5072 27.0802 54.3352 28.3068 54.9289 29.7053C55.5303 31.0959 55.831 32.5882 55.8309 34.1819C55.8307 35.7757 55.5298 37.2717 54.9281 38.6701C54.3343 40.0607 53.5061 41.2872 52.4435 42.3496C51.3887 43.4042 50.1621 44.2283 48.7636 44.822C47.3729 45.4234 45.8807 45.7241 44.2869 45.7239ZM39.9401 36.1142L44.2877 36.1146C44.6315 36.1146 44.9166 35.9974 45.1432 35.7631C45.3776 35.5209 45.4948 35.2319 45.4949 34.8959L45.4953 28.9545C45.4954 28.6186 45.3782 28.3334 45.1438 28.099C44.9173 27.8646 44.6322 27.7474 44.2884 27.7474C43.9447 27.7473 43.6556 27.8645 43.4212 28.0989C43.1868 28.3332 43.0696 28.6184 43.0696 28.9543L43.0692 33.6887L39.9403 33.6884C39.5965 33.6884 39.3074 33.8056 39.0731 34.0399C38.8387 34.2743 38.7214 34.5594 38.7214 34.8954C38.7214 35.2313 38.8386 35.5204 39.0729 35.7626C39.3073 35.997 39.5963 36.1142 39.9401 36.1142ZM33.9995 25.6958C33.8276 25.6957 33.6753 25.6489 33.5425 25.5551C33.4175 25.4535 33.3238 25.3246 33.2613 25.1684C33.1832 24.9887 33.1207 24.7816 33.0738 24.5472C33.0348 24.3129 33.0153 24.0472 33.0153 23.7504C33.0154 23.0785 33.1873 22.473 33.5311 21.934C33.8749 21.3872 34.3358 20.9536 34.914 20.6333C35.4921 20.3131 36.125 20.153 36.8125 20.153C37.2812 20.1531 37.7187 20.2195 38.1249 20.3523C38.5312 20.4852 38.8984 20.6688 39.2265 20.9032C39.4921 21.0985 39.6249 21.3486 39.6248 21.6532C39.6248 21.8876 39.5193 22.0829 39.3084 22.2392L34.5034 25.4966C34.4019 25.5591 34.3159 25.6098 34.2456 25.6489C34.1753 25.6801 34.0933 25.6958 33.9995 25.6958ZM54.6011 25.6974C54.4917 25.6974 54.4019 25.6818 54.3315 25.6505C54.2612 25.6115 54.1792 25.5607 54.0855 25.4982L49.281 22.24C49.0545 22.0915 48.9412 21.8962 48.9412 21.654C48.9413 21.3493 49.078 21.0993 49.3515 20.904C49.6796 20.6697 50.0468 20.4861 50.4531 20.3533C50.8593 20.2206 51.2968 20.1542 51.7656 20.1542C52.4609 20.1543 53.0976 20.3145 53.6757 20.6349C54.2538 20.9552 54.7108 21.3889 55.0467 21.9358C55.3904 22.4748 55.5622 23.0803 55.5622 23.7522C55.5621 24.0491 55.5426 24.3147 55.5035 24.5491C55.4644 24.7834 55.4058 24.9905 55.3277 25.1702C55.2574 25.3186 55.1558 25.4436 55.023 25.5451C54.898 25.6467 54.7573 25.6974 54.6011 25.6974ZM34.0565 45.9926C33.7908 45.727 33.6581 45.4106 33.6581 45.0434C33.6581 44.684 33.791 44.3715 34.0566 44.1059L36.7756 41.3757L38.6973 43.2977L36.0369 45.9342C35.7557 46.2232 35.4236 46.3717 35.0408 46.3794C34.6658 46.395 34.3377 46.2661 34.0565 45.9926ZM54.5174 45.9943C54.2361 46.2677 53.9041 46.3966 53.5213 46.3809C53.1463 46.3653 52.8182 46.2168 52.5369 45.9355L49.877 43.2986L51.799 41.3769L54.5175 44.1076C54.791 44.3732 54.9237 44.6857 54.9159 45.0451C54.9159 45.4123 54.783 45.7287 54.5174 45.9943Z" fill="url(#paint2_linear_43889_10549)"/>
</g>
</g>
<defs>
<filter id="filter0_d_43889_10549" x="0.859375" y="0.0759277" width="88" height="88" filterUnits="userSpaceOnUse" color-interpolation-filters="sRGB">
<feFlood flood-opacity="0" result="BackgroundImageFix"/>
<feColorMatrix in="SourceAlpha" type="matrix" values="0 0 0 0 0 0 0 0 0 0 0 0 0 0 0 0 0 0 127 0" result="hardAlpha"/>
<feOffset dy="10"/>
<feGaussianBlur stdDeviation="9"/>
<feComposite in2="hardAlpha" operator="out"/>
<feColorMatrix type="matrix" values="0 0 0 0 0 0 0 0 0 0 0 0 0 0 0 0 0 0 0.12 0"/>
<feBlend mode="normal" in2="BackgroundImageFix" result="effect1_dropShadow_43889_10549"/>
<feBlend mode="normal" in="BackgroundImageFix" in2="effect1_dropShadow_43889_10549" result="BackgroundImageFix"/>
<feBlend mode="normal" in="SourceGraphic" in2="BackgroundImageFix" result="shape"/>
</filter>
<filter id="filter1_f_43889_10549" x="24.8438" y="12.2883" width="39.0879" height="42.2518" filterUnits="userSpaceOnUse" color-interpolation-filters="sRGB">
<feFlood flood-opacity="0" result="BackgroundImageFix"/>
<feBlend mode="normal" in="SourceGraphic" in2="BackgroundImageFix" result="shape"/>
<feGaussianBlur stdDeviation="4" result="effect1_foregroundBlur_43889_10549"/>
</filter>
<filter id="filter2_i_43889_10549" x="32.7441" y="20.1527" width="23.0879" height="27.2518" filterUnits="userSpaceOnUse" color-interpolation-filters="sRGB">
<feFlood flood-opacity="0" result="BackgroundImageFix"/>
<feBlend mode="normal" in="SourceGraphic" in2="BackgroundImageFix" result="shape"/>
<feColorMatrix in="SourceAlpha" type="matrix" values="0 0 0 0 0 0 0 0 0 0 0 0 0 0 0 0 0 0 127 0" result="hardAlpha"/>
<feOffset dy="1"/>
<feGaussianBlur stdDeviation="1"/>
<feComposite in2="hardAlpha" operator="arithmetic" k2="-1" k3="1"/>
<feColorMatrix type="matrix" values="0 0 0 0 0 0 0 0 0 0 0 0 0 0 0 0 0 0 0.1 0"/>
<feBlend mode="normal" in2="shape" result="effect1_innerShadow_43889_10549"/>
</filter>
<radialGradient id="paint0_radial_43889_10549" cx="0" cy="0" r="1" gradientUnits="userSpaceOnUse" gradientTransform="translate(44.8594 34.0759) rotate(90) scale(26)">
<stop stop-color="#7B9EFD"/>
<stop offset="0.95195" stop-color="#7BBAFD" stop-opacity="0"/>
</radialGradient>
<linearGradient id="paint1_linear_43889_10549" x1="45.4171" y1="23.6269" x2="27.2476" y2="80.2571" gradientUnits="userSpaceOnUse">
<stop stop-color="#7B9EFD"/>
<stop offset="1" stop-color="#9FC7F1"/>
</linearGradient>
<linearGradient id="paint2_linear_43889_10549" x1="45.3175" y1="23.4914" x2="27.148" y2="80.1215" gradientUnits="userSpaceOnUse">
<stop stop-color="#7B9EFD"/>
<stop offset="1" stop-color="#9FC7F1"/>
</linearGradient>
</defs>
</svg>
