<svg width="97" height="97" viewBox="0 0 97 97" fill="none" xmlns="http://www.w3.org/2000/svg">
<g filter="url(#filter0_d_43882_9802)">
<rect x="17.7529" y="8.8219" width="60" height="60" rx="17" fill="white" shape-rendering="crispEdges"/>
<rect x="17.7529" y="8.8219" width="60" height="60" rx="17" fill="url(#paint0_radial_43882_9802)" fill-opacity="0.1" shape-rendering="crispEdges"/>
<rect x="19.0029" y="10.0719" width="57.5" height="57.5" rx="15.75" stroke="white" stroke-width="2.5" shape-rendering="crispEdges"/>
<g opacity="0.35" filter="url(#filter1_f_43882_9802)">
<path d="M47.6904 22.8219C48.5654 22.8219 49.4404 23.4469 49.6279 24.3219L54.2529 41.2594L55.3779 39.0719C56.0654 37.6969 57.4404 36.8219 58.9404 36.8219H65.7529C66.8154 36.8219 67.7529 37.7594 67.7529 38.8219C67.7529 39.9469 66.8154 40.8219 65.7529 40.8219H58.9404L55.5029 47.7594C55.1279 48.5094 54.3779 48.9469 53.5029 48.8219C52.6904 48.7594 52.0029 48.1969 51.8154 47.3844L47.9404 33.3219L43.6904 53.2594C43.5029 54.1969 42.6904 54.8219 41.8154 54.8219C40.8779 54.8844 40.0654 54.2594 39.8154 53.3844L36.1904 40.8219H29.7529C28.6279 40.8219 27.7529 39.9469 27.7529 38.8219C27.7529 37.7594 28.6279 36.8219 29.7529 36.8219H36.1904C38.0029 36.8219 39.5654 38.0094 40.0654 39.7594L41.4404 44.5719L45.7529 24.4469C45.9404 23.5094 46.7529 22.8844 47.6904 22.8219Z" fill="url(#paint1_linear_43882_9802)"/>
</g>
<g filter="url(#filter2_i_43882_9802)">
<path d="M47.6904 22.8219C48.5654 22.8219 49.4404 23.4469 49.6279 24.3219L54.2529 41.2594L55.3779 39.0719C56.0654 37.6969 57.4404 36.8219 58.9404 36.8219H65.7529C66.8154 36.8219 67.7529 37.7594 67.7529 38.8219C67.7529 39.9469 66.8154 40.8219 65.7529 40.8219H58.9404L55.5029 47.7594C55.1279 48.5094 54.3779 48.9469 53.5029 48.8219C52.6904 48.7594 52.0029 48.1969 51.8154 47.3844L47.9404 33.3219L43.6904 53.2594C43.5029 54.1969 42.6904 54.8219 41.8154 54.8219C40.8779 54.8844 40.0654 54.2594 39.8154 53.3844L36.1904 40.8219H29.7529C28.6279 40.8219 27.7529 39.9469 27.7529 38.8219C27.7529 37.7594 28.6279 36.8219 29.7529 36.8219H36.1904C38.0029 36.8219 39.5654 38.0094 40.0654 39.7594L41.4404 44.5719L45.7529 24.4469C45.9404 23.5094 46.7529 22.8844 47.6904 22.8219Z" fill="url(#paint2_linear_43882_9802)"/>
</g>
</g>
<defs>
<filter id="filter0_d_43882_9802" x="0.75293" y="0.821899" width="96" height="96" filterUnits="userSpaceOnUse" color-interpolation-filters="sRGB">
<feFlood flood-opacity="0" result="BackgroundImageFix"/>
<feColorMatrix in="SourceAlpha" type="matrix" values="0 0 0 0 0 0 0 0 0 0 0 0 0 0 0 0 0 0 127 0" result="hardAlpha"/>
<feOffset dx="1" dy="10"/>
<feGaussianBlur stdDeviation="9"/>
<feComposite in2="hardAlpha" operator="out"/>
<feColorMatrix type="matrix" values="0 0 0 0 0 0 0 0 0 0 0 0 0 0 0 0 0 0 0.12 0"/>
<feBlend mode="normal" in2="BackgroundImageFix" result="effect1_dropShadow_43882_9802"/>
<feBlend mode="normal" in="BackgroundImageFix" in2="effect1_dropShadow_43882_9802" result="BackgroundImageFix"/>
<feBlend mode="normal" in="SourceGraphic" in2="BackgroundImageFix" result="shape"/>
</filter>
<filter id="filter1_f_43882_9802" x="19.7529" y="14.8219" width="56" height="48.0625" filterUnits="userSpaceOnUse" color-interpolation-filters="sRGB">
<feFlood flood-opacity="0" result="BackgroundImageFix"/>
<feBlend mode="normal" in="SourceGraphic" in2="BackgroundImageFix" result="shape"/>
<feGaussianBlur stdDeviation="4" result="effect1_foregroundBlur_43882_9802"/>
</filter>
<filter id="filter2_i_43882_9802" x="27.7529" y="22.8219" width="40" height="33.0625" filterUnits="userSpaceOnUse" color-interpolation-filters="sRGB">
<feFlood flood-opacity="0" result="BackgroundImageFix"/>
<feBlend mode="normal" in="SourceGraphic" in2="BackgroundImageFix" result="shape"/>
<feColorMatrix in="SourceAlpha" type="matrix" values="0 0 0 0 0 0 0 0 0 0 0 0 0 0 0 0 0 0 127 0" result="hardAlpha"/>
<feOffset dy="1"/>
<feGaussianBlur stdDeviation="1"/>
<feComposite in2="hardAlpha" operator="arithmetic" k2="-1" k3="1"/>
<feColorMatrix type="matrix" values="0 0 0 0 0 0 0 0 0 0 0 0 0 0 0 0 0 0 0.1 0"/>
<feBlend mode="normal" in2="shape" result="effect1_innerShadow_43882_9802"/>
</filter>
<radialGradient id="paint0_radial_43882_9802" cx="0" cy="0" r="1" gradientUnits="userSpaceOnUse" gradientTransform="translate(47.7529 38.8219) rotate(90) scale(30)">
<stop stop-color="#27A401"/>
<stop offset="0.95195" stop-color="#C3E91D" stop-opacity="0"/>
</radialGradient>
<linearGradient id="paint1_linear_43882_9802" x1="62.0758" y1="59.4858" x2="62.0758" y2="21.2981" gradientUnits="userSpaceOnUse">
<stop stop-color="#A8E300"/>
<stop offset="0.943945" stop-color="#47B82B"/>
</linearGradient>
<linearGradient id="paint2_linear_43882_9802" x1="62.0758" y1="59.4858" x2="62.0758" y2="21.2981" gradientUnits="userSpaceOnUse">
<stop stop-color="#A8E300"/>
<stop offset="0.943945" stop-color="#47B82B"/>
</linearGradient>
</defs>
</svg>
