<svg width="276" height="231" viewBox="0 0 276 231" fill="none" xmlns="http://www.w3.org/2000/svg">
<g filter="url(#filter0_dd_43888_10482)">
<g clip-path="url(#clip0_43888_10482)">
<rect x="28.498" y="15.8804" width="215" height="169.69" rx="18" fill="white"/>
<rect x="28.498" y="15.8804" width="215" height="169.69" rx="18" fill="url(#paint0_radial_43888_10482)" fill-opacity="0.04"/>
<g clip-path="url(#clip1_43888_10482)">
<path d="M44.5137 34.2241L45.7324 34.2241C46.0625 34.2241 46.3418 34.5034 46.3418 34.8335L46.3418 36.0522C46.3418 36.4077 46.0625 36.6616 45.7324 36.6616L44.5137 36.6616C44.1582 36.6616 43.9043 36.4077 43.9043 36.0522L43.9043 34.8335C43.9043 34.5034 44.1582 34.2241 44.5137 34.2241ZM48.373 34.6304L55.6855 34.6304C56.1172 34.6304 56.498 35.0112 56.498 35.4429C56.498 35.8999 56.1172 36.2554 55.6855 36.2554L48.373 36.2554C47.916 36.2554 47.5605 35.8999 47.5605 35.4429C47.5605 35.0112 47.916 34.6304 48.373 34.6304ZM48.373 38.6929L55.6855 38.6929C56.1172 38.6929 56.498 39.0737 56.498 39.5054C56.498 39.9624 56.1172 40.3179 55.6855 40.3179L48.373 40.3179C47.916 40.3179 47.5605 39.9624 47.5605 39.5054C47.5605 39.0737 47.916 38.6929 48.373 38.6929ZM48.373 42.7554L55.6855 42.7554C56.1172 42.7554 56.498 43.1362 56.498 43.5679C56.498 44.0249 56.1172 44.3804 55.6855 44.3804L48.373 44.3804C47.916 44.3804 47.5605 44.0249 47.5605 43.5679C47.5605 43.1362 47.916 42.7554 48.373 42.7554ZM43.9043 38.896C43.9043 38.5659 44.1582 38.2866 44.5137 38.2866L45.7324 38.2866C46.0625 38.2866 46.3418 38.5659 46.3418 38.896L46.3418 40.1147C46.3418 40.4702 46.0625 40.7241 45.7324 40.7241L44.5137 40.7241C44.1582 40.7241 43.9043 40.4702 43.9043 40.1147L43.9043 38.896ZM44.5137 42.3491L45.7324 42.3491C46.0625 42.3491 46.3418 42.6284 46.3418 42.9585L46.3418 44.1772C46.3418 44.5327 46.0625 44.7866 45.7324 44.7866L44.5137 44.7866C44.1582 44.7866 43.9043 44.5327 43.9043 44.1772L43.9043 42.9585C43.9043 42.6284 44.1582 42.3491 44.5137 42.3491Z" fill="#CACBCE"/>
<path d="M64.3437 45.0049C63.7725 45.0049 63.4282 44.6533 63.4282 44.0527V35.1611C63.4282 34.5532 63.8018 34.187 64.4097 34.187C64.8271 34.187 65.0835 34.3335 65.3911 34.751L70.313 41.7163H70.3789V35.1392C70.3789 34.5386 70.7231 34.187 71.2871 34.187C71.8584 34.187 72.1953 34.5386 72.1953 35.1392V44.0601C72.1953 44.6606 71.8511 45.0049 71.2358 45.0049C70.8037 45.0049 70.5547 44.8657 70.2544 44.4409L65.3179 37.4683H65.252V44.0527C65.252 44.6533 64.9077 45.0049 64.3437 45.0049ZM76.8972 45.0195C75.2126 45.0195 74.1433 43.9282 74.1433 42.1338V37.9224C74.1433 37.3145 74.5168 36.9629 75.0515 36.9629C75.5861 36.9629 75.967 37.3145 75.967 37.9297V41.7676C75.967 42.8809 76.509 43.4814 77.5344 43.4814C78.5891 43.4814 79.2409 42.7344 79.2409 41.6064V37.9224C79.2409 37.3145 79.6218 36.9629 80.1564 36.9629C80.6838 36.9629 81.0646 37.3145 81.0646 37.9297V44.104C81.0646 44.6899 80.7131 45.0269 80.1931 45.0269C79.6657 45.0269 79.3068 44.6899 79.3068 44.104V43.5327H79.2702C78.8601 44.4775 78.0764 45.0195 76.8972 45.0195ZM83.3642 42.9614V38.5229H82.8734C82.4193 38.5229 82.141 38.252 82.141 37.8125C82.141 37.3804 82.4193 37.1167 82.8734 37.1167H83.3642V36.084C83.3642 35.498 83.7157 35.1318 84.2797 35.1318C84.8363 35.1318 85.1879 35.498 85.1879 36.084V37.1167H86.0302C86.4843 37.1167 86.7626 37.3804 86.7626 37.8125C86.7626 38.252 86.4843 38.5229 86.0302 38.5229H85.1879V42.5659C85.1879 43.1519 85.393 43.4082 85.9203 43.4521L86.0521 43.4668C86.5355 43.5107 86.7846 43.7158 86.7846 44.1406C86.7846 44.6753 86.3158 44.9609 85.4809 44.9609H85.4076C84.0526 44.9609 83.3642 44.2871 83.3642 42.9614ZM89.1061 45.0269C88.5567 45.0269 88.1978 44.668 88.1978 44.0674V37.8857C88.1978 37.3145 88.5494 36.9629 89.0694 36.9629C89.5748 36.9629 89.9337 37.3145 89.9337 37.8857V38.479H89.9703C90.1827 37.5708 90.8565 36.9849 91.6329 36.9849C91.9186 36.9849 92.1383 37.0581 92.2774 37.1826C92.4459 37.3218 92.5338 37.5415 92.5338 37.8418C92.5338 38.1274 92.4459 38.3398 92.2628 38.4863C92.087 38.6401 91.816 38.7207 91.4571 38.728C90.4171 38.7354 90.0216 39.3872 90.0216 40.332V44.0674C90.0216 44.668 89.6554 45.0269 89.1061 45.0269ZM94.6062 36.0254C94.0423 36.0254 93.5955 35.5859 93.5955 35.0366C93.5955 34.48 94.0423 34.0479 94.6062 34.0479C95.1775 34.0479 95.6243 34.48 95.6243 35.0366C95.6243 35.5859 95.1775 36.0254 94.6062 36.0254ZM94.6062 45.0269C94.0496 45.0269 93.698 44.6606 93.698 44.0674V37.9224C93.698 37.3364 94.0496 36.9629 94.6062 36.9629C95.1629 36.9629 95.5218 37.3364 95.5218 37.9297V44.0674C95.5218 44.6606 95.1629 45.0269 94.6062 45.0269ZM97.8579 42.9614V38.5229H97.3672C96.9131 38.5229 96.6348 38.252 96.6348 37.8125C96.6348 37.3804 96.9131 37.1167 97.3672 37.1167H97.8579V36.084C97.8579 35.498 98.2095 35.1318 98.7734 35.1318C99.3301 35.1318 99.6816 35.498 99.6816 36.084V37.1167H100.524C100.978 37.1167 101.256 37.3804 101.256 37.8125C101.256 38.252 100.978 38.5229 100.524 38.5229H99.6816V42.5659C99.6816 43.1519 99.8867 43.4082 100.414 43.4521L100.546 43.4668C101.029 43.5107 101.278 43.7158 101.278 44.1406C101.278 44.6753 100.81 44.9609 99.9746 44.9609H99.9014C98.5464 44.9609 97.8579 44.2871 97.8579 42.9614ZM103.644 36.0254C103.08 36.0254 102.633 35.5859 102.633 35.0366C102.633 34.48 103.08 34.0479 103.644 34.0479C104.215 34.0479 104.662 34.48 104.662 35.0366C104.662 35.5859 104.215 36.0254 103.644 36.0254ZM103.644 45.0269C103.087 45.0269 102.736 44.6606 102.736 44.0674V37.9224C102.736 37.3364 103.087 36.9629 103.644 36.9629C104.2 36.9629 104.559 37.3364 104.559 37.9297V44.0674C104.559 44.6606 104.2 45.0269 103.644 45.0269ZM109.825 45.0342C107.547 45.0342 106.068 43.5181 106.068 40.9985C106.068 38.4937 107.562 36.9556 109.825 36.9556C112.088 36.9556 113.582 38.4863 113.582 40.9985C113.582 43.5181 112.103 45.0342 109.825 45.0342ZM109.825 43.5913C110.982 43.5913 111.729 42.6538 111.729 40.9985C111.729 39.3506 110.982 38.4058 109.825 38.4058C108.675 38.4058 107.921 39.3506 107.921 40.9985C107.921 42.6538 108.668 43.5913 109.825 43.5913ZM115.962 45.0269C115.428 45.0269 115.054 44.6826 115.054 44.0674V37.8857C115.054 37.3218 115.384 36.9629 115.926 36.9629C116.461 36.9629 116.827 37.3218 116.827 37.8857V38.4277H116.863C117.281 37.5049 118.087 36.9702 119.28 36.9702C120.994 36.9702 121.968 38.0688 121.968 39.8633V44.0674C121.968 44.6826 121.595 45.0269 121.06 45.0269C120.525 45.0269 120.145 44.6826 120.145 44.0674V40.2295C120.145 39.1309 119.632 38.5156 118.592 38.5156C117.545 38.5156 116.878 39.27 116.878 40.3833V44.0674C116.878 44.6826 116.497 45.0269 115.962 45.0269ZM126.011 45.0049C124.51 45.0049 123.418 44.0601 123.418 42.6611C123.418 41.2842 124.48 40.4565 126.37 40.3394L128.428 40.2222V39.6655C128.428 38.8525 127.879 38.3838 126.978 38.3838C126.267 38.3838 125.806 38.6255 125.352 39.292C125.161 39.541 124.92 39.6582 124.612 39.6582C124.165 39.6582 123.843 39.3652 123.843 38.9258C123.843 38.7573 123.887 38.5962 123.968 38.4277C124.363 37.5269 125.564 36.9556 127.051 36.9556C128.977 36.9556 130.23 37.9736 130.23 39.5337V44.1113C130.23 44.6973 129.856 45.0269 129.344 45.0269C128.846 45.0269 128.501 44.7266 128.472 44.1846V43.6426H128.435C127.989 44.4849 127.014 45.0049 126.011 45.0049ZM126.568 43.6279C127.593 43.6279 128.428 42.9395 128.428 42.002V41.4087L126.626 41.5186C125.747 41.5771 125.242 41.9727 125.242 42.5879C125.242 43.2251 125.777 43.6279 126.568 43.6279ZM132.969 45.0269C132.434 45.0269 132.053 44.6826 132.053 44.0674V35.1245C132.053 34.5093 132.434 34.165 132.969 34.165C133.503 34.165 133.877 34.5093 133.877 35.1245V44.0674C133.877 44.6826 133.503 45.0269 132.969 45.0269ZM143.859 45.0562C140.776 45.0562 138.857 42.9614 138.857 39.5557C138.857 36.2012 140.768 34.1357 143.823 34.1357C145.815 34.1357 147.404 35.1025 147.99 36.4648C148.1 36.7139 148.129 36.9043 148.129 37.0947C148.129 37.5928 147.8 37.9224 147.294 37.9224C146.884 37.9224 146.599 37.7393 146.364 37.3145C145.837 36.2671 144.98 35.7397 143.83 35.7397C141.926 35.7397 140.79 37.1533 140.79 39.5337C140.79 41.9653 141.977 43.4521 143.881 43.4521C145.478 43.4521 146.584 42.4414 146.613 40.9619L146.621 40.7861H144.746C144.277 40.7861 143.954 40.5078 143.954 40.061C143.954 39.6143 144.277 39.3433 144.746 39.3433H147.529C148.115 39.3433 148.466 39.7095 148.466 40.3247V40.5444C148.466 43.291 146.782 45.0562 143.859 45.0562ZM153.564 45.0342C151.286 45.0342 149.806 43.5181 149.806 40.9985C149.806 38.4937 151.3 36.9556 153.564 36.9556C155.827 36.9556 157.321 38.4863 157.321 40.9985C157.321 43.5181 155.841 45.0342 153.564 45.0342ZM153.564 43.5913C154.721 43.5913 155.468 42.6538 155.468 40.9985C155.468 39.3506 154.721 38.4058 153.564 38.4058C152.414 38.4058 151.659 39.3506 151.659 40.9985C151.659 42.6538 152.406 43.5913 153.564 43.5913ZM161.071 45.0049C159.569 45.0049 158.478 44.0601 158.478 42.6611C158.478 41.2842 159.54 40.4565 161.429 40.3394L163.488 40.2222V39.6655C163.488 38.8525 162.938 38.3838 162.037 38.3838C161.327 38.3838 160.866 38.6255 160.411 39.292C160.221 39.541 159.979 39.6582 159.672 39.6582C159.225 39.6582 158.903 39.3652 158.903 38.9258C158.903 38.7573 158.947 38.5962 159.027 38.4277C159.423 37.5269 160.624 36.9556 162.111 36.9556C164.037 36.9556 165.289 37.9736 165.289 39.5337V44.1113C165.289 44.6973 164.916 45.0269 164.403 45.0269C163.905 45.0269 163.561 44.7266 163.532 44.1846V43.6426H163.495C163.048 44.4849 162.074 45.0049 161.071 45.0049ZM161.627 43.6279C162.653 43.6279 163.488 42.9395 163.488 42.002V41.4087L161.686 41.5186C160.807 41.5771 160.302 41.9727 160.302 42.5879C160.302 43.2251 160.836 43.6279 161.627 43.6279ZM168.028 45.0269C167.494 45.0269 167.113 44.6826 167.113 44.0674V35.1245C167.113 34.5093 167.494 34.165 168.028 34.165C168.563 34.165 168.937 34.5093 168.937 35.1245V44.0674C168.937 44.6826 168.563 45.0269 168.028 45.0269ZM173.785 45.0342C172.144 45.0342 170.994 44.4043 170.621 43.4741C170.57 43.3423 170.548 43.2251 170.548 43.1152C170.548 42.6758 170.87 42.3975 171.309 42.3975C171.61 42.3975 171.866 42.5366 172.1 42.8442C172.51 43.4375 172.979 43.7012 173.851 43.7012C174.7 43.7012 175.264 43.3423 175.264 42.7563C175.264 42.2876 174.971 42.0312 174.173 41.8481L172.913 41.5625C171.397 41.2183 170.65 40.4712 170.65 39.3433C170.65 37.9004 171.895 36.9556 173.814 36.9556C175.308 36.9556 176.466 37.688 176.707 38.5815C176.729 38.6768 176.744 38.7646 176.744 38.8525C176.744 39.2334 176.502 39.5044 176.041 39.5044C175.777 39.5044 175.513 39.4092 175.345 39.1675C174.986 38.6328 174.539 38.2959 173.77 38.2959C172.972 38.2959 172.423 38.6841 172.423 39.2407C172.423 39.6948 172.759 40.0024 173.565 40.1855L174.803 40.4565C176.444 40.8301 177.095 41.4233 177.095 42.5732C177.095 44.0601 175.762 45.0342 173.785 45.0342Z" fill="#8B8C8F"/>
<path d="M46.1709 77.8804C45.2334 77.8804 44.7412 77.3647 44.7412 76.603C44.7412 76.0171 44.9404 75.6655 45.5849 75.0562L50.7529 69.9351C52.9091 67.8022 53.4482 66.9468 53.4482 65.6577C53.4482 64.146 52.288 63.0562 50.6591 63.0562C49.1357 63.0562 48.0693 63.8296 47.4716 65.353C47.167 65.9624 46.8154 66.2788 46.124 66.2788C45.3037 66.2788 44.8115 65.7749 44.8115 65.0249C44.8115 64.8022 44.8466 64.5913 44.9052 64.3921C45.3623 62.564 47.3896 60.6304 50.6826 60.6304C54.0693 60.6304 56.4013 62.6343 56.4013 65.4702C56.4013 67.4507 55.4521 68.7866 52.6513 71.5288L48.7724 75.3491V75.4077H55.5224C56.3193 75.4077 56.8115 75.8999 56.8115 76.6499C56.8115 77.3882 56.3193 77.8804 55.5224 77.8804H46.1709ZM61.4048 74.9038C62.1899 74.9038 62.7173 75.3608 62.7173 76.0991C62.7173 76.3218 62.6938 76.5327 62.6235 76.7788L61.6274 80.7515C61.4634 81.4429 61.1118 81.7593 60.4204 81.7593C59.729 81.7593 59.2954 81.314 59.3305 80.6812C59.3305 80.564 59.3423 80.4819 59.354 80.4351L60.0337 76.1226C60.1626 75.2671 60.643 74.9038 61.4048 74.9038ZM72.2441 78.2202C69.2793 78.2202 67.3574 77.0132 66.4785 75.314C66.2559 74.9038 66.1621 74.5171 66.1621 74.1187C66.1621 73.3218 66.666 72.8179 67.5098 72.8179C68.1309 72.8179 68.5059 73.0874 68.8223 73.7085C69.4082 74.9858 70.4277 75.7476 72.2793 75.7476C74.2012 75.7476 75.502 74.646 75.502 73.1108C75.5137 71.3062 74.2012 70.2983 72.0332 70.2983H71.0723C70.3223 70.2983 69.877 69.8413 69.877 69.1733C69.877 68.5054 70.3223 68.0483 71.0723 68.0483H71.9629C73.8262 68.0483 75.0684 66.9819 75.0684 65.4819C75.0684 64.0171 74.1074 63.0327 72.2324 63.0327C70.6387 63.0327 69.7129 63.689 69.1504 65.0132C68.8223 65.7397 68.4941 66.0093 67.791 66.0093C66.9473 66.0093 66.502 65.5171 66.502 64.7437C66.502 64.3218 66.584 63.9468 66.7949 63.5366C67.5918 61.8608 69.4668 60.6304 72.2207 60.6304C75.7246 60.6304 77.9746 62.4585 77.9746 65.0718C77.9746 67.1929 76.4629 68.6108 74.4238 69.0327V69.0913C76.9199 69.3257 78.5723 70.8257 78.5723 73.1812C78.5723 76.1812 75.9473 78.2202 72.2441 78.2202ZM82.8374 77.8804C81.8999 77.8804 81.4077 77.3647 81.4077 76.603C81.4077 76.0171 81.607 75.6655 82.2515 75.0562L87.4195 69.9351C89.5757 67.8022 90.1148 66.9468 90.1148 65.6577C90.1148 64.146 88.9546 63.0562 87.3257 63.0562C85.8023 63.0562 84.7359 63.8296 84.1382 65.353C83.8335 65.9624 83.482 66.2788 82.7905 66.2788C81.9702 66.2788 81.478 65.7749 81.478 65.0249C81.478 64.8022 81.5132 64.5913 81.5718 64.3921C82.0288 62.564 84.0562 60.6304 87.3491 60.6304C90.7359 60.6304 93.0679 62.6343 93.0679 65.4702C93.0679 67.4507 92.1187 68.7866 89.3179 71.5288L85.439 75.3491V75.4077H92.189C92.9859 75.4077 93.478 75.8999 93.478 76.6499C93.478 77.3882 92.9859 77.8804 92.189 77.8804H82.8374ZM102.325 78.2202C99.7237 78.2202 97.4737 76.978 96.6416 75.1382C96.4776 74.7749 96.3721 74.4233 96.3721 73.9897C96.3721 73.2046 96.876 72.7124 97.6729 72.7124C98.3057 72.7124 98.6924 72.9585 99.0088 73.5796C99.583 74.9507 100.708 75.7593 102.337 75.7593C104.341 75.7593 105.759 74.3413 105.759 72.3374C105.759 70.3921 104.341 69.0093 102.349 69.0093C101.282 69.0093 100.356 69.4429 99.7119 70.0757C99.0088 70.7788 98.7159 70.9312 98.0244 70.9312C97.0518 70.9312 96.5713 70.2397 96.5948 69.4194C96.5948 69.3491 96.5948 69.3022 96.6065 69.2319L97.1455 62.8452C97.251 61.5093 97.9307 60.9702 99.2549 60.9702H106.544C107.317 60.9702 107.821 61.4624 107.821 62.2007C107.821 62.9507 107.317 63.4429 106.544 63.4429H99.7119L99.2666 68.4468H99.3252C100.04 67.3921 101.435 66.7358 103.134 66.7358C106.368 66.7358 108.677 69.021 108.677 72.2554C108.677 75.7944 106.075 78.2202 102.325 78.2202Z" fill="#222326"/>
<path d="M114.526 78.0269C113.991 78.0269 113.61 77.6826 113.61 77.0674V68.1245C113.61 67.5093 113.991 67.165 114.526 67.165C115.06 67.165 115.434 67.5093 115.434 68.1245V73.3247H115.456L118.503 70.3145C118.737 70.0654 118.935 69.9629 119.213 69.9629C119.667 69.9629 120.011 70.3071 120.011 70.7466C120.011 71.0176 119.931 71.186 119.682 71.4204L117.47 73.5151L119.902 76.5547C120.092 76.8184 120.151 76.9795 120.151 77.2139C120.151 77.6899 119.792 78.0269 119.286 78.0269C118.927 78.0269 118.715 77.9023 118.451 77.5215L116.122 74.5698L115.434 75.2144V77.0674C115.434 77.6826 115.06 78.0269 114.526 78.0269ZM126.178 78.0562C123.124 78.0562 121.242 75.9834 121.242 72.5923C121.242 69.2231 123.153 67.1357 126.142 67.1357C128.097 67.1357 129.642 68.0513 130.338 69.5967C130.455 69.8384 130.514 70.0874 130.514 70.3071C130.514 70.8125 130.184 71.1348 129.679 71.1348C129.247 71.1348 128.961 70.9297 128.756 70.4683C128.266 69.333 127.306 68.7397 126.156 68.7397C124.34 68.7397 123.175 70.2339 123.175 72.5923C123.175 74.9653 124.332 76.4521 126.163 76.4521C127.372 76.4521 128.302 75.9248 128.786 74.8115C128.976 74.3794 129.218 74.2036 129.628 74.2036C130.148 74.2036 130.507 74.5479 130.507 75.0459C130.507 75.2876 130.448 75.5073 130.331 75.7563C129.657 77.1919 128.156 78.0562 126.178 78.0562ZM134.513 78.0049C133.011 78.0049 131.92 77.0601 131.92 75.6611C131.92 74.2842 132.982 73.4565 134.872 73.3394L136.93 73.2222V72.6655C136.93 71.8525 136.38 71.3838 135.48 71.3838C134.769 71.3838 134.308 71.6255 133.854 72.292C133.663 72.541 133.421 72.6582 133.114 72.6582C132.667 72.6582 132.345 72.3652 132.345 71.9258C132.345 71.7573 132.389 71.5962 132.469 71.4277C132.865 70.5269 134.066 69.9556 135.553 69.9556C137.479 69.9556 138.732 70.9736 138.732 72.5337V77.1113C138.732 77.6973 138.358 78.0269 137.845 78.0269C137.347 78.0269 137.003 77.7266 136.974 77.1846V76.6426H136.937C136.49 77.4849 135.516 78.0049 134.513 78.0049ZM135.069 76.6279C136.095 76.6279 136.93 75.9395 136.93 75.002V74.4087L135.128 74.5186C134.249 74.5771 133.744 74.9727 133.744 75.5879C133.744 76.2251 134.278 76.6279 135.069 76.6279ZM141.471 78.0269C140.936 78.0269 140.555 77.6826 140.555 77.0674V68.1245C140.555 67.5093 140.936 67.165 141.471 67.165C142.005 67.165 142.379 67.5093 142.379 68.1245V77.0674C142.379 77.6826 142.005 78.0269 141.471 78.0269Z" fill="#8B8C8F"/>
<path d="M44.8896 99.0049C44.311 99.0049 43.9375 98.668 43.9375 98.1333C43.9375 97.9868 43.9741 97.7817 44.062 97.5547L47.1309 89.2124C47.3872 88.5093 47.812 88.187 48.5005 88.187C49.1963 88.187 49.6211 88.4946 49.8848 89.2051L52.9609 97.5547C53.0488 97.7964 53.0854 97.9648 53.0854 98.1333C53.0854 98.646 52.6899 99.0049 52.1406 99.0049C51.6279 99.0049 51.3423 98.7705 51.1738 98.2065L50.478 96.1851H46.5303L45.8345 98.1919C45.6587 98.7632 45.3804 99.0049 44.8896 99.0049ZM46.9771 94.6909H50.0166L48.5151 90.1792H48.4639L46.9771 94.6909ZM55.5168 99.0269C54.9895 99.0269 54.6306 98.7046 54.6306 98.1113V89.1245C54.6306 88.5093 55.0114 88.165 55.5461 88.165C56.0808 88.165 56.4543 88.5093 56.4543 89.1245V92.4497H56.4982C56.945 91.5415 57.8239 90.9849 58.9299 90.9849C60.8854 90.9849 62.1306 92.5156 62.1306 94.9985C62.1306 97.4814 60.8928 99.0049 58.9226 99.0049C57.7873 99.0049 56.9157 98.4556 56.4543 97.5547H56.4177V98.1113C56.4177 98.6973 56.0441 99.0269 55.5168 99.0269ZM58.3659 97.5107C59.5305 97.5107 60.2629 96.5439 60.2629 94.9985C60.2629 93.4604 59.5305 92.4863 58.3659 92.4863C57.238 92.4863 56.447 93.4897 56.447 94.9985C56.447 96.522 57.238 97.5107 58.3659 97.5107ZM67.0448 99.0342C64.767 99.0342 63.2875 97.5181 63.2875 94.9985C63.2875 92.4937 64.7816 90.9556 67.0448 90.9556C69.308 90.9556 70.8021 92.4863 70.8021 94.9985C70.8021 97.5181 69.3227 99.0342 67.0448 99.0342ZM67.0448 97.5913C68.202 97.5913 68.9491 96.6538 68.9491 94.9985C68.9491 93.3506 68.202 92.4058 67.0448 92.4058C65.8949 92.4058 65.1405 93.3506 65.1405 94.9985C65.1405 96.6538 65.8876 97.5913 67.0448 97.5913ZM75.1744 99.0269C74.5006 99.0269 74.1344 98.7559 73.8927 98.0967L71.7101 92.3105C71.6515 92.1494 71.6075 91.9663 71.6075 91.7905C71.6075 91.2925 71.9957 90.9629 72.523 90.9629C72.9552 90.9629 73.2481 91.1973 73.3873 91.688L75.1598 97.1885H75.1964L76.9688 91.6733C77.108 91.1899 77.401 90.9629 77.8258 90.9629C78.3385 90.9629 78.712 91.3145 78.712 91.7832C78.712 91.9517 78.6754 92.1274 78.6168 92.2812L76.4342 98.0967C76.2071 98.7339 75.8189 99.0269 75.1744 99.0269ZM83.2747 99.0342C80.9017 99.0342 79.5027 97.5474 79.5027 95.0278C79.5027 92.5522 80.931 90.9556 83.1722 90.9556C85.2962 90.9556 86.7464 92.4644 86.7464 94.5737C86.7464 95.1157 86.4388 95.438 85.8968 95.438H81.3191V95.4966C81.3191 96.793 82.0735 97.6279 83.2601 97.6279C84.0804 97.6279 84.615 97.3423 85.201 96.5952C85.3914 96.3828 85.5599 96.3022 85.8162 96.3022C86.2264 96.3022 86.5486 96.5659 86.5486 97.0054C86.5486 97.1445 86.5047 97.3057 86.4241 97.4668C85.9114 98.4556 84.7542 99.0342 83.2747 99.0342ZM81.3338 94.2368H84.9593C84.9227 93.1089 84.2049 92.3691 83.1795 92.3691C82.1541 92.3691 81.407 93.1235 81.3338 94.2368ZM92.0339 96.9614V92.5229H91.5432C91.0891 92.5229 90.8107 92.252 90.8107 91.8125C90.8107 91.3804 91.0891 91.1167 91.5432 91.1167H92.0339V90.084C92.0339 89.498 92.3854 89.1318 92.9494 89.1318C93.5061 89.1318 93.8576 89.498 93.8576 90.084V91.1167H94.6999C95.154 91.1167 95.4323 91.3804 95.4323 91.8125C95.4323 92.252 95.154 92.5229 94.6999 92.5229H93.8576V96.5659C93.8576 97.1519 94.0627 97.4082 94.59 97.4521L94.7219 97.4668C95.2053 97.5107 95.4543 97.7158 95.4543 98.1406C95.4543 98.6753 94.9855 98.9609 94.1506 98.9609H94.0773C92.7224 98.9609 92.0339 98.2871 92.0339 96.9614ZM99.0429 99.0049C97.5414 99.0049 96.4501 98.0601 96.4501 96.6611C96.4501 95.2842 97.5121 94.4565 99.4018 94.3394L101.46 94.2222V93.6655C101.46 92.8525 100.911 92.3838 100.01 92.3838C99.2992 92.3838 98.8378 92.6255 98.3837 93.292C98.1933 93.541 97.9516 93.6582 97.6439 93.6582C97.1972 93.6582 96.8749 93.3652 96.8749 92.9258C96.8749 92.7573 96.9188 92.5962 96.9994 92.4277C97.3949 91.5269 98.5961 90.9556 100.083 90.9556C102.009 90.9556 103.262 91.9736 103.262 93.5337V98.1113C103.262 98.6973 102.888 99.0269 102.375 99.0269C101.877 99.0269 101.533 98.7266 101.504 98.1846V97.6426H101.467C101.02 98.4849 100.046 99.0049 99.0429 99.0049ZM99.5995 97.6279C100.625 97.6279 101.46 96.9395 101.46 96.002V95.4087L99.6581 95.5186C98.7792 95.5771 98.2738 95.9727 98.2738 96.5879C98.2738 97.2251 98.8085 97.6279 99.5995 97.6279ZM105.942 99.0269C105.393 99.0269 105.034 98.668 105.034 98.0674V91.8857C105.034 91.3145 105.385 90.9629 105.905 90.9629C106.411 90.9629 106.77 91.3145 106.77 91.8857V92.479H106.806C107.019 91.5708 107.692 90.9849 108.469 90.9849C108.754 90.9849 108.974 91.0581 109.113 91.1826C109.282 91.3218 109.37 91.5415 109.37 91.8418C109.37 92.1274 109.282 92.3398 109.099 92.4863C108.923 92.6401 108.652 92.7207 108.293 92.728C107.253 92.7354 106.858 93.3872 106.858 94.332V98.0674C106.858 98.668 106.491 99.0269 105.942 99.0269ZM113.544 101.803C112.057 101.795 110.915 101.224 110.395 100.389C110.285 100.206 110.241 100.03 110.241 99.8398C110.241 99.437 110.541 99.1367 111.003 99.1367C111.259 99.1367 111.442 99.2246 111.669 99.4443C112.277 100.052 112.819 100.345 113.559 100.353C114.797 100.367 115.536 99.6714 115.536 98.6387V97.4009H115.5C115.097 98.2358 114.181 98.7998 113.068 98.7998C111.12 98.7998 109.875 97.291 109.875 94.9033C109.875 92.4717 111.105 90.9849 113.105 90.9849C114.211 90.9849 115.068 91.5562 115.514 92.4351H115.544V91.8931C115.544 91.2925 115.939 90.9629 116.459 90.9629C116.987 90.9629 117.367 91.2925 117.367 91.8931V98.6313C117.367 100.587 115.939 101.817 113.544 101.803ZM113.625 97.3789C114.789 97.3789 115.551 96.4341 115.551 94.918C115.551 93.4092 114.789 92.4277 113.625 92.4277C112.475 92.4277 111.742 93.3945 111.742 94.918C111.742 96.4561 112.475 97.3789 113.625 97.3789ZM122.604 99.0342C120.231 99.0342 118.832 97.5474 118.832 95.0278C118.832 92.5522 120.26 90.9556 122.501 90.9556C124.625 90.9556 126.076 92.4644 126.076 94.5737C126.076 95.1157 125.768 95.438 125.226 95.438H120.648V95.4966C120.648 96.793 121.403 97.6279 122.589 97.6279C123.41 97.6279 123.944 97.3423 124.53 96.5952C124.721 96.3828 124.889 96.3022 125.146 96.3022C125.556 96.3022 125.878 96.5659 125.878 97.0054C125.878 97.1445 125.834 97.3057 125.753 97.4668C125.241 98.4556 124.083 99.0342 122.604 99.0342ZM120.663 94.2368H124.289C124.252 93.1089 123.534 92.3691 122.509 92.3691C121.483 92.3691 120.736 93.1235 120.663 94.2368ZM128.06 96.9614V92.5229H127.57C127.115 92.5229 126.837 92.252 126.837 91.8125C126.837 91.3804 127.115 91.1167 127.57 91.1167H128.06V90.084C128.06 89.498 128.412 89.1318 128.976 89.1318C129.532 89.1318 129.884 89.498 129.884 90.084V91.1167H130.726C131.18 91.1167 131.459 91.3804 131.459 91.8125C131.459 92.252 131.18 92.5229 130.726 92.5229H129.884V96.5659C129.884 97.1519 130.089 97.4082 130.616 97.4521L130.748 97.4668C131.232 97.5107 131.481 97.7158 131.481 98.1406C131.481 98.6753 131.012 98.9609 130.177 98.9609H130.104C128.749 98.9609 128.06 98.2871 128.06 96.9614Z" fill="#FF8947"/>
</g>
<mask id="mask0_43888_10482" style="mask-type:alpha" maskUnits="userSpaceOnUse" x="42" y="84" width="192" height="92">
<rect x="42.874" y="84.4342" width="190.987" height="91" fill="url(#paint1_linear_43888_10482)"/>
</mask>
<g mask="url(#mask0_43888_10482)">
<path opacity="0.2" d="M43.498 140.968C43.498 139.172 43.498 138.274 43.8476 137.588C44.1551 136.984 44.6457 136.494 45.2491 136.186C45.9352 135.837 46.8332 135.837 48.6294 135.837L52.3667 135.837C54.1628 135.837 55.0609 135.837 55.7469 136.186C56.3504 136.494 56.841 136.984 57.1485 137.588C57.498 138.274 57.498 139.172 57.498 140.968L57.498 175.837L43.498 175.837L43.498 140.968Z" fill="url(#paint2_linear_43888_10482)"/>
<path opacity="0.2" d="M60.498 150.968C60.498 149.172 60.498 148.274 60.8476 147.588C61.1551 146.984 61.6457 146.494 62.2491 146.186C62.9352 145.837 63.8332 145.837 65.6294 145.837L69.3667 145.837C71.1628 145.837 72.0609 145.837 72.7469 146.186C73.3504 146.494 73.841 146.984 74.1485 147.588C74.498 148.274 74.498 149.172 74.498 150.968L74.498 175.837L60.498 175.837L60.498 150.968Z" fill="url(#paint3_linear_43888_10482)"/>
<path opacity="0.2" d="M77.498 150.968C77.498 149.172 77.498 148.274 77.8476 147.588C78.1551 146.984 78.6457 146.494 79.2491 146.186C79.9352 145.837 80.8332 145.837 82.6294 145.837L86.3667 145.837C88.1628 145.837 89.0609 145.837 89.7469 146.186C90.3504 146.494 90.841 146.984 91.1485 147.588C91.498 148.274 91.498 149.172 91.498 150.968L91.498 175.837L77.498 175.837L77.498 150.968Z" fill="url(#paint4_linear_43888_10482)"/>
<path opacity="0.2" d="M94.498 126.968C94.498 125.172 94.498 124.274 94.8476 123.588C95.1551 122.984 95.6457 122.494 96.2491 122.186C96.9352 121.837 97.8332 121.837 99.6294 121.837L103.367 121.837C105.163 121.837 106.061 121.837 106.747 122.186C107.35 122.494 107.841 122.984 108.148 123.588C108.498 124.274 108.498 125.172 108.498 126.968L108.498 175.837L94.498 175.837L94.498 126.968Z" fill="url(#paint5_linear_43888_10482)"/>
<path opacity="0.2" d="M111.498 150.968C111.498 149.172 111.498 148.274 111.848 147.588C112.155 146.984 112.646 146.494 113.249 146.186C113.935 145.837 114.833 145.837 116.629 145.837L120.367 145.837C122.163 145.837 123.061 145.837 123.747 146.186C124.35 146.494 124.841 146.984 125.148 147.588C125.498 148.274 125.498 149.172 125.498 150.968L125.498 175.837L111.498 175.837L111.498 150.968Z" fill="url(#paint6_linear_43888_10482)"/>
<path opacity="0.2" d="M128.498 136.968C128.498 135.172 128.498 134.274 128.848 133.588C129.155 132.984 129.646 132.494 130.249 132.186C130.935 131.837 131.833 131.837 133.629 131.837L137.367 131.837C139.163 131.837 140.061 131.837 140.747 132.186C141.35 132.494 141.841 132.984 142.148 133.588C142.498 134.274 142.498 135.172 142.498 136.968L142.498 175.837L128.498 175.837L128.498 136.968Z" fill="url(#paint7_linear_43888_10482)"/>
<path opacity="0.2" d="M145.498 150.968C145.498 149.172 145.498 148.274 145.848 147.588C146.155 146.984 146.646 146.494 147.249 146.186C147.935 145.837 148.833 145.837 150.629 145.837L154.367 145.837C156.163 145.837 157.061 145.837 157.747 146.186C158.35 146.494 158.841 146.984 159.148 147.588C159.498 148.274 159.498 149.172 159.498 150.968L159.498 175.837L145.498 175.837L145.498 150.968Z" fill="url(#paint8_linear_43888_10482)"/>
<path opacity="0.2" d="M162.498 136.968C162.498 135.172 162.498 134.274 162.848 133.588C163.155 132.984 163.646 132.494 164.249 132.186C164.935 131.837 165.833 131.837 167.629 131.837L171.367 131.837C173.163 131.837 174.061 131.837 174.747 132.186C175.35 132.494 175.841 132.984 176.148 133.588C176.498 134.274 176.498 135.172 176.498 136.968L176.498 175.837L162.498 175.837L162.498 136.968Z" fill="url(#paint9_linear_43888_10482)"/>
<path d="M179.498 118.968C179.498 117.172 179.498 116.274 179.848 115.588C180.155 114.984 180.646 114.494 181.249 114.186C181.935 113.837 182.833 113.837 184.629 113.837L188.367 113.837C190.163 113.837 191.061 113.837 191.747 114.186C192.35 114.494 192.841 114.984 193.148 115.588C193.498 116.274 193.498 117.172 193.498 118.968L193.498 175.837L179.498 175.837L179.498 118.968Z" fill="url(#paint10_linear_43888_10482)"/>
</g>
<line x1="43.498" y1="126.837" x2="228.498" y2="126.837" stroke="#A48EFF" stroke-width="2" stroke-dasharray="2 2"/>
<path d="M206.822 118.805C206.354 118.805 206.107 118.548 206.107 118.167C206.107 117.874 206.207 117.698 206.529 117.393L209.113 114.833C210.191 113.766 210.461 113.339 210.461 112.694C210.461 111.938 209.881 111.393 209.066 111.393C208.305 111.393 207.771 111.78 207.473 112.542C207.32 112.846 207.145 113.005 206.799 113.005C206.389 113.005 206.143 112.753 206.143 112.378C206.143 112.266 206.16 112.161 206.189 112.061C206.418 111.147 207.432 110.18 209.078 110.18C210.771 110.18 211.938 111.182 211.938 112.6C211.938 113.591 211.463 114.259 210.063 115.63L208.123 117.54L208.123 117.569L211.498 117.569C211.896 117.569 212.143 117.815 212.143 118.19C212.143 118.559 211.896 118.805 211.498 118.805L206.822 118.805ZM214.433 118.87C213.959 118.87 213.59 118.501 213.59 118.026C213.59 117.557 213.959 117.182 214.433 117.182C214.902 117.182 215.271 117.557 215.271 118.026C215.271 118.501 214.902 118.87 214.433 118.87ZM219.144 118.923C218.705 118.923 218.4 118.618 218.4 118.161L218.4 111.815L218.371 111.815L217.005 112.764C216.859 112.87 216.742 112.911 216.578 112.911C216.261 112.911 216.033 112.682 216.033 112.348C216.033 112.114 216.126 111.938 216.378 111.762L218.107 110.55C218.482 110.286 218.716 110.233 219.033 110.233C219.566 110.233 219.888 110.555 219.888 111.077L219.888 118.161C219.888 118.618 219.584 118.923 219.144 118.923ZM222.859 118.923C222.431 118.923 222.126 118.647 222.126 118.155L222.126 111.001C222.126 110.509 222.431 110.233 222.859 110.233C223.286 110.233 223.585 110.509 223.585 111.001L223.585 115.161L223.603 115.161L226.04 112.753C226.228 112.553 226.386 112.471 226.609 112.471C226.972 112.471 227.247 112.747 227.247 113.098C227.247 113.315 227.183 113.45 226.984 113.637L225.214 115.313L227.159 117.745C227.312 117.956 227.359 118.085 227.359 118.272C227.359 118.653 227.072 118.923 226.667 118.923C226.38 118.923 226.21 118.823 225.999 118.518L224.136 116.157L223.585 116.673L223.585 118.155C223.585 118.647 223.286 118.923 222.859 118.923Z" fill="#A48EFF"/>
</g>
<rect x="29.248" y="16.6304" width="213.5" height="168.19" rx="17.25" stroke="url(#paint11_linear_43888_10482)" stroke-width="1.5"/>
</g>
<defs>
<filter id="filter0_dd_43888_10482" x="0.498047" y="0.880371" width="275" height="229.69" filterUnits="userSpaceOnUse" color-interpolation-filters="sRGB">
<feFlood flood-opacity="0" result="BackgroundImageFix"/>
<feColorMatrix in="SourceAlpha" type="matrix" values="0 0 0 0 0 0 0 0 0 0 0 0 0 0 0 0 0 0 127 0" result="hardAlpha"/>
<feOffset dx="2" dy="15"/>
<feGaussianBlur stdDeviation="15"/>
<feComposite in2="hardAlpha" operator="out"/>
<feColorMatrix type="matrix" values="0 0 0 0 0 0 0 0 0 0 0 0 0 0 0 0 0 0 0.1 0"/>
<feBlend mode="normal" in2="BackgroundImageFix" result="effect1_dropShadow_43888_10482"/>
<feColorMatrix in="SourceAlpha" type="matrix" values="0 0 0 0 0 0 0 0 0 0 0 0 0 0 0 0 0 0 127 0" result="hardAlpha"/>
<feOffset dx="2" dy="6"/>
<feGaussianBlur stdDeviation="6"/>
<feComposite in2="hardAlpha" operator="out"/>
<feColorMatrix type="matrix" values="0 0 0 0 0 0 0 0 0 0 0 0 0 0 0 0 0 0 0.01 0"/>
<feBlend mode="normal" in2="effect1_dropShadow_43888_10482" result="effect2_dropShadow_43888_10482"/>
<feBlend mode="normal" in="BackgroundImageFix" in2="effect2_dropShadow_43888_10482" result="BackgroundImageFix"/>
<feBlend mode="normal" in="SourceGraphic" in2="BackgroundImageFix" result="shape"/>
</filter>
<radialGradient id="paint0_radial_43888_10482" cx="0" cy="0" r="1" gradientUnits="userSpaceOnUse" gradientTransform="translate(135.998 100.726) rotate(90) scale(84.8452 107.5)">
<stop stop-color="#A48EFF"/>
<stop offset="0.95195" stop-color="#A29DFF" stop-opacity="0"/>
</radialGradient>
<linearGradient id="paint1_linear_43888_10482" x1="42.874" y1="129.934" x2="233.861" y2="129.934" gradientUnits="userSpaceOnUse">
<stop stop-color="#D9D9D9" stop-opacity="0"/>
<stop offset="0.173077" stop-color="#C7C7C7"/>
<stop offset="0.5" stop-color="#A6A6A6"/>
<stop offset="0.826923" stop-color="#858585"/>
</linearGradient>
<linearGradient id="paint2_linear_43888_10482" x1="50.4981" y1="136.684" x2="50.4981" y2="175.837" gradientUnits="userSpaceOnUse">
<stop stop-color="#CBBFFF"/>
<stop offset="1" stop-color="#8771EA"/>
</linearGradient>
<linearGradient id="paint3_linear_43888_10482" x1="67.4981" y1="146.472" x2="67.4981" y2="175.837" gradientUnits="userSpaceOnUse">
<stop stop-color="#CBBFFF"/>
<stop offset="1" stop-color="#8771EA"/>
</linearGradient>
<linearGradient id="paint4_linear_43888_10482" x1="84.4981" y1="146.472" x2="84.4981" y2="175.837" gradientUnits="userSpaceOnUse">
<stop stop-color="#CBBFFF"/>
<stop offset="1" stop-color="#8771EA"/>
</linearGradient>
<linearGradient id="paint5_linear_43888_10482" x1="101.498" y1="122.98" x2="101.498" y2="175.837" gradientUnits="userSpaceOnUse">
<stop stop-color="#CBBFFF"/>
<stop offset="1" stop-color="#8771EA"/>
</linearGradient>
<linearGradient id="paint6_linear_43888_10482" x1="118.498" y1="146.472" x2="118.498" y2="175.837" gradientUnits="userSpaceOnUse">
<stop stop-color="#CBBFFF"/>
<stop offset="1" stop-color="#8771EA"/>
</linearGradient>
<linearGradient id="paint7_linear_43888_10482" x1="135.498" y1="132.768" x2="135.498" y2="175.837" gradientUnits="userSpaceOnUse">
<stop stop-color="#CBBFFF"/>
<stop offset="1" stop-color="#8771EA"/>
</linearGradient>
<linearGradient id="paint8_linear_43888_10482" x1="152.498" y1="146.472" x2="152.498" y2="175.837" gradientUnits="userSpaceOnUse">
<stop stop-color="#CBBFFF"/>
<stop offset="1" stop-color="#8771EA"/>
</linearGradient>
<linearGradient id="paint9_linear_43888_10482" x1="169.498" y1="132.768" x2="169.498" y2="175.837" gradientUnits="userSpaceOnUse">
<stop stop-color="#CBBFFF"/>
<stop offset="1" stop-color="#8771EA"/>
</linearGradient>
<linearGradient id="paint10_linear_43888_10482" x1="186.498" y1="115.149" x2="186.498" y2="175.837" gradientUnits="userSpaceOnUse">
<stop stop-color="#CBBFFF"/>
<stop offset="1" stop-color="#8771EA"/>
</linearGradient>
<linearGradient id="paint11_linear_43888_10482" x1="220.934" y1="-5.21146" x2="102.178" y2="161.476" gradientUnits="userSpaceOnUse">
<stop stop-color="white" stop-opacity="0"/>
<stop offset="1" stop-color="white"/>
</linearGradient>
<clipPath id="clip0_43888_10482">
<rect x="28.498" y="15.8804" width="215" height="169.69" rx="18" fill="white"/>
</clipPath>
<clipPath id="clip1_43888_10482">
<rect width="183" height="75" fill="white" transform="translate(43.498 27.8804)"/>
</clipPath>
</defs>
</svg>
