<svg width="268" height="299" viewBox="0 0 268 299" fill="none" xmlns="http://www.w3.org/2000/svg">
<g filter="url(#filter0_dd_43889_10593)">
<g clip-path="url(#clip0_43889_10593)">
<rect x="28.3994" y="15.437" width="207" height="237.605" rx="18" fill="white"/>
<rect x="28.3994" y="15.437" width="207" height="237.605" rx="18" fill="url(#paint0_radial_43889_10593)" fill-opacity="0.1"/>
<path d="M48.5244 46.5781C47.8604 46.5781 47.4536 46.1714 47.4536 45.4658L47.4536 35.5713C47.4536 34.874 47.8604 34.459 48.5244 34.459L52.1104 34.459C54.4927 34.459 56.1445 36.0776 56.1445 38.4683C56.1445 40.8589 54.4429 42.4775 52.019 42.4775L49.5952 42.4775L49.5952 45.4658C49.5952 46.1714 49.1968 46.5781 48.5244 46.5781ZM49.5952 40.751L51.5376 40.751C53.0732 40.751 53.9697 39.9209 53.9697 38.4683C53.9697 37.0322 53.0815 36.2104 51.5459 36.2104L49.5952 36.2104L49.5952 40.751ZM58.8752 46.603C58.2526 46.603 57.8459 46.1963 57.8459 45.5156L57.8459 38.5098C57.8459 37.8623 58.2443 37.4639 58.8337 37.4639C59.4064 37.4639 59.8131 37.8623 59.8131 38.5098L59.8131 39.1821L59.8546 39.1821C60.0954 38.1528 60.859 37.4888 61.7389 37.4888C62.0627 37.4888 62.3117 37.5718 62.4694 37.7129C62.6603 37.8706 62.7599 38.1196 62.7599 38.46C62.7599 38.7837 62.6603 39.0244 62.4528 39.1904C62.2536 39.3647 61.9464 39.4561 61.5397 39.4644C60.361 39.4727 59.9128 40.2114 59.9128 41.2822L59.9128 45.5156C59.9128 46.1963 59.4977 46.603 58.8752 46.603ZM65.1087 36.4014C64.4696 36.4014 63.9632 35.9033 63.9632 35.2808C63.9632 34.6499 64.4696 34.1602 65.1087 34.1602C65.7562 34.1602 66.2625 34.6499 66.2625 35.2808C66.2625 35.9033 65.7562 36.4014 65.1087 36.4014ZM65.1087 46.603C64.4779 46.603 64.0794 46.188 64.0794 45.5156L64.0794 38.5513C64.0794 37.8872 64.4779 37.4639 65.1087 37.4639C65.7396 37.4639 66.1463 37.8872 66.1463 38.5596L66.1463 45.5156C66.1463 46.188 65.7396 46.603 65.1087 46.603ZM69.2505 46.603C68.6279 46.603 68.2212 46.2046 68.2212 45.5156L68.2212 38.5181C68.2212 37.8457 68.6279 37.4639 69.209 37.4639C69.79 37.4639 70.2051 37.8457 70.2051 38.5181L70.2051 39.1655L70.2466 39.1655C70.6284 38.1445 71.5581 37.4722 72.7534 37.4722C73.9985 37.4722 74.8867 38.1113 75.2104 39.2402L75.2602 39.2402C75.6836 38.1528 76.7295 37.4722 77.9995 37.4722C79.7344 37.4722 80.8716 38.6426 80.8716 40.4023L80.8716 45.5156C80.8716 46.2046 80.4565 46.603 79.8423 46.603C79.2197 46.603 78.8047 46.2046 78.8047 45.5156L78.8047 40.9087C78.8047 39.8296 78.2402 39.2153 77.2275 39.2153C76.2314 39.2153 75.5508 39.9458 75.5508 41L75.5508 45.5156C75.5508 46.2046 75.1606 46.603 74.5464 46.603C73.9238 46.603 73.542 46.2046 73.542 45.5156L73.542 40.8008C73.542 39.8213 72.9443 39.2153 71.9814 39.2153C70.9853 39.2153 70.2881 39.9873 70.2881 41.0498L70.2881 45.5156C70.2881 46.2046 69.8647 46.603 69.2505 46.603ZM85.4533 46.5781C83.7516 46.5781 82.5148 45.5073 82.5148 43.9219C82.5148 42.3613 83.7184 41.4233 85.86 41.2905L88.1925 41.1577L88.1925 40.5269C88.1925 39.6055 87.57 39.0742 86.549 39.0742C85.7438 39.0742 85.2208 39.3481 84.7062 40.1035C84.4904 40.3857 84.2164 40.5186 83.8678 40.5186C83.3615 40.5186 82.9962 40.1865 82.9962 39.6885C82.9962 39.4976 83.046 39.3149 83.1373 39.124C83.5856 38.103 84.9469 37.4556 86.632 37.4556C88.8151 37.4556 90.2345 38.6094 90.2345 40.3774L90.2345 45.5654C90.2345 46.2295 89.8112 46.603 89.2301 46.603C88.6657 46.603 88.2755 46.2627 88.2423 45.6484L88.2423 45.0342L88.2008 45.0342C87.6945 45.9888 86.5905 46.5781 85.4533 46.5781ZM86.0841 45.0176C87.2462 45.0176 88.1925 44.2373 88.1925 43.1748L88.1925 42.5024L86.1505 42.627C85.1544 42.6934 84.5817 43.1416 84.5817 43.8389C84.5817 44.561 85.1876 45.0176 86.0841 45.0176ZM93.2723 46.603C92.6497 46.603 92.243 46.1963 92.243 45.5156L92.243 38.5098C92.243 37.8623 92.6414 37.4639 93.2308 37.4639C93.8035 37.4639 94.2103 37.8623 94.2103 38.5098L94.2103 39.1821L94.2518 39.1821C94.4925 38.1528 95.2562 37.4888 96.136 37.4888C96.4598 37.4888 96.7088 37.5718 96.8665 37.7129C97.0574 37.8706 97.157 38.1196 97.157 38.46C97.157 38.7837 97.0574 39.0244 96.8499 39.1904C96.6507 39.3647 96.3436 39.4561 95.9368 39.4644C94.7581 39.4727 94.3099 40.2114 94.3099 41.2822L94.3099 45.5156C94.3099 46.1963 93.8948 46.603 93.2723 46.603ZM99.6884 49.7075C98.7588 49.7075 98.2524 49.3589 98.2524 48.728C98.2524 48.3047 98.5512 48.0308 99.0327 48.0308C99.207 48.0308 99.29 48.0391 99.4809 48.0391C99.9458 48.0391 100.427 47.7983 100.734 47.0264L100.884 46.5947L98.0034 39.0161C97.9287 38.8086 97.8872 38.5928 97.8872 38.4268C97.8872 37.8623 98.3437 37.4639 98.9497 37.4639C99.4726 37.4639 99.7631 37.6963 99.9375 38.2773L102.038 44.6772L102.071 44.6772L104.171 38.269C104.345 37.7046 104.644 37.4639 105.167 37.4639C105.756 37.4639 106.171 37.854 106.171 38.4019C106.171 38.5679 106.13 38.8003 106.055 38.9995L103.158 46.7524C102.361 48.9438 101.448 49.7075 99.6884 49.7075ZM115.816 46.6362C113.426 46.6362 111.832 45.6401 111.367 44.2788C111.292 44.0796 111.251 43.8638 111.251 43.6646C111.251 43.0669 111.633 42.6851 112.197 42.6851C112.67 42.6851 112.969 42.876 113.201 43.3574C113.575 44.395 114.604 44.8599 115.883 44.8599C117.327 44.8599 118.34 44.146 118.34 43.1499C118.34 42.2866 117.742 41.7554 116.181 41.4316L114.895 41.166C112.496 40.6763 111.375 39.5474 111.375 37.7959C111.375 35.6875 113.226 34.2598 115.824 34.2598C117.941 34.2598 119.585 35.2061 120.074 36.7915C120.124 36.9243 120.149 37.082 120.149 37.2812C120.149 37.8042 119.776 38.1611 119.22 38.1611C118.721 38.1611 118.414 37.9453 118.19 37.4805C117.783 36.4678 116.928 36.0361 115.808 36.0361C114.48 36.0361 113.533 36.667 113.533 37.6714C113.533 38.4849 114.131 39.0078 115.625 39.3232L116.912 39.5889C119.435 40.1118 120.498 41.1245 120.498 42.9009C120.498 45.1919 118.697 46.6362 115.816 46.6362ZM123.336 46.603C122.73 46.603 122.299 46.2129 122.299 45.5156L122.299 35.3804C122.299 34.6831 122.73 34.293 123.336 34.293C123.942 34.293 124.366 34.6831 124.366 35.3804L124.366 45.5156C124.366 46.2129 123.942 46.603 123.336 46.603ZM130.375 46.6113C127.686 46.6113 126.1 44.9263 126.1 42.0708C126.1 39.2651 127.719 37.4556 130.259 37.4556C132.666 37.4556 134.31 39.1655 134.31 41.5562C134.31 42.1704 133.961 42.5356 133.347 42.5356L128.159 42.5356L128.159 42.6021C128.159 44.0713 129.014 45.0176 130.358 45.0176C131.288 45.0176 131.894 44.6938 132.558 43.8472C132.774 43.6064 132.965 43.5151 133.255 43.5151C133.72 43.5151 134.086 43.814 134.086 44.312C134.086 44.4697 134.036 44.6523 133.944 44.835C133.363 45.9556 132.052 46.6113 130.375 46.6113ZM128.175 41.1743L132.284 41.1743C132.243 39.896 131.429 39.0576 130.267 39.0576C129.105 39.0576 128.258 39.9126 128.175 41.1743ZM139.896 46.6113C137.206 46.6113 135.621 44.9263 135.621 42.0708C135.621 39.2651 137.24 37.4556 139.78 37.4556C142.187 37.4556 143.83 39.1655 143.83 41.5562C143.83 42.1704 143.482 42.5356 142.867 42.5356L137.679 42.5356L137.679 42.6021C137.679 44.0713 138.534 45.0176 139.879 45.0176C140.809 45.0176 141.415 44.6938 142.079 43.8472C142.295 43.6064 142.486 43.5151 142.776 43.5151C143.241 43.5151 143.606 43.814 143.606 44.312C143.606 44.4697 143.556 44.6523 143.465 44.835C142.884 45.9556 141.573 46.6113 139.896 46.6113ZM137.696 41.1743L141.805 41.1743C141.763 39.896 140.95 39.0576 139.788 39.0576C138.626 39.0576 137.779 39.9126 137.696 41.1743ZM146.536 49.5664C145.93 49.5664 145.507 49.1763 145.507 48.479L145.507 38.5264C145.507 37.8457 145.922 37.4639 146.511 37.4639C147.101 37.4639 147.524 37.8457 147.524 38.5264L147.524 39.1572L147.565 39.1572C148.063 38.1362 149.059 37.4888 150.338 37.4888C152.571 37.4888 153.99 39.2236 153.99 42.0376C153.99 44.8433 152.579 46.5781 150.371 46.5781C149.093 46.5781 148.097 45.9639 147.615 44.9761L147.574 44.9761L147.574 48.479C147.574 49.1763 147.142 49.5664 146.536 49.5664ZM149.707 44.8848C151.043 44.8848 151.873 43.7808 151.873 42.0376C151.873 40.3027 151.043 39.1904 149.707 39.1904C148.42 39.1904 147.565 40.3276 147.557 42.0376C147.565 43.7642 148.42 44.8848 149.707 44.8848Z" fill="#222326"/>
<path d="M50.5127 67.6211C48.4116 67.6211 46.9453 66.5229 46.9453 64.9614C46.9453 63.7744 47.7896 62.8667 49.0146 62.6191L49.0146 62.5811C47.9609 62.3018 47.2754 61.521 47.2754 60.5371C47.2754 59.1279 48.6211 58.0933 50.5127 58.0933C52.4043 58.0933 53.7437 59.1216 53.7437 60.5435C53.7437 61.5146 53.0645 62.2891 52.0107 62.5811L52.0107 62.6191C53.2358 62.873 54.0864 63.7808 54.0864 64.9614C54.0864 66.5293 52.6074 67.6211 50.5127 67.6211ZM50.5127 62.0605C51.4585 62.0605 52.1313 61.502 52.1313 60.7021C52.1313 59.8896 51.4585 59.3311 50.5127 59.3311C49.5605 59.3311 48.894 59.896 48.894 60.7021C48.894 61.502 49.5605 62.0605 50.5127 62.0605ZM50.5127 66.3706C51.6108 66.3706 52.3853 65.7295 52.3853 64.8408C52.3853 63.9458 51.6108 63.311 50.5127 63.311C49.4146 63.311 48.6401 63.9521 48.6401 64.8408C48.6401 65.7295 49.4146 66.3706 50.5127 66.3706ZM55.8666 69.6206C55.4413 69.6206 55.181 69.3604 55.181 68.9985C55.181 68.8906 55.2001 68.7827 55.2191 68.7129L58.1136 58.7471C58.2342 58.3408 58.4501 58.1504 58.8309 58.1504C59.2372 58.1504 59.5101 58.4106 59.5101 58.7979C59.5101 58.8867 59.5038 58.9629 59.4784 59.0581L56.5712 69.062C56.4569 69.4365 56.2347 69.6206 55.8666 69.6206ZM63.8801 67.564C63.404 67.564 63.0739 67.2339 63.0739 66.7388L63.0739 59.8643L63.0422 59.8643L61.5632 60.8926C61.4045 61.0068 61.2776 61.0513 61.0998 61.0513C60.7571 61.0513 60.5095 60.8037 60.5095 60.4419C60.5095 60.188 60.6111 59.9976 60.884 59.8071L62.7566 58.4932C63.1628 58.2075 63.4167 58.1504 63.7595 58.1504C64.3371 58.1504 64.6862 58.4995 64.6862 59.0645L64.6862 66.7388C64.6862 67.2339 64.3562 67.564 63.8801 67.564ZM72.3697 67.564C71.919 67.564 71.5889 67.272 71.5889 66.7578L71.5889 65.6787L67.9771 65.6787C67.3868 65.6787 66.9996 65.3042 66.9996 64.7583C66.9996 64.4028 67.1012 64.1045 67.3551 63.6475C67.9962 62.4985 69.0372 60.9307 70.1353 59.3184C70.732 58.4297 71.1319 58.1504 71.8048 58.1504C72.649 58.1504 73.1505 58.5947 73.1505 59.3564L73.1505 64.333L73.7916 64.333C74.2232 64.333 74.4835 64.6123 74.4835 65.0059C74.4835 65.4058 74.2232 65.6787 73.7852 65.6787L73.1505 65.6787L73.1505 66.7578C73.1505 67.272 72.8267 67.564 72.3697 67.564ZM71.6143 64.3711L71.6143 59.5215L71.5889 59.5215C70.1353 61.6035 69.2276 62.9746 68.4849 64.3267L68.4849 64.3711L71.6143 64.3711ZM76.0034 69.6206C75.5781 69.6206 75.3178 69.3604 75.3178 68.9985C75.3178 68.8906 75.3369 68.7827 75.3559 68.7129L78.2504 58.7471C78.371 58.3408 78.5869 58.1504 78.9677 58.1504C79.374 58.1504 79.6469 58.4106 79.6469 58.7979C79.6469 58.8867 79.6406 58.9629 79.6152 59.0581L76.7079 69.062C76.5937 69.4365 76.3715 69.6206 76.0034 69.6206ZM81.6619 67.437C81.1541 67.437 80.8875 67.1577 80.8875 66.7451C80.8875 66.4277 80.9954 66.2373 81.3445 65.9072L84.1438 63.1333C85.3118 61.978 85.6038 61.5146 85.6038 60.8164C85.6038 59.9976 84.9754 59.4072 84.0931 59.4072C83.2679 59.4072 82.6902 59.8262 82.3665 60.6514C82.2015 60.9814 82.011 61.1528 81.6365 61.1528C81.1922 61.1528 80.9256 60.8799 80.9256 60.4736C80.9256 60.353 80.9446 60.2388 80.9764 60.1309C81.2239 59.1406 82.3221 58.0933 84.1058 58.0933C85.9402 58.0933 87.2034 59.1787 87.2034 60.7148C87.2034 61.7876 86.6893 62.5112 85.1722 63.9966L83.0711 66.0659L83.0711 66.0977L86.7273 66.0977C87.159 66.0977 87.4256 66.3643 87.4256 66.7705C87.4256 67.1704 87.159 67.437 86.7273 67.437L81.6619 67.437ZM92.3478 67.6211C90.9386 67.6211 89.7199 66.9482 89.2692 65.9517C89.1803 65.7549 89.1232 65.5645 89.1232 65.3296C89.1232 64.9043 89.3962 64.6377 89.8278 64.6377C90.1706 64.6377 90.38 64.771 90.5514 65.1074C90.8625 65.8501 91.4718 66.2881 92.3542 66.2881C93.4396 66.2881 94.2077 65.52 94.2077 64.4346C94.2077 63.3809 93.4396 62.6318 92.3605 62.6318C91.7829 62.6318 91.2814 62.8667 90.9323 63.2095C90.5514 63.5903 90.3927 63.6729 90.0182 63.6729C89.4914 63.6729 89.2311 63.2983 89.2438 62.854C89.2438 62.8159 89.2438 62.7905 89.2502 62.7524L89.5421 59.293C89.5993 58.5693 89.9674 58.2773 90.6847 58.2773L94.633 58.2773C95.0519 58.2773 95.3249 58.5439 95.3249 58.9438C95.3249 59.3501 95.0519 59.6167 94.633 59.6167L90.9323 59.6167L90.6911 62.3271L90.7228 62.3271C91.11 61.7559 91.8654 61.4004 92.7858 61.4004C94.5378 61.4004 95.7882 62.6382 95.7882 64.3901C95.7882 66.3071 94.3791 67.6211 92.3478 67.6211ZM102.224 67.5449C100.923 67.5449 99.9769 66.7261 99.9769 65.5137C99.9769 64.3203 100.897 63.603 102.535 63.5015L104.319 63.3999L104.319 62.9175C104.319 62.2129 103.843 61.8066 103.062 61.8066C102.446 61.8066 102.046 62.0161 101.653 62.5937C101.488 62.8096 101.278 62.9111 101.012 62.9111C100.624 62.9111 100.345 62.6572 100.345 62.2764C100.345 62.1304 100.383 61.9907 100.453 61.8447C100.796 61.064 101.837 60.5688 103.125 60.5688C104.795 60.5688 105.88 61.4512 105.88 62.8032L105.88 66.7705C105.88 67.2783 105.557 67.564 105.112 67.564C104.681 67.564 104.382 67.3037 104.357 66.834L104.357 66.3643L104.325 66.3643C103.938 67.0942 103.094 67.5449 102.224 67.5449ZM102.706 66.3516C103.595 66.3516 104.319 65.7549 104.319 64.9424L104.319 64.4282L102.757 64.5234C101.995 64.5742 101.557 64.917 101.557 65.4502C101.557 66.0024 102.021 66.3516 102.706 66.3516ZM107.984 65.7739L107.984 61.9272L107.559 61.9272C107.165 61.9272 106.924 61.6924 106.924 61.3115C106.924 60.937 107.165 60.7085 107.559 60.7085L107.984 60.7085L107.984 59.8135C107.984 59.3057 108.289 58.9883 108.778 58.9883C109.26 58.9883 109.565 59.3057 109.565 59.8135L109.565 60.7085L110.295 60.7085C110.688 60.7085 110.929 60.937 110.929 61.3115C110.929 61.6924 110.688 61.9272 110.295 61.9272L109.565 61.9272L109.565 65.4312C109.565 65.939 109.742 66.1611 110.199 66.1992L110.314 66.2119C110.733 66.25 110.948 66.4277 110.948 66.7959C110.948 67.2593 110.542 67.5068 109.819 67.5068L109.755 67.5068C108.581 67.5068 107.984 66.9229 107.984 65.7739ZM118.438 67.564C117.962 67.564 117.632 67.2339 117.632 66.7388L117.632 59.8643L117.6 59.8643L116.121 60.8926C115.962 61.0068 115.835 61.0513 115.658 61.0513C115.315 61.0513 115.067 60.8037 115.067 60.4419C115.067 60.188 115.169 59.9976 115.442 59.8071L117.314 58.4932C117.721 58.2075 117.975 58.1504 118.317 58.1504C118.895 58.1504 119.244 58.4995 119.244 59.0645L119.244 66.7388C119.244 67.2339 118.914 67.564 118.438 67.564ZM122.541 67.437C122.034 67.437 121.767 67.1577 121.767 66.7451C121.767 66.4277 121.875 66.2373 122.224 65.9072L125.023 63.1333C126.191 61.978 126.483 61.5146 126.483 60.8164C126.483 59.9976 125.855 59.4072 124.972 59.4072C124.147 59.4072 123.57 59.8262 123.246 60.6514C123.081 60.9814 122.89 61.1528 122.516 61.1528C122.072 61.1528 121.805 60.8799 121.805 60.4736C121.805 60.353 121.824 60.2388 121.856 60.1309C122.103 59.1406 123.201 58.0933 124.985 58.0933C126.82 58.0933 128.083 59.1787 128.083 60.7148C128.083 61.7876 127.569 62.5112 126.052 63.9966L123.951 66.0659L123.951 66.0977L127.607 66.0977C128.038 66.0977 128.305 66.3643 128.305 66.7705C128.305 67.1704 128.038 67.437 127.607 67.437L122.541 67.437ZM130.917 61.5146C130.403 61.5146 130.003 61.1084 130.003 60.6006C130.003 60.0928 130.403 59.6865 130.917 59.6865C131.424 59.6865 131.824 60.0928 131.824 60.6006C131.824 61.1084 131.424 61.5146 130.917 61.5146ZM130.917 66.0977C130.403 66.0977 130.003 65.6978 130.003 65.1836C130.003 64.6758 130.403 64.2695 130.917 64.2695C131.424 64.2695 131.824 64.6758 131.824 65.1836C131.824 65.6978 131.424 66.0977 130.917 66.0977ZM137.001 67.6211C135.395 67.6211 134.354 66.9673 133.877 66.0469C133.757 65.8247 133.706 65.6152 133.706 65.3994C133.706 64.9678 133.979 64.6948 134.436 64.6948C134.772 64.6948 134.976 64.8408 135.147 65.1772C135.464 65.8691 136.017 66.2817 137.02 66.2817C138.061 66.2817 138.765 65.6851 138.765 64.8535C138.772 63.876 138.061 63.3301 136.886 63.3301L136.366 63.3301C135.96 63.3301 135.718 63.0825 135.718 62.7207C135.718 62.3589 135.96 62.1113 136.366 62.1113L136.848 62.1113C137.857 62.1113 138.53 61.5337 138.53 60.7212C138.53 59.9277 138.01 59.3945 136.994 59.3945C136.131 59.3945 135.629 59.75 135.325 60.4673C135.147 60.8608 134.969 61.0068 134.588 61.0068C134.131 61.0068 133.89 60.7402 133.89 60.3213C133.89 60.0928 133.935 59.8896 134.049 59.6675C134.481 58.7598 135.496 58.0933 136.988 58.0933C138.886 58.0933 140.105 59.0835 140.105 60.499C140.105 61.6479 139.286 62.416 138.181 62.6445L138.181 62.6763C139.533 62.8032 140.428 63.6157 140.428 64.8916C140.428 66.5166 139.006 67.6211 137.001 67.6211ZM142.869 67.437C142.361 67.437 142.094 67.1577 142.094 66.7451C142.094 66.4277 142.202 66.2373 142.551 65.9072L145.35 63.1333C146.518 61.978 146.81 61.5146 146.81 60.8164C146.81 59.9976 146.182 59.4072 145.3 59.4072C144.475 59.4072 143.897 59.8262 143.573 60.6514C143.408 60.9814 143.218 61.1528 142.843 61.1528C142.399 61.1528 142.132 60.8799 142.132 60.4736C142.132 60.353 142.151 60.2388 142.183 60.1309C142.431 59.1406 143.529 58.0933 145.312 58.0933C147.147 58.0933 148.41 59.1787 148.41 60.7148C148.41 61.7876 147.896 62.5112 146.379 63.9966L144.278 66.0659L144.278 66.0977L147.934 66.0977C148.366 66.0977 148.632 66.3643 148.632 66.7705C148.632 67.1704 148.366 67.437 147.934 67.437L142.869 67.437ZM153.691 67.5449C153.189 67.5449 152.865 67.2529 152.865 66.7896C152.865 66.6626 152.897 66.4849 152.973 66.2881L155.633 59.0581C155.855 58.4487 156.223 58.1694 156.82 58.1694C157.423 58.1694 157.791 58.436 158.02 59.0518L160.686 66.2881C160.762 66.4976 160.794 66.6436 160.794 66.7896C160.794 67.2339 160.451 67.5449 159.975 67.5449C159.53 67.5449 159.283 67.3418 159.137 66.853L158.534 65.1011L155.112 65.1011L154.509 66.8403C154.357 67.3354 154.116 67.5449 153.691 67.5449ZM155.5 63.8062L158.134 63.8062L156.833 59.896L156.788 59.896L155.5 63.8062ZM163.113 67.5449C162.65 67.5449 162.377 67.2593 162.377 66.7769L162.377 59.2104C162.377 58.563 162.777 58.1694 163.431 58.1694C163.996 58.1694 164.319 58.4106 164.561 59.02L167.081 65.1899L167.131 65.1899L169.645 59.02C169.886 58.417 170.216 58.1694 170.788 58.1694C171.441 58.1694 171.829 58.5566 171.829 59.2104L171.829 66.7769C171.829 67.2593 171.556 67.5449 171.092 67.5449C170.629 67.5449 170.356 67.2593 170.356 66.7769L170.356 60.937L170.312 60.937L167.88 66.8276C167.722 67.2085 167.487 67.3799 167.106 67.3799C166.731 67.3799 166.484 67.2085 166.332 66.834L163.9 60.937L163.856 60.937L163.856 66.7769C163.856 67.2593 163.577 67.5449 163.113 67.5449Z" fill="#8B8C8F"/>
<mask id="mask0_43889_10593" style="mask-type:alpha" maskUnits="userSpaceOnUse" x="23" y="71" width="218" height="178">
<rect x="23.6367" y="71.1872" width="216.526" height="177.628" fill="url(#paint1_linear_43889_10593)"/>
</mask>
<g mask="url(#mask0_43889_10593)">
<g filter="url(#filter1_d_43889_10593)">
<rect x="39.3994" y="82.437" width="185" height="41" rx="12" fill="white"/>
<path d="M53.8994 90.5621C55.499 90.5621 56.9756 91.4234 57.7842 92.8121C58.5928 94.2183 58.5928 95.9234 57.7842 97.3121C56.9756 98.7183 55.499 99.5621 53.8994 99.5621C52.2822 99.5621 50.8057 98.7183 49.9971 97.3121C49.1885 95.9234 49.1885 94.2183 49.9971 92.8121C50.8057 91.4234 52.2822 90.5621 53.8994 90.5621ZM53.4775 92.6714L53.4775 95.0621C53.4775 95.2027 53.5479 95.3433 53.6533 95.4136L55.3408 96.5386C55.5342 96.6793 55.7979 96.6265 55.9385 96.4332C56.0615 96.2398 56.0088 95.9761 55.8154 95.8355L54.3213 94.8511L54.3213 92.6714C54.3213 92.4429 54.1279 92.2496 53.8994 92.2496C53.6533 92.2496 53.4775 92.4429 53.4775 92.6714Z" fill="#8B8C8F"/>
<path d="M65.665 98.5283C65.2354 98.5283 64.9775 98.2651 64.9775 97.8086L64.9775 91.8574L63.2051 91.8574C62.8291 91.8574 62.5713 91.6318 62.5713 91.272C62.5713 90.9121 62.8237 90.6865 63.2051 90.6865L68.1304 90.6865C68.5117 90.6865 68.7642 90.9121 68.7642 91.272C68.7642 91.6318 68.5063 91.8574 68.1304 91.8574L66.3579 91.8574L66.3579 97.8086C66.3579 98.2651 66.1001 98.5283 65.665 98.5283ZM70.1497 91.9434C69.7361 91.9434 69.4085 91.6211 69.4085 91.2183C69.4085 90.8101 69.7361 90.4932 70.1497 90.4932C70.5686 90.4932 70.8963 90.8101 70.8963 91.2183C70.8963 91.6211 70.5686 91.9434 70.1497 91.9434ZM70.1497 98.5444C69.7415 98.5444 69.4837 98.2759 69.4837 97.8408L69.4837 93.3345C69.4837 92.9048 69.7415 92.6309 70.1497 92.6309C70.5579 92.6309 70.8211 92.9048 70.8211 93.3398L70.8211 97.8408C70.8211 98.2759 70.5579 98.5444 70.1497 98.5444ZM72.8296 98.5444C72.4268 98.5444 72.1636 98.2866 72.1636 97.8408L72.1636 93.313C72.1636 92.8779 72.4268 92.6309 72.8028 92.6309C73.1788 92.6309 73.4473 92.8779 73.4473 93.313L73.4473 93.7319L73.4742 93.7319C73.7212 93.0713 74.3228 92.6362 75.0962 92.6362C75.9019 92.6362 76.4766 93.0498 76.6861 93.7803L76.7183 93.7803C76.9922 93.0767 77.669 92.6362 78.4908 92.6362C79.6133 92.6362 80.3492 93.3936 80.3492 94.5322L80.3492 97.8408C80.3492 98.2866 80.0806 98.5444 79.6832 98.5444C79.2803 98.5444 79.0118 98.2866 79.0118 97.8408L79.0118 94.8599C79.0118 94.1616 78.6465 93.7642 77.9913 93.7642C77.3467 93.7642 76.9063 94.2368 76.9063 94.9189L76.9063 97.8408C76.9063 98.2866 76.6539 98.5444 76.2564 98.5444C75.8536 98.5444 75.6065 98.2866 75.6065 97.8408L75.6065 94.79C75.6065 94.1563 75.2198 93.7642 74.5967 93.7642C73.9522 93.7642 73.501 94.2637 73.501 94.9512L73.501 97.8408C73.501 98.2866 73.2271 98.5444 72.8296 98.5444ZM84.1732 98.5498C82.4329 98.5498 81.4071 97.4595 81.4071 95.6118C81.4071 93.7964 82.4544 92.6255 84.098 92.6255C85.6556 92.6255 86.7191 93.7319 86.7191 95.2788C86.7191 95.6763 86.4935 95.9126 86.096 95.9126L82.7391 95.9126L82.7391 95.9556C82.7391 96.9063 83.2923 97.5186 84.1624 97.5186C84.764 97.5186 85.1561 97.3091 85.5858 96.7612C85.7254 96.6055 85.849 96.5464 86.037 96.5464C86.3377 96.5464 86.5741 96.7397 86.5741 97.062C86.5741 97.1641 86.5418 97.2822 86.4828 97.4004C86.1068 98.1255 85.2581 98.5498 84.1732 98.5498ZM82.7498 95.0317L85.4085 95.0317C85.3817 94.2046 84.8553 93.6621 84.1034 93.6621C83.3514 93.6621 82.8036 94.2153 82.7498 95.0317ZM91.8964 98.5283C90.7953 98.5283 89.995 97.8354 89.995 96.8096C89.995 95.7998 90.7738 95.1929 92.1596 95.1069L93.6688 95.021L93.6688 94.6128C93.6688 94.0166 93.266 93.6729 92.6054 93.6729C92.0844 93.6729 91.746 93.8501 91.413 94.3389C91.2733 94.5215 91.0961 94.6074 90.8705 94.6074C90.5429 94.6074 90.3065 94.3926 90.3065 94.0703C90.3065 93.9468 90.3388 93.8286 90.3979 93.7051C90.6879 93.0444 91.5688 92.6255 92.6591 92.6255C94.0717 92.6255 94.9901 93.3721 94.9901 94.5161L94.9901 97.873C94.9901 98.3027 94.7162 98.5444 94.3402 98.5444C93.975 98.5444 93.7226 98.3242 93.7011 97.9268L93.7011 97.5293L93.6742 97.5293C93.3466 98.147 92.6322 98.5283 91.8964 98.5283ZM92.3046 97.5186C93.0565 97.5186 93.6688 97.0137 93.6688 96.3262L93.6688 95.8911L92.3476 95.9717C91.703 96.0146 91.3324 96.3047 91.3324 96.7559C91.3324 97.2231 91.7245 97.5186 92.3046 97.5186ZM98.4865 98.5498C97.2834 98.5498 96.4401 98.0879 96.1662 97.4058C96.1286 97.3091 96.1125 97.2231 96.1125 97.1426C96.1125 96.8203 96.3488 96.6162 96.6711 96.6162C96.8913 96.6162 97.0793 96.7183 97.2512 96.9438C97.5519 97.3789 97.8957 97.5723 98.5348 97.5723C99.1579 97.5723 99.5715 97.3091 99.5715 96.8794C99.5715 96.5356 99.3566 96.3477 98.7712 96.2134L97.8473 96.0039C96.7355 95.7515 96.1877 95.2036 96.1877 94.3765C96.1877 93.3184 97.1008 92.6255 98.508 92.6255C99.6037 92.6255 100.452 93.1626 100.63 93.8179C100.646 93.8877 100.656 93.9521 100.656 94.0166C100.656 94.2959 100.479 94.4946 100.141 94.4946C99.9474 94.4946 99.7541 94.4248 99.6305 94.2476C99.3674 93.8555 99.0397 93.6084 98.4758 93.6084C97.8903 93.6084 97.4875 93.8931 97.4875 94.3013C97.4875 94.6343 97.7346 94.8599 98.3254 94.9941L99.2331 95.1929C100.436 95.4668 100.914 95.9019 100.914 96.7451C100.914 97.8354 99.9367 98.5498 98.4865 98.5498ZM102.686 98.5444C102.294 98.5444 102.015 98.292 102.015 97.8408L102.015 91.2827C102.015 90.8315 102.294 90.5791 102.686 90.5791C103.079 90.5791 103.353 90.8315 103.353 91.2827L103.353 97.8408C103.353 98.292 103.079 98.5444 102.686 98.5444ZM107.241 98.5498C105.501 98.5498 104.475 97.4595 104.475 95.6118C104.475 93.7964 105.522 92.6255 107.166 92.6255C108.723 92.6255 109.787 93.7319 109.787 95.2788C109.787 95.6763 109.561 95.9126 109.164 95.9126L105.807 95.9126L105.807 95.9556C105.807 96.9063 106.36 97.5186 107.23 97.5186C107.832 97.5186 108.224 97.3091 108.654 96.7612C108.793 96.6055 108.917 96.5464 109.105 96.5464C109.406 96.5464 109.642 96.7397 109.642 97.062C109.642 97.1641 109.61 97.2822 109.551 97.4004C109.175 98.1255 108.326 98.5498 107.241 98.5498ZM105.818 95.0317L108.476 95.0317C108.449 94.2046 107.923 93.6621 107.171 93.6621C106.419 93.6621 105.871 94.2153 105.818 95.0317ZM113.401 98.5498C111.661 98.5498 110.635 97.4595 110.635 95.6118C110.635 93.7964 111.683 92.6255 113.326 92.6255C114.884 92.6255 115.947 93.7319 115.947 95.2788C115.947 95.6763 115.722 95.9126 115.324 95.9126L111.967 95.9126L111.967 95.9556C111.967 96.9063 112.521 97.5186 113.391 97.5186C113.992 97.5186 114.384 97.3091 114.814 96.7612C114.954 96.6055 115.077 96.5464 115.265 96.5464C115.566 96.5464 115.802 96.7397 115.802 97.062C115.802 97.1641 115.77 97.2822 115.711 97.4004C115.335 98.1255 114.486 98.5498 113.401 98.5498ZM111.978 95.0317L114.637 95.0317C114.61 94.2046 114.084 93.6621 113.332 93.6621C112.58 93.6621 112.032 94.2153 111.978 95.0317ZM117.698 100.462C117.306 100.462 117.032 100.209 117.032 99.7583L117.032 93.3184C117.032 92.8779 117.301 92.6309 117.682 92.6309C118.063 92.6309 118.337 92.8779 118.337 93.3184L118.337 93.7266L118.364 93.7266C118.686 93.0659 119.331 92.647 120.158 92.647C121.603 92.647 122.521 93.7695 122.521 95.5903C122.521 97.4058 121.608 98.5283 120.179 98.5283C119.352 98.5283 118.708 98.1309 118.396 97.4917L118.369 97.4917L118.369 99.7583C118.369 100.209 118.09 100.462 117.698 100.462ZM119.75 97.4326C120.615 97.4326 121.152 96.7183 121.152 95.5903C121.152 94.4678 120.615 93.748 119.75 93.748C118.917 93.748 118.364 94.4839 118.359 95.5903C118.364 96.7075 118.917 97.4326 119.75 97.4326Z" fill="#222326"/>
<path d="M191.261 98.5659C189 98.5659 187.593 97.0298 187.593 94.5322C187.593 92.0723 188.995 90.5576 191.235 90.5576C192.695 90.5576 193.861 91.2666 194.291 92.2656C194.371 92.4482 194.393 92.5879 194.393 92.7275C194.393 93.0928 194.151 93.3345 193.78 93.3345C193.48 93.3345 193.27 93.2002 193.098 92.8887C192.712 92.1206 192.083 91.7339 191.24 91.7339C189.843 91.7339 189.011 92.7705 189.011 94.5161C189.011 96.2993 189.881 97.3896 191.278 97.3896C192.448 97.3896 193.259 96.6484 193.281 95.5635L193.286 95.4346L191.911 95.4346C191.568 95.4346 191.331 95.2305 191.331 94.9028C191.331 94.5752 191.568 94.3765 191.911 94.3765L193.952 94.3765C194.382 94.3765 194.64 94.645 194.64 95.0962L194.64 95.2573C194.64 97.2715 193.404 98.5659 191.261 98.5659ZM198.378 98.5498C196.707 98.5498 195.623 97.438 195.623 95.5903C195.623 93.7534 196.718 92.6255 198.378 92.6255C200.038 92.6255 201.133 93.748 201.133 95.5903C201.133 97.438 200.048 98.5498 198.378 98.5498ZM198.378 97.4917C199.227 97.4917 199.774 96.8042 199.774 95.5903C199.774 94.3818 199.227 93.689 198.378 93.689C197.535 93.689 196.981 94.3818 196.981 95.5903C196.981 96.8042 197.529 97.4917 198.378 97.4917ZM204.732 98.5498C203.061 98.5498 201.976 97.438 201.976 95.5903C201.976 93.7534 203.072 92.6255 204.732 92.6255C206.391 92.6255 207.487 93.748 207.487 95.5903C207.487 97.438 206.402 98.5498 204.732 98.5498ZM204.732 97.4917C205.58 97.4917 206.128 96.8042 206.128 95.5903C206.128 94.3818 205.58 93.689 204.732 93.689C203.888 93.689 203.335 94.3818 203.335 95.5903C203.335 96.8042 203.883 97.4917 204.732 97.4917ZM210.693 98.5283C209.259 98.5283 208.33 97.395 208.33 95.585C208.33 93.7856 209.259 92.647 210.693 92.647C211.51 92.647 212.154 93.0713 212.455 93.6997L212.487 93.6997L212.487 91.2827C212.487 90.8315 212.761 90.5791 213.153 90.5791C213.545 90.5791 213.825 90.8315 213.825 91.2827L213.825 97.873C213.825 98.3027 213.551 98.5444 213.164 98.5444C212.777 98.5444 212.487 98.3081 212.487 97.873L212.487 97.4272L212.46 97.4272C212.187 98.0825 211.574 98.5283 210.693 98.5283ZM211.096 97.4326C211.939 97.4326 212.493 96.7183 212.493 95.5903C212.493 94.4731 211.939 93.748 211.096 93.748C210.237 93.748 209.7 94.4624 209.7 95.5903C209.7 96.7236 210.231 97.4326 211.096 97.4326Z" fill="#62C58C"/>
<rect x="214.399" y="113.437" width="165" height="5" rx="2.5" transform="rotate(-180 214.399 113.437)" fill="#222326" fill-opacity="0.1"/>
<rect x="49.3994" y="107.937" width="126.076" height="6" rx="3" fill="url(#paint2_linear_43889_10593)"/>
<rect x="49.3994" y="107.937" width="126.076" height="6" rx="3" fill="url(#paint3_linear_43889_10593)"/>
</g>
<g filter="url(#filter2_d_43889_10593)">
<rect x="39.3994" y="127.437" width="185" height="41" rx="12" fill="white"/>
<path d="M54.4443 136.125L54.4443 136.142C54.5498 136.142 54.6729 136.142 54.7783 136.142C54.9014 136.16 55.0068 136.248 55.0244 136.371C55.0596 136.494 55.0068 136.617 54.9014 136.669C53.9521 137.197 53.3193 138.216 53.3193 139.359C53.3193 141.082 54.708 142.453 56.4131 142.453C56.5889 142.453 56.7646 142.453 56.9404 142.417C57.0635 142.4 57.1865 142.453 57.2393 142.558C57.292 142.681 57.2744 142.804 57.1865 142.892C56.4834 143.578 55.5166 144 54.4443 144C52.2822 144 50.5244 142.242 50.5244 140.062C50.5244 137.9 52.2822 136.125 54.4443 136.125Z" fill="#8B8C8F"/>
<path d="M63.7744 143.544C63.3447 143.544 63.0815 143.276 63.0815 142.825L63.0815 136.406C63.0815 135.955 63.3447 135.687 63.7744 135.687L66.1592 135.687C67.835 135.687 68.8394 136.616 68.8394 138.098C68.8394 139.108 68.3237 139.935 67.4268 140.284L68.6514 142.433C68.7695 142.631 68.8018 142.75 68.8018 142.911C68.8018 143.276 68.501 143.544 68.1035 143.544C67.7759 143.544 67.6147 143.426 67.3999 143.045L66.0195 140.521L64.4673 140.521L64.4673 142.825C64.4673 143.276 64.2041 143.544 63.7744 143.544ZM64.4673 139.457L66.0303 139.457C66.9111 139.457 67.4214 138.968 67.4214 138.13C67.4214 137.314 66.8789 136.809 66.0034 136.809L64.4673 136.809L64.4673 139.457ZM70.8694 143.437C70.4397 143.437 70.1765 143.168 70.1765 142.717L70.1765 136.406C70.1765 135.955 70.4397 135.687 70.8694 135.687L74.6453 135.687C75.0266 135.687 75.2791 135.912 75.2791 136.272C75.2791 136.632 75.0266 136.857 74.6453 136.857L71.5623 136.857L71.5623 138.952L74.4842 138.952C74.8387 138.952 75.0804 139.162 75.0804 139.5C75.0804 139.838 74.844 140.053 74.4842 140.053L71.5623 140.053L71.5623 142.266L74.6453 142.266C75.0266 142.266 75.2791 142.492 75.2791 142.852C75.2791 143.211 75.0266 143.437 74.6453 143.437L70.8694 143.437ZM77.2393 143.528C76.8472 143.528 76.6163 143.287 76.6163 142.878L76.6163 136.476C76.6163 135.928 76.9546 135.595 77.5079 135.595C77.9859 135.595 78.2598 135.799 78.4639 136.315L80.5962 141.536L80.6392 141.536L82.7662 136.315C82.9703 135.805 83.2496 135.595 83.733 135.595C84.2862 135.595 84.6138 135.923 84.6138 136.476L84.6138 142.878C84.6138 143.287 84.3829 143.528 83.9908 143.528C83.5987 143.528 83.3677 143.287 83.3677 142.878L83.3677 137.937L83.3301 137.937L81.273 142.921C81.1387 143.244 80.94 143.389 80.6177 143.389C80.3008 143.389 80.0914 143.244 79.9625 142.927L77.9053 137.937L77.8677 137.937L77.8677 142.878C77.8677 143.287 77.6314 143.528 77.2393 143.528ZM90.6881 143.55C89.485 143.55 88.6417 143.088 88.3678 142.406C88.3302 142.309 88.3141 142.223 88.3141 142.143C88.3141 141.82 88.5504 141.616 88.8727 141.616C89.0929 141.616 89.2809 141.718 89.4528 141.944C89.7535 142.379 90.0973 142.572 90.7364 142.572C91.3595 142.572 91.7731 142.309 91.7731 141.879C91.7731 141.536 91.5582 141.348 90.9728 141.213L90.0489 141.004C88.9371 140.751 88.3893 140.204 88.3893 139.376C88.3893 138.318 89.3024 137.625 90.7096 137.625C91.8053 137.625 92.6539 138.163 92.8312 138.818C92.8473 138.888 92.858 138.952 92.858 139.017C92.858 139.296 92.6808 139.495 92.3424 139.495C92.149 139.495 91.9557 139.425 91.8321 139.248C91.569 138.855 91.2413 138.608 90.6774 138.608C90.0919 138.608 89.6891 138.893 89.6891 139.301C89.6891 139.634 89.9362 139.86 90.527 139.994L91.4347 140.193C92.6378 140.467 93.1158 140.902 93.1158 141.745C93.1158 142.835 92.1383 143.55 90.6881 143.55ZM94.8881 143.544C94.496 143.544 94.2167 143.292 94.2167 142.841L94.2167 136.283C94.2167 135.832 94.496 135.579 94.8881 135.579C95.2802 135.579 95.5541 135.832 95.5541 136.283L95.5541 142.841C95.5541 143.292 95.2802 143.544 94.8881 143.544ZM99.4426 143.55C97.7023 143.55 96.6764 142.459 96.6764 140.612C96.6764 138.796 97.7238 137.625 99.3674 137.625C100.925 137.625 101.988 138.732 101.988 140.279C101.988 140.676 101.763 140.913 101.365 140.913L98.0085 140.913L98.0085 140.956C98.0085 141.906 98.5617 142.519 99.4318 142.519C100.033 142.519 100.425 142.309 100.855 141.761C100.995 141.605 101.118 141.546 101.306 141.546C101.607 141.546 101.843 141.74 101.843 142.062C101.843 142.164 101.811 142.282 101.752 142.4C101.376 143.125 100.528 143.55 99.4426 143.55ZM98.0192 140.032L100.678 140.032C100.651 139.205 100.125 138.662 99.3727 138.662C98.6208 138.662 98.0729 139.215 98.0192 140.032ZM105.603 143.55C103.863 143.55 102.837 142.459 102.837 140.612C102.837 138.796 103.884 137.625 105.528 137.625C107.085 137.625 108.149 138.732 108.149 140.279C108.149 140.676 107.923 140.913 107.526 140.913L104.169 140.913L104.169 140.956C104.169 141.906 104.722 142.519 105.592 142.519C106.194 142.519 106.586 142.309 107.016 141.761C107.155 141.605 107.279 141.546 107.467 141.546C107.768 141.546 108.004 141.74 108.004 142.062C108.004 142.164 107.972 142.282 107.913 142.4C107.537 143.125 106.688 143.55 105.603 143.55ZM104.18 140.032L106.838 140.032C106.811 139.205 106.285 138.662 105.533 138.662C104.781 138.662 104.233 139.215 104.18 140.032ZM109.9 145.462C109.508 145.462 109.234 145.209 109.234 144.758L109.234 138.318C109.234 137.878 109.502 137.631 109.884 137.631C110.265 137.631 110.539 137.878 110.539 138.318L110.539 138.727L110.566 138.727C110.888 138.066 111.532 137.647 112.36 137.647C113.804 137.647 114.723 138.77 114.723 140.59C114.723 142.406 113.81 143.528 112.381 143.528C111.554 143.528 110.909 143.131 110.598 142.492L110.571 142.492L110.571 144.758C110.571 145.209 110.292 145.462 109.9 145.462ZM111.951 142.433C112.816 142.433 113.353 141.718 113.353 140.59C113.353 139.468 112.816 138.748 111.951 138.748C111.119 138.748 110.566 139.484 110.56 140.59C110.566 141.708 111.119 142.433 111.951 142.433Z" fill="#222326"/>
<path d="M169.789 143.437C169.359 143.437 169.096 143.168 169.096 142.717L169.096 136.406C169.096 135.955 169.359 135.687 169.789 135.687L173.565 135.687C173.946 135.687 174.198 135.912 174.198 136.272C174.198 136.632 173.946 136.857 173.565 136.857L170.482 136.857L170.482 138.952L173.404 138.952C173.758 138.952 174 139.162 174 139.5C174 139.838 173.763 140.053 173.404 140.053L170.482 140.053L170.482 142.266L173.565 142.266C173.946 142.266 174.198 142.492 174.198 142.852C174.198 143.211 173.946 143.437 173.565 143.437L169.789 143.437ZM175.836 143.544C175.477 143.544 175.219 143.313 175.219 142.991C175.219 142.835 175.273 142.712 175.385 142.551L176.83 140.596L175.407 138.63C175.31 138.501 175.262 138.367 175.262 138.211C175.262 137.883 175.541 137.631 175.906 137.631C176.169 137.631 176.304 137.722 176.476 137.991L177.663 139.742L177.689 139.742L178.85 138.001C179.022 137.738 179.167 137.631 179.403 137.631C179.779 137.631 180.042 137.867 180.042 138.2C180.042 138.356 179.994 138.49 179.876 138.646L178.458 140.558L179.881 142.545C179.978 142.685 180.026 142.814 180.026 142.954C180.026 143.308 179.747 143.544 179.387 143.544C179.14 143.544 178.995 143.442 178.855 143.228L177.625 141.396L177.598 141.396L176.374 143.206C176.207 143.464 176.062 143.544 175.836 143.544ZM183.56 143.55C181.895 143.55 180.821 142.422 180.821 140.596C180.821 138.78 181.889 137.625 183.549 137.625C184.666 137.625 185.617 138.2 185.891 139C185.934 139.113 185.961 139.226 185.961 139.323C185.961 139.656 185.708 139.86 185.386 139.86C185.118 139.86 184.956 139.747 184.801 139.479C184.516 138.958 184.14 138.71 183.587 138.71C182.727 138.71 182.18 139.425 182.18 140.59C182.18 141.772 182.733 142.47 183.581 142.47C184.172 142.47 184.537 142.196 184.795 141.74C184.978 141.439 185.123 141.326 185.413 141.326C185.73 141.326 185.977 141.541 185.977 141.874C185.977 141.976 185.95 142.089 185.896 142.218C185.579 142.997 184.634 143.55 183.56 143.55ZM189.629 143.55C187.889 143.55 186.863 142.459 186.863 140.612C186.863 138.796 187.91 137.625 189.554 137.625C191.111 137.625 192.175 138.732 192.175 140.279C192.175 140.676 191.949 140.913 191.552 140.913L188.195 140.913L188.195 140.956C188.195 141.906 188.748 142.519 189.618 142.519C190.22 142.519 190.612 142.309 191.042 141.761C191.181 141.605 191.305 141.546 191.493 141.546C191.794 141.546 192.03 141.74 192.03 142.062C192.03 142.164 191.998 142.282 191.939 142.4C191.563 143.125 190.714 143.55 189.629 143.55ZM188.206 140.032L190.864 140.032C190.838 139.205 190.311 138.662 189.559 138.662C188.807 138.662 188.259 139.215 188.206 140.032ZM193.969 143.544C193.577 143.544 193.297 143.292 193.297 142.841L193.297 136.283C193.297 135.832 193.577 135.579 193.969 135.579C194.361 135.579 194.635 135.832 194.635 136.283L194.635 142.841C194.635 143.292 194.361 143.544 193.969 143.544ZM196.702 143.544C196.31 143.544 196.031 143.292 196.031 142.841L196.031 136.283C196.031 135.832 196.31 135.579 196.702 135.579C197.094 135.579 197.368 135.832 197.368 136.283L197.368 142.841C197.368 143.292 197.094 143.544 196.702 143.544ZM201.257 143.55C199.517 143.55 198.491 142.459 198.491 140.612C198.491 138.796 199.538 137.625 201.182 137.625C202.739 137.625 203.803 138.732 203.803 140.279C203.803 140.676 203.577 140.913 203.18 140.913L199.823 140.913L199.823 140.956C199.823 141.906 200.376 142.519 201.246 142.519C201.848 142.519 202.24 142.309 202.669 141.761C202.809 141.605 202.933 141.546 203.121 141.546C203.421 141.546 203.658 141.74 203.658 142.062C203.658 142.164 203.625 142.282 203.566 142.4C203.19 143.125 202.342 143.55 201.257 143.55ZM199.833 140.032L202.492 140.032C202.465 139.205 201.939 138.662 201.187 138.662C200.435 138.662 199.887 139.215 199.833 140.032ZM205.553 143.544C205.161 143.544 204.887 143.292 204.887 142.841L204.887 138.308C204.887 137.894 205.129 137.631 205.527 137.631C205.919 137.631 206.187 137.894 206.187 138.308L206.187 138.705L206.214 138.705C206.52 138.028 207.111 137.636 207.987 137.636C209.243 137.636 209.958 138.442 209.958 139.758L209.958 142.841C209.958 143.292 209.684 143.544 209.292 143.544C208.9 143.544 208.62 143.292 208.62 142.841L208.62 140.026C208.62 139.221 208.244 138.77 207.482 138.77C206.714 138.77 206.225 139.323 206.225 140.139L206.225 142.841C206.225 143.292 205.946 143.544 205.553 143.544ZM211.623 142.03L211.623 138.775L211.263 138.775C210.93 138.775 210.726 138.576 210.726 138.254C210.726 137.937 210.93 137.744 211.263 137.744L211.623 137.744L211.623 136.986C211.623 136.557 211.88 136.288 212.294 136.288C212.702 136.288 212.96 136.557 212.96 136.986L212.96 137.744L213.578 137.744C213.911 137.744 214.115 137.937 214.115 138.254C214.115 138.576 213.911 138.775 213.578 138.775L212.96 138.775L212.96 141.74C212.96 142.169 213.11 142.357 213.497 142.39L213.594 142.4C213.948 142.433 214.131 142.583 214.131 142.895C214.131 143.287 213.787 143.496 213.175 143.496L213.121 143.496C212.127 143.496 211.623 143.002 211.623 142.03Z" fill="#5A9CFF"/>
<rect x="214.399" y="158.437" width="165" height="5" rx="2.5" transform="rotate(-180 214.399 158.437)" fill="#222326" fill-opacity="0.1"/>
<rect x="49.3994" y="152.937" width="154" height="6" rx="3" fill="url(#paint4_linear_43889_10593)"/>
</g>
<g filter="url(#filter3_d_43889_10593)">
<rect x="39.3994" y="172.437" width="185" height="42" rx="12" fill="white"/>
<path d="M54.4443 181.125L54.4443 181.142C54.5498 181.142 54.6729 181.142 54.7783 181.142C54.9014 181.16 55.0068 181.248 55.0244 181.371C55.0596 181.494 55.0068 181.617 54.9014 181.669C53.9521 182.197 53.3193 183.216 53.3193 184.359C53.3193 186.082 54.708 187.453 56.4131 187.453C56.5889 187.453 56.7646 187.453 56.9404 187.417C57.0635 187.4 57.1865 187.453 57.2393 187.558C57.292 187.681 57.2744 187.804 57.1865 187.892C56.4834 188.578 55.5166 189 54.4443 189C52.2822 189 50.5244 187.242 50.5244 185.062C50.5244 182.9 52.2822 181.125 54.4443 181.125Z" fill="#8B8C8F"/>
<path d="M63.7744 188.437C63.3447 188.437 63.0815 188.168 63.0815 187.717L63.0815 181.406C63.0815 180.955 63.3447 180.687 63.7744 180.687L65.9121 180.687C68.2271 180.687 69.5967 182.088 69.5967 184.543C69.5967 186.998 68.2324 188.437 65.9121 188.437L63.7744 188.437ZM64.4673 187.266L65.7671 187.266C67.3247 187.266 68.1841 186.315 68.1841 184.548C68.1841 182.813 67.314 181.857 65.7671 181.857L64.4673 181.857L64.4673 187.266ZM73.3133 188.55C71.573 188.55 70.5471 187.459 70.5471 185.612C70.5471 183.796 71.5945 182.625 73.2381 182.625C74.7957 182.625 75.8592 183.732 75.8592 185.279C75.8592 185.676 75.6336 185.913 75.2361 185.913L71.8792 185.913L71.8792 185.956C71.8792 186.906 72.4324 187.519 73.3025 187.519C73.9041 187.519 74.2962 187.309 74.7259 186.761C74.8655 186.605 74.989 186.546 75.177 186.546C75.4778 186.546 75.7141 186.74 75.7141 187.062C75.7141 187.164 75.6819 187.282 75.6228 187.4C75.2469 188.125 74.3982 188.55 73.3133 188.55ZM71.8899 185.032L74.5486 185.032C74.5218 184.205 73.9954 183.662 73.2434 183.662C72.4915 183.662 71.9436 184.215 71.8899 185.032ZM79.4737 188.55C77.7335 188.55 76.7076 187.459 76.7076 185.612C76.7076 183.796 77.7549 182.625 79.3985 182.625C80.9561 182.625 82.0196 183.732 82.0196 185.279C82.0196 185.676 81.794 185.913 81.3965 185.913L78.0396 185.913L78.0396 185.956C78.0396 186.906 78.5928 187.519 79.4629 187.519C80.0645 187.519 80.4566 187.309 80.8863 186.761C81.0259 186.605 81.1495 186.546 81.3375 186.546C81.6382 186.546 81.8746 186.74 81.8746 187.062C81.8746 187.164 81.8423 187.282 81.7833 187.4C81.4073 188.125 80.5587 188.55 79.4737 188.55ZM78.0504 185.032L80.709 185.032C80.6822 184.205 80.1558 183.662 79.4039 183.662C78.6519 183.662 78.1041 184.215 78.0504 185.032ZM83.7704 190.462C83.3783 190.462 83.1043 190.209 83.1043 189.758L83.1043 183.318C83.1043 182.878 83.3729 182.631 83.7542 182.631C84.1356 182.631 84.4095 182.878 84.4095 183.318L84.4095 183.727L84.4364 183.727C84.7586 183.066 85.4032 182.647 86.2303 182.647C87.6751 182.647 88.5936 183.77 88.5936 185.59C88.5936 187.406 87.6805 188.528 86.2518 188.528C85.4246 188.528 84.7801 188.131 84.4686 187.492L84.4417 187.492L84.4417 189.758C84.4417 190.209 84.1624 190.462 83.7704 190.462ZM85.8221 187.433C86.6869 187.433 87.224 186.718 87.224 185.59C87.224 184.468 86.6869 183.748 85.8221 183.748C84.9896 183.748 84.4364 184.484 84.431 185.59C84.4364 186.708 84.9896 187.433 85.8221 187.433ZM94.2919 188.55C93.0888 188.55 92.2455 188.088 91.9716 187.406C91.934 187.309 91.9179 187.223 91.9179 187.143C91.9179 186.82 92.1542 186.616 92.4765 186.616C92.6967 186.616 92.8847 186.718 93.0565 186.944C93.3573 187.379 93.7011 187.572 94.3402 187.572C94.9633 187.572 95.3769 187.309 95.3769 186.879C95.3769 186.536 95.162 186.348 94.5766 186.213L93.6527 186.004C92.5409 185.751 91.9931 185.204 91.9931 184.376C91.9931 183.318 92.9062 182.625 94.3134 182.625C95.4091 182.625 96.2577 183.163 96.435 183.818C96.4511 183.888 96.4618 183.952 96.4618 184.017C96.4618 184.296 96.2846 184.495 95.9462 184.495C95.7528 184.495 95.5595 184.425 95.4359 184.248C95.1728 183.855 94.8451 183.608 94.2812 183.608C93.6957 183.608 93.2929 183.893 93.2929 184.301C93.2929 184.634 93.5399 184.86 94.1308 184.994L95.0385 185.193C96.2416 185.467 96.7196 185.902 96.7196 186.745C96.7196 187.835 95.7421 188.55 94.2919 188.55ZM98.4919 188.544C98.0998 188.544 97.8205 188.292 97.8205 187.841L97.8205 181.283C97.8205 180.832 98.0998 180.579 98.4919 180.579C98.884 180.579 99.1579 180.832 99.1579 181.283L99.1579 187.841C99.1579 188.292 98.884 188.544 98.4919 188.544ZM103.046 188.55C101.306 188.55 100.28 187.459 100.28 185.612C100.28 183.796 101.328 182.625 102.971 182.625C104.529 182.625 105.592 183.732 105.592 185.279C105.592 185.676 105.367 185.913 104.969 185.913L101.612 185.913L101.612 185.956C101.612 186.906 102.165 187.519 103.036 187.519C103.637 187.519 104.029 187.309 104.459 186.761C104.599 186.605 104.722 186.546 104.91 186.546C105.211 186.546 105.447 186.74 105.447 187.062C105.447 187.164 105.415 187.282 105.356 187.4C104.98 188.125 104.131 188.55 103.046 188.55ZM101.623 185.032L104.282 185.032C104.255 184.205 103.728 183.662 102.977 183.662C102.225 183.662 101.677 184.215 101.623 185.032ZM109.207 188.55C107.467 188.55 106.441 187.459 106.441 185.612C106.441 183.796 107.488 182.625 109.132 182.625C110.689 182.625 111.753 183.732 111.753 185.279C111.753 185.676 111.527 185.913 111.13 185.913L107.773 185.913L107.773 185.956C107.773 186.906 108.326 187.519 109.196 187.519C109.798 187.519 110.19 187.309 110.619 186.761C110.759 186.605 110.883 186.546 111.071 186.546C111.371 186.546 111.608 186.74 111.608 187.062C111.608 187.164 111.575 187.282 111.516 187.4C111.14 188.125 110.292 188.55 109.207 188.55ZM107.783 185.032L110.442 185.032C110.415 184.205 109.889 183.662 109.137 183.662C108.385 183.662 107.837 184.215 107.783 185.032ZM113.503 190.462C113.111 190.462 112.837 190.209 112.837 189.758L112.837 183.318C112.837 182.878 113.106 182.631 113.487 182.631C113.869 182.631 114.143 182.878 114.143 183.318L114.143 183.727L114.169 183.727C114.492 183.066 115.136 182.647 115.963 182.647C117.408 182.647 118.327 183.77 118.327 185.59C118.327 187.406 117.414 188.528 115.985 188.528C115.158 188.528 114.513 188.131 114.202 187.492L114.175 187.492L114.175 189.758C114.175 190.209 113.896 190.462 113.503 190.462ZM115.555 187.433C116.42 187.433 116.957 186.718 116.957 185.59C116.957 184.468 116.42 183.748 115.555 183.748C114.723 183.748 114.169 184.484 114.164 185.59C114.169 186.708 114.723 187.433 115.555 187.433Z" fill="#222326"/>
<path d="M169.789 188.437C169.359 188.437 169.096 188.168 169.096 187.717L169.096 181.406C169.096 180.955 169.359 180.687 169.789 180.687L173.565 180.687C173.946 180.687 174.198 180.912 174.198 181.272C174.198 181.632 173.946 181.857 173.565 181.857L170.482 181.857L170.482 183.952L173.404 183.952C173.758 183.952 174 184.162 174 184.5C174 184.838 173.763 185.053 173.404 185.053L170.482 185.053L170.482 187.266L173.565 187.266C173.946 187.266 174.198 187.492 174.198 187.852C174.198 188.211 173.946 188.437 173.565 188.437L169.789 188.437ZM175.836 188.544C175.477 188.544 175.219 188.313 175.219 187.991C175.219 187.835 175.273 187.712 175.385 187.551L176.83 185.596L175.407 183.63C175.31 183.501 175.262 183.367 175.262 183.211C175.262 182.883 175.541 182.631 175.906 182.631C176.169 182.631 176.304 182.722 176.476 182.991L177.663 184.742L177.689 184.742L178.85 183.001C179.022 182.738 179.167 182.631 179.403 182.631C179.779 182.631 180.042 182.867 180.042 183.2C180.042 183.356 179.994 183.49 179.876 183.646L178.458 185.558L179.881 187.545C179.978 187.685 180.026 187.814 180.026 187.954C180.026 188.308 179.747 188.544 179.387 188.544C179.14 188.544 178.995 188.442 178.855 188.228L177.625 186.396L177.598 186.396L176.374 188.206C176.207 188.464 176.062 188.544 175.836 188.544ZM183.56 188.55C181.895 188.55 180.821 187.422 180.821 185.596C180.821 183.78 181.889 182.625 183.549 182.625C184.666 182.625 185.617 183.2 185.891 184C185.934 184.113 185.961 184.226 185.961 184.323C185.961 184.656 185.708 184.86 185.386 184.86C185.118 184.86 184.956 184.747 184.801 184.479C184.516 183.958 184.14 183.71 183.587 183.71C182.727 183.71 182.18 184.425 182.18 185.59C182.18 186.772 182.733 187.47 183.581 187.47C184.172 187.47 184.537 187.196 184.795 186.74C184.978 186.439 185.123 186.326 185.413 186.326C185.73 186.326 185.977 186.541 185.977 186.874C185.977 186.976 185.95 187.089 185.896 187.218C185.579 187.997 184.634 188.55 183.56 188.55ZM189.629 188.55C187.889 188.55 186.863 187.459 186.863 185.612C186.863 183.796 187.91 182.625 189.554 182.625C191.111 182.625 192.175 183.732 192.175 185.279C192.175 185.676 191.949 185.913 191.552 185.913L188.195 185.913L188.195 185.956C188.195 186.906 188.748 187.519 189.618 187.519C190.22 187.519 190.612 187.309 191.042 186.761C191.181 186.605 191.305 186.546 191.493 186.546C191.794 186.546 192.03 186.74 192.03 187.062C192.03 187.164 191.998 187.282 191.939 187.4C191.563 188.125 190.714 188.55 189.629 188.55ZM188.206 185.032L190.864 185.032C190.838 184.205 190.311 183.662 189.559 183.662C188.807 183.662 188.259 184.215 188.206 185.032ZM193.969 188.544C193.577 188.544 193.297 188.292 193.297 187.841L193.297 181.283C193.297 180.832 193.577 180.579 193.969 180.579C194.361 180.579 194.635 180.832 194.635 181.283L194.635 187.841C194.635 188.292 194.361 188.544 193.969 188.544ZM196.702 188.544C196.31 188.544 196.031 188.292 196.031 187.841L196.031 181.283C196.031 180.832 196.31 180.579 196.702 180.579C197.094 180.579 197.368 180.832 197.368 181.283L197.368 187.841C197.368 188.292 197.094 188.544 196.702 188.544ZM201.257 188.55C199.517 188.55 198.491 187.459 198.491 185.612C198.491 183.796 199.538 182.625 201.182 182.625C202.739 182.625 203.803 183.732 203.803 185.279C203.803 185.676 203.577 185.913 203.18 185.913L199.823 185.913L199.823 185.956C199.823 186.906 200.376 187.519 201.246 187.519C201.848 187.519 202.24 187.309 202.669 186.761C202.809 186.605 202.933 186.546 203.121 186.546C203.421 186.546 203.658 186.74 203.658 187.062C203.658 187.164 203.625 187.282 203.566 187.4C203.19 188.125 202.342 188.55 201.257 188.55ZM199.833 185.032L202.492 185.032C202.465 184.205 201.939 183.662 201.187 183.662C200.435 183.662 199.887 184.215 199.833 185.032ZM205.553 188.544C205.161 188.544 204.887 188.292 204.887 187.841L204.887 183.308C204.887 182.894 205.129 182.631 205.527 182.631C205.919 182.631 206.187 182.894 206.187 183.308L206.187 183.705L206.214 183.705C206.52 183.028 207.111 182.636 207.987 182.636C209.243 182.636 209.958 183.442 209.958 184.758L209.958 187.841C209.958 188.292 209.684 188.544 209.292 188.544C208.9 188.544 208.62 188.292 208.62 187.841L208.62 185.026C208.62 184.221 208.244 183.77 207.482 183.77C206.714 183.77 206.225 184.323 206.225 185.139L206.225 187.841C206.225 188.292 205.946 188.544 205.553 188.544ZM211.623 187.03L211.623 183.775L211.263 183.775C210.93 183.775 210.726 183.576 210.726 183.254C210.726 182.937 210.93 182.744 211.263 182.744L211.623 182.744L211.623 181.986C211.623 181.557 211.88 181.288 212.294 181.288C212.702 181.288 212.96 181.557 212.96 181.986L212.96 182.744L213.578 182.744C213.911 182.744 214.115 182.937 214.115 183.254C214.115 183.576 213.911 183.775 213.578 183.775L212.96 183.775L212.96 186.74C212.96 187.169 213.11 187.357 213.497 187.39L213.594 187.4C213.948 187.433 214.131 187.583 214.131 187.895C214.131 188.287 213.787 188.496 213.175 188.496L213.121 188.496C212.127 188.496 211.623 188.002 211.623 187.03Z" fill="#5A9CFF"/>
<rect x="214.399" y="204.437" width="165" height="6" rx="3" transform="rotate(-180 214.399 204.437)" fill="#222326" fill-opacity="0.1"/>
<rect x="49.3994" y="198.937" width="154" height="5" rx="2.5" fill="url(#paint5_linear_43889_10593)"/>
</g>
<g filter="url(#filter4_d_43889_10593)">
<rect x="39.3994" y="218.437" width="185" height="41" rx="12" fill="white"/>
<path d="M49.6631 231.853C49.1357 231.361 48.8369 230.658 48.8369 229.919L48.8369 229.832C48.8369 228.601 49.7158 227.546 50.9287 227.353C51.7373 227.212 52.5459 227.476 53.126 228.039L53.3369 228.25L53.5479 228.039C54.1104 227.476 54.9365 227.212 55.7275 227.353C56.9404 227.546 57.8369 228.601 57.8369 229.832L57.8369 229.919C57.8369 230.042 57.8193 230.148 57.8018 230.271C57.3975 230.06 56.9229 229.937 56.4307 229.937C54.708 229.937 53.3369 231.326 53.3369 233.031C53.3369 233.681 53.5303 234.279 53.8643 234.771L53.8115 234.824C53.6885 234.947 53.5127 235 53.3369 235C53.1436 235 52.9678 234.947 52.8447 234.824L49.6631 231.853ZM58.9619 233.031C58.9619 233.945 58.4697 234.771 57.6963 235.228C56.9053 235.685 55.9385 235.685 55.165 235.228C54.374 234.771 53.8994 233.945 53.8994 233.031C53.8994 232.134 54.374 231.308 55.165 230.851C55.9385 230.394 56.9053 230.394 57.6963 230.851C58.4697 231.308 58.9619 232.134 58.9619 233.031ZM57.8369 233.031C57.8369 232.89 57.6963 232.75 57.5557 232.75L55.3057 232.75C55.1475 232.75 55.0244 232.89 55.0244 233.031C55.0244 233.189 55.1475 233.312 55.3057 233.312L57.5557 233.312C57.6963 233.312 57.8369 233.189 57.8369 233.031Z" fill="#8B8C8F"/>
<path d="M63.7744 234.528C63.3447 234.528 63.0815 234.265 63.0815 233.809L63.0815 227.315C63.0815 226.858 63.3447 226.595 63.7744 226.595C64.2095 226.595 64.4673 226.858 64.4673 227.315L64.4673 229.909L68.2378 229.909L68.2378 227.315C68.2378 226.858 68.4956 226.595 68.9253 226.595C69.3604 226.595 69.6182 226.858 69.6182 227.315L69.6182 233.809C69.6182 234.265 69.3604 234.528 68.9253 234.528C68.4956 234.528 68.2378 234.265 68.2378 233.809L68.2378 231.075L64.4673 231.075L64.4673 233.809C64.4673 234.265 64.2095 234.528 63.7744 234.528ZM73.6033 234.55C71.8631 234.55 70.8372 233.459 70.8372 231.612C70.8372 229.796 71.8846 228.625 73.5281 228.625C75.0857 228.625 76.1492 229.732 76.1492 231.279C76.1492 231.676 75.9236 231.913 75.5262 231.913L72.1692 231.913L72.1692 231.956C72.1692 232.906 72.7224 233.519 73.5926 233.519C74.1941 233.519 74.5862 233.309 75.0159 232.761C75.1555 232.605 75.2791 232.546 75.4671 232.546C75.7679 232.546 76.0042 232.74 76.0042 233.062C76.0042 233.164 75.972 233.282 75.9129 233.4C75.5369 234.125 74.6883 234.55 73.6033 234.55ZM72.18 231.032L74.8387 231.032C74.8118 230.205 74.2854 229.662 73.5335 229.662C72.7815 229.662 72.2337 230.215 72.18 231.032ZM78.9044 234.528C77.8033 234.528 77.003 233.835 77.003 232.81C77.003 231.8 77.7818 231.193 79.1675 231.107L80.6768 231.021L80.6768 230.613C80.6768 230.017 80.274 229.673 79.6133 229.673C79.0923 229.673 78.754 229.85 78.421 230.339C78.2813 230.521 78.1041 230.607 77.8785 230.607C77.5508 230.607 77.3145 230.393 77.3145 230.07C77.3145 229.947 77.3467 229.829 77.4058 229.705C77.6959 229.044 78.5767 228.625 79.6671 228.625C81.0796 228.625 81.9981 229.372 81.9981 230.516L81.9981 233.873C81.9981 234.303 81.7242 234.544 81.3482 234.544C80.983 234.544 80.7305 234.324 80.709 233.927L80.709 233.529L80.6822 233.529C80.3546 234.147 79.6402 234.528 78.9044 234.528ZM79.3126 233.519C80.0645 233.519 80.6768 233.014 80.6768 232.326L80.6768 231.891L79.3555 231.972C78.711 232.015 78.3404 232.305 78.3404 232.756C78.3404 233.223 78.7325 233.519 79.3126 233.519ZM83.9637 234.544C83.5609 234.544 83.2977 234.281 83.2977 233.841L83.2977 229.308C83.2977 228.889 83.5555 228.631 83.9369 228.631C84.3075 228.631 84.5706 228.889 84.5706 229.308L84.5706 229.743L84.5975 229.743C84.7533 229.077 85.2474 228.647 85.8167 228.647C86.0262 228.647 86.1873 228.701 86.2894 228.792C86.4129 228.894 86.4774 229.055 86.4774 229.275C86.4774 229.485 86.4129 229.641 86.2787 229.748C86.1497 229.861 85.951 229.92 85.6878 229.925C84.9251 229.931 84.6351 230.409 84.6351 231.102L84.6351 233.841C84.6351 234.281 84.3665 234.544 83.9637 234.544ZM87.6695 233.03L87.6695 229.775L87.3097 229.775C86.9767 229.775 86.7726 229.576 86.7726 229.254C86.7726 228.937 86.9767 228.744 87.3097 228.744L87.6695 228.744L87.6695 227.986C87.6695 227.557 87.9274 227.288 88.3409 227.288C88.7491 227.288 89.007 227.557 89.007 227.986L89.007 228.744L89.6246 228.744C89.9576 228.744 90.1617 228.937 90.1617 229.254C90.1617 229.576 89.9576 229.775 89.6246 229.775L89.007 229.775L89.007 232.74C89.007 233.169 89.1573 233.357 89.5441 233.39L89.6407 233.4C89.9952 233.433 90.1779 233.583 90.1779 233.895C90.1779 234.287 89.8341 234.496 89.2218 234.496L89.1681 234.496C88.1744 234.496 87.6695 234.002 87.6695 233.03ZM94.3024 234.544C93.8996 234.544 93.6364 234.281 93.6364 233.841L93.6364 229.308C93.6364 228.889 93.8942 228.631 94.2756 228.631C94.6462 228.631 94.9094 228.889 94.9094 229.308L94.9094 229.743L94.9362 229.743C95.092 229.077 95.5861 228.647 96.1554 228.647C96.3649 228.647 96.5261 228.701 96.6281 228.792C96.7516 228.894 96.8161 229.055 96.8161 229.275C96.8161 229.485 96.7516 229.641 96.6174 229.748C96.4885 229.861 96.2897 229.92 96.0265 229.925C95.2638 229.931 94.9738 230.409 94.9738 231.102L94.9738 233.841C94.9738 234.281 94.7053 234.544 94.3024 234.544ZM99.1792 234.528C98.0781 234.528 97.2778 233.835 97.2778 232.81C97.2778 231.8 98.0566 231.193 99.4423 231.107L100.952 231.021L100.952 230.613C100.952 230.017 100.549 229.673 99.8881 229.673C99.3671 229.673 99.0288 229.85 98.6958 230.339C98.5561 230.521 98.3789 230.607 98.1533 230.607C97.8256 230.607 97.5893 230.393 97.5893 230.07C97.5893 229.947 97.6215 229.829 97.6806 229.705C97.9707 229.044 98.8515 228.625 99.9419 228.625C101.354 228.625 102.273 229.372 102.273 230.516L102.273 233.873C102.273 234.303 101.999 234.544 101.623 234.544C101.258 234.544 101.005 234.324 100.984 233.927L100.984 233.529L100.957 233.529C100.629 234.147 99.915 234.528 99.1792 234.528ZM99.5874 233.519C100.339 233.519 100.952 233.014 100.952 232.326L100.952 231.891L99.6303 231.972C98.9858 232.015 98.6152 232.305 98.6152 232.756C98.6152 233.223 99.0073 233.519 99.5874 233.519ZM103.943 233.03L103.943 229.775L103.583 229.775C103.25 229.775 103.046 229.576 103.046 229.254C103.046 228.937 103.25 228.744 103.583 228.744L103.943 228.744L103.943 227.986C103.943 227.557 104.201 227.288 104.614 227.288C105.023 227.288 105.281 227.557 105.281 227.986L105.281 228.744L105.898 228.744C106.231 228.744 106.435 228.937 106.435 229.254C106.435 229.576 106.231 229.775 105.898 229.775L105.281 229.775L105.281 232.74C105.281 233.169 105.431 233.357 105.818 233.39L105.914 233.4C106.269 233.433 106.451 233.583 106.451 233.895C106.451 234.287 106.108 234.496 105.495 234.496L105.442 234.496C104.448 234.496 103.943 234.002 103.943 233.03ZM109.91 234.55C108.17 234.55 107.144 233.459 107.144 231.612C107.144 229.796 108.191 228.625 109.835 228.625C111.393 228.625 112.456 229.732 112.456 231.279C112.456 231.676 112.23 231.913 111.833 231.913L108.476 231.913L108.476 231.956C108.476 232.906 109.029 233.519 109.899 233.519C110.501 233.519 110.893 233.309 111.323 232.761C111.462 232.605 111.586 232.546 111.774 232.546C112.075 232.546 112.311 232.74 112.311 233.062C112.311 233.164 112.279 233.282 112.22 233.4C111.844 234.125 110.995 234.55 109.91 234.55ZM108.487 231.032L111.146 231.032C111.119 230.205 110.592 229.662 109.84 229.662C109.088 229.662 108.541 230.215 108.487 231.032ZM118.09 234.528C116.656 234.528 115.727 233.395 115.727 231.585C115.727 229.786 116.656 228.647 118.09 228.647C118.906 228.647 119.551 229.071 119.852 229.7L119.884 229.7L119.884 227.283C119.884 226.832 120.158 226.579 120.55 226.579C120.942 226.579 121.221 226.832 121.221 227.283L121.221 233.873C121.221 234.303 120.947 234.544 120.561 234.544C120.174 234.544 119.884 234.308 119.884 233.873L119.884 233.427L119.857 233.427C119.583 234.083 118.971 234.528 118.09 234.528ZM118.493 233.433C119.336 233.433 119.889 232.718 119.889 231.59C119.889 230.473 119.336 229.748 118.493 229.748C117.633 229.748 117.096 230.462 117.096 231.59C117.096 232.724 117.628 233.433 118.493 233.433ZM123.262 227.943C122.848 227.943 122.521 227.621 122.521 227.218C122.521 226.81 122.848 226.493 123.262 226.493C123.681 226.493 124.009 226.81 124.009 227.218C124.009 227.621 123.681 227.943 123.262 227.943ZM123.262 234.544C122.854 234.544 122.596 234.276 122.596 233.841L122.596 229.334C122.596 228.905 122.854 228.631 123.262 228.631C123.67 228.631 123.933 228.905 123.933 229.34L123.933 233.841C123.933 234.276 123.67 234.544 123.262 234.544ZM125.942 236.462C125.55 236.462 125.276 236.209 125.276 235.758L125.276 229.318C125.276 228.878 125.545 228.631 125.926 228.631C126.307 228.631 126.581 228.878 126.581 229.318L126.581 229.727L126.608 229.727C126.93 229.066 127.575 228.647 128.402 228.647C129.847 228.647 130.765 229.77 130.765 231.59C130.765 233.406 129.852 234.528 128.423 234.528C127.596 234.528 126.952 234.131 126.64 233.492L126.613 233.492L126.613 235.758C126.613 236.209 126.334 236.462 125.942 236.462ZM127.994 233.433C128.859 233.433 129.396 232.718 129.396 231.59C129.396 230.468 128.859 229.748 127.994 229.748C127.161 229.748 126.608 230.484 126.603 231.59C126.608 232.708 127.161 233.433 127.994 233.433Z" fill="#222326"/>
<path d="M192.642 234.528C192.212 234.528 191.949 234.265 191.949 233.809L191.949 227.406C191.949 226.955 192.212 226.687 192.642 226.687L194.962 226.687C196.504 226.687 197.572 227.734 197.572 229.281C197.572 230.828 196.471 231.875 194.903 231.875L193.335 231.875L193.335 233.809C193.335 234.265 193.077 234.528 192.642 234.528ZM193.335 230.758L194.591 230.758C195.585 230.758 196.165 230.221 196.165 229.281C196.165 228.352 195.59 227.82 194.597 227.82L193.335 227.82L193.335 230.758ZM200.977 234.55C199.307 234.55 198.222 233.438 198.222 231.59C198.222 229.753 199.318 228.625 200.977 228.625C202.637 228.625 203.733 229.748 203.733 231.59C203.733 233.438 202.648 234.55 200.977 234.55ZM200.977 233.492C201.826 233.492 202.374 232.804 202.374 231.59C202.374 230.382 201.826 229.689 200.977 229.689C200.134 229.689 199.581 230.382 199.581 231.59C199.581 232.804 200.129 233.492 200.977 233.492ZM207.331 234.55C205.661 234.55 204.576 233.438 204.576 231.59C204.576 229.753 205.672 228.625 207.331 228.625C208.991 228.625 210.087 229.748 210.087 231.59C210.087 233.438 209.002 234.55 207.331 234.55ZM207.331 233.492C208.18 233.492 208.728 232.804 208.728 231.59C208.728 230.382 208.18 229.689 207.331 229.689C206.488 229.689 205.935 230.382 205.935 231.59C205.935 232.804 206.483 233.492 207.331 233.492ZM211.832 234.544C211.429 234.544 211.166 234.281 211.166 233.841L211.166 229.308C211.166 228.889 211.424 228.631 211.805 228.631C212.176 228.631 212.439 228.889 212.439 229.308L212.439 229.743L212.466 229.743C212.622 229.077 213.116 228.647 213.685 228.647C213.895 228.647 214.056 228.701 214.158 228.792C214.281 228.894 214.346 229.055 214.346 229.275C214.346 229.485 214.281 229.641 214.147 229.748C214.018 229.861 213.819 229.92 213.556 229.925C212.793 229.931 212.503 230.409 212.503 231.102L212.503 233.841C212.503 234.281 212.235 234.544 211.832 234.544Z" fill="#FF8947"/>
<path d="M214.399 246.937C214.399 248.318 213.28 249.437 211.899 249.437L51.8994 249.437C50.5187 249.437 49.3994 248.318 49.3994 246.937V246.937C49.3994 245.556 50.5187 244.437 51.8994 244.437L211.899 244.437C213.28 244.437 214.399 245.556 214.399 246.937V246.937Z" fill="#222326" fill-opacity="0.1"/>
<rect x="152.399" y="249.937" width="103" height="6" rx="3" transform="rotate(-180 152.399 249.937)" fill="url(#paint6_linear_43889_10593)"/>
</g>
</g>
</g>
<rect x="29.1494" y="16.187" width="205.5" height="236.105" rx="17.25" stroke="url(#paint7_linear_43889_10593)" stroke-width="1.5"/>
</g>
<defs>
<filter id="filter0_dd_43889_10593" x="0.399414" y="0.437012" width="267" height="297.605" filterUnits="userSpaceOnUse" color-interpolation-filters="sRGB">
<feFlood flood-opacity="0" result="BackgroundImageFix"/>
<feColorMatrix in="SourceAlpha" type="matrix" values="0 0 0 0 0 0 0 0 0 0 0 0 0 0 0 0 0 0 127 0" result="hardAlpha"/>
<feOffset dx="2" dy="15"/>
<feGaussianBlur stdDeviation="15"/>
<feComposite in2="hardAlpha" operator="out"/>
<feColorMatrix type="matrix" values="0 0 0 0 0 0 0 0 0 0 0 0 0 0 0 0 0 0 0.1 0"/>
<feBlend mode="normal" in2="BackgroundImageFix" result="effect1_dropShadow_43889_10593"/>
<feColorMatrix in="SourceAlpha" type="matrix" values="0 0 0 0 0 0 0 0 0 0 0 0 0 0 0 0 0 0 127 0" result="hardAlpha"/>
<feOffset dx="2" dy="4"/>
<feGaussianBlur stdDeviation="6"/>
<feComposite in2="hardAlpha" operator="out"/>
<feColorMatrix type="matrix" values="0 0 0 0 0 0 0 0 0 0 0 0 0 0 0 0 0 0 0.01 0"/>
<feBlend mode="normal" in2="effect1_dropShadow_43889_10593" result="effect2_dropShadow_43889_10593"/>
<feBlend mode="normal" in="BackgroundImageFix" in2="effect2_dropShadow_43889_10593" result="BackgroundImageFix"/>
<feBlend mode="normal" in="SourceGraphic" in2="BackgroundImageFix" result="shape"/>
</filter>
<filter id="filter1_d_43889_10593" x="24.3994" y="69.437" width="215" height="71" filterUnits="userSpaceOnUse" color-interpolation-filters="sRGB">
<feFlood flood-opacity="0" result="BackgroundImageFix"/>
<feColorMatrix in="SourceAlpha" type="matrix" values="0 0 0 0 0 0 0 0 0 0 0 0 0 0 0 0 0 0 127 0" result="hardAlpha"/>
<feOffset dy="2"/>
<feGaussianBlur stdDeviation="7.5"/>
<feComposite in2="hardAlpha" operator="out"/>
<feColorMatrix type="matrix" values="0 0 0 0 0.279167 0 0 0 0 0.279167 0 0 0 0 0.279167 0 0 0 0.1 0"/>
<feBlend mode="normal" in2="BackgroundImageFix" result="effect1_dropShadow_43889_10593"/>
<feBlend mode="normal" in="SourceGraphic" in2="effect1_dropShadow_43889_10593" result="shape"/>
</filter>
<filter id="filter2_d_43889_10593" x="24.3994" y="114.437" width="215" height="71" filterUnits="userSpaceOnUse" color-interpolation-filters="sRGB">
<feFlood flood-opacity="0" result="BackgroundImageFix"/>
<feColorMatrix in="SourceAlpha" type="matrix" values="0 0 0 0 0 0 0 0 0 0 0 0 0 0 0 0 0 0 127 0" result="hardAlpha"/>
<feOffset dy="2"/>
<feGaussianBlur stdDeviation="7.5"/>
<feComposite in2="hardAlpha" operator="out"/>
<feColorMatrix type="matrix" values="0 0 0 0 0.279167 0 0 0 0 0.279167 0 0 0 0 0.279167 0 0 0 0.1 0"/>
<feBlend mode="normal" in2="BackgroundImageFix" result="effect1_dropShadow_43889_10593"/>
<feBlend mode="normal" in="SourceGraphic" in2="effect1_dropShadow_43889_10593" result="shape"/>
</filter>
<filter id="filter3_d_43889_10593" x="24.3994" y="159.437" width="215" height="72" filterUnits="userSpaceOnUse" color-interpolation-filters="sRGB">
<feFlood flood-opacity="0" result="BackgroundImageFix"/>
<feColorMatrix in="SourceAlpha" type="matrix" values="0 0 0 0 0 0 0 0 0 0 0 0 0 0 0 0 0 0 127 0" result="hardAlpha"/>
<feOffset dy="2"/>
<feGaussianBlur stdDeviation="7.5"/>
<feComposite in2="hardAlpha" operator="out"/>
<feColorMatrix type="matrix" values="0 0 0 0 0.279167 0 0 0 0 0.279167 0 0 0 0 0.279167 0 0 0 0.1 0"/>
<feBlend mode="normal" in2="BackgroundImageFix" result="effect1_dropShadow_43889_10593"/>
<feBlend mode="normal" in="SourceGraphic" in2="effect1_dropShadow_43889_10593" result="shape"/>
</filter>
<filter id="filter4_d_43889_10593" x="24.3994" y="205.437" width="215" height="71" filterUnits="userSpaceOnUse" color-interpolation-filters="sRGB">
<feFlood flood-opacity="0" result="BackgroundImageFix"/>
<feColorMatrix in="SourceAlpha" type="matrix" values="0 0 0 0 0 0 0 0 0 0 0 0 0 0 0 0 0 0 127 0" result="hardAlpha"/>
<feOffset dy="2"/>
<feGaussianBlur stdDeviation="7.5"/>
<feComposite in2="hardAlpha" operator="out"/>
<feColorMatrix type="matrix" values="0 0 0 0 0.279167 0 0 0 0 0.279167 0 0 0 0 0.279167 0 0 0 0.1 0"/>
<feBlend mode="normal" in2="BackgroundImageFix" result="effect1_dropShadow_43889_10593"/>
<feBlend mode="normal" in="SourceGraphic" in2="effect1_dropShadow_43889_10593" result="shape"/>
</filter>
<radialGradient id="paint0_radial_43889_10593" cx="0" cy="0" r="1" gradientUnits="userSpaceOnUse" gradientTransform="translate(131.899 134.24) rotate(90) scale(118.803 103.5)">
<stop stop-color="#7B9EFD"/>
<stop offset="0.95195" stop-color="#7BBAFD" stop-opacity="0"/>
</radialGradient>
<linearGradient id="paint1_linear_43889_10593" x1="131.9" y1="71.1872" x2="131.762" y2="240.624" gradientUnits="userSpaceOnUse">
<stop offset="0.844166" stop-color="#D9D9D9"/>
<stop offset="1" stop-color="#737373" stop-opacity="0"/>
</linearGradient>
<linearGradient id="paint2_linear_43889_10593" x1="49.3994" y1="110.937" x2="179.53" y2="110.937" gradientUnits="userSpaceOnUse">
<stop stop-color="#808BEE"/>
<stop offset="0.505184" stop-color="#6A92FF"/>
<stop offset="0.760245" stop-color="#7EB2FF"/>
</linearGradient>
<linearGradient id="paint3_linear_43889_10593" x1="-20.581" y1="110.937" x2="175.475" y2="110.937" gradientUnits="userSpaceOnUse">
<stop stop-color="#5DC0BA"/>
<stop offset="0.505184" stop-color="#62C5AD"/>
<stop offset="0.760245" stop-color="#62C58C"/>
</linearGradient>
<linearGradient id="paint4_linear_43889_10593" x1="49.3994" y1="155.937" x2="208.353" y2="155.937" gradientUnits="userSpaceOnUse">
<stop stop-color="#808BEE"/>
<stop offset="0.505184" stop-color="#6A92FF"/>
<stop offset="0.760245" stop-color="#7EB2FF"/>
</linearGradient>
<linearGradient id="paint5_linear_43889_10593" x1="49.3994" y1="201.437" x2="208.353" y2="201.437" gradientUnits="userSpaceOnUse">
<stop stop-color="#808BEE"/>
<stop offset="0.505184" stop-color="#6A92FF"/>
<stop offset="0.760245" stop-color="#7EB2FF"/>
</linearGradient>
<linearGradient id="paint6_linear_43889_10593" x1="152.399" y1="252.937" x2="505.399" y2="252.937" gradientUnits="userSpaceOnUse">
<stop stop-color="#FF8947"/>
<stop offset="0.505184" stop-color="#FFA776"/>
<stop offset="0.760245" stop-color="#FF8947"/>
</linearGradient>
<linearGradient id="paint7_linear_43889_10593" x1="213.675" y1="-14.0964" x2="37.8511" y2="155.595" gradientUnits="userSpaceOnUse">
<stop stop-color="white" stop-opacity="0"/>
<stop offset="1" stop-color="white"/>
</linearGradient>
<clipPath id="clip0_43889_10593">
<rect x="28.3994" y="15.437" width="207" height="237.605" rx="18" fill="white"/>
</clipPath>
</defs>
</svg>
