<svg width="273" height="215" viewBox="0 0 273 215" fill="none" xmlns="http://www.w3.org/2000/svg">
<g filter="url(#filter0_dd_43888_10333)">
<rect x="28.083" y="15.7633" width="212" height="154" rx="18" fill="white"/>
<rect x="28.083" y="15.7633" width="212" height="154" rx="18" fill="url(#paint0_radial_43888_10333)" fill-opacity="0.04"/>
<rect x="28.833" y="16.5133" width="210.5" height="152.5" rx="17.25" stroke="url(#paint1_linear_43888_10333)" stroke-width="1.5"/>
<g clip-path="url(#clip0_43888_10333)">
<path d="M50.8018 38.9821V33.3199C50.8018 33.0914 50.9795 32.8883 51.208 32.8883C54.3311 32.8883 56.8955 35.4528 56.8955 38.5758C56.8955 38.8043 56.6924 38.9821 56.4639 38.9821H50.8018ZM43.8955 39.7946C43.8955 36.7223 46.1807 34.1832 49.1514 33.777C49.3799 33.7262 49.583 33.9293 49.583 34.1578V40.2008L53.5439 44.1871C53.7217 44.3649 53.6963 44.6442 53.5186 44.7711C52.5029 45.4821 51.2842 45.8883 49.9893 45.8883C46.6123 45.8883 43.8955 43.1715 43.8955 39.7946ZM57.251 40.2008C57.4795 40.2008 57.6826 40.4039 57.6318 40.6324C57.4541 42.0543 56.7686 43.3239 55.7529 44.2633C55.6006 44.3903 55.3721 44.3903 55.2197 44.2379L51.208 40.2008H57.251Z" fill="#CACBCE"/>
<path d="M65.8628 44.8878C65.3281 44.8878 65.0132 44.5582 65.0132 44.0016V35.2711C65.0132 34.524 65.4746 34.0699 66.229 34.0699C66.8809 34.0699 67.2544 34.3483 67.5327 35.0514L70.4404 42.1705H70.499L73.3994 35.0514C73.6777 34.3556 74.0586 34.0699 74.7178 34.0699C75.4722 34.0699 75.9189 34.5167 75.9189 35.2711V44.0016C75.9189 44.5582 75.604 44.8878 75.0693 44.8878C74.5347 44.8878 74.2197 44.5582 74.2197 44.0016V37.2633H74.1685L71.3633 44.0602C71.1802 44.4996 70.9092 44.6974 70.4697 44.6974C70.0376 44.6974 69.752 44.4996 69.5762 44.0675L66.771 37.2633H66.7197V44.0016C66.7197 44.5582 66.3975 44.8878 65.8628 44.8878ZM79.9909 44.8878C78.4895 44.8878 77.3981 43.943 77.3981 42.5441C77.3981 41.1671 78.4602 40.3395 80.3498 40.2223L82.4079 40.1051V39.5485C82.4079 38.7355 81.8586 38.2667 80.9577 38.2667C80.2473 38.2667 79.7858 38.5084 79.3317 39.1749C79.1413 39.424 78.8996 39.5411 78.592 39.5411C78.1452 39.5411 77.8229 39.2482 77.8229 38.8087C77.8229 38.6403 77.8669 38.4791 77.9475 38.3107C78.343 37.4098 79.5441 36.8385 81.031 36.8385C82.9572 36.8385 84.2097 37.8566 84.2097 39.4166V43.9943C84.2097 44.5802 83.8361 44.9098 83.3234 44.9098C82.8254 44.9098 82.4812 44.6095 82.4519 44.0675V43.5255H82.4152C81.9685 44.3678 80.9943 44.8878 79.9909 44.8878ZM80.5476 43.5109C81.5729 43.5109 82.4079 42.8224 82.4079 41.8849V41.2916L80.6062 41.4015C79.7272 41.4601 79.2219 41.8556 79.2219 42.4708C79.2219 43.108 79.7565 43.5109 80.5476 43.5109ZM89.3949 44.9171C87.1244 44.9171 85.6596 43.379 85.6596 40.8888C85.6596 38.4132 87.1171 36.8385 89.3803 36.8385C90.9037 36.8385 92.2001 37.6222 92.5736 38.7135C92.6322 38.8673 92.6688 39.0211 92.6688 39.153C92.6688 39.6071 92.3246 39.8854 91.8852 39.8854C91.5189 39.8854 91.2992 39.7316 91.0868 39.3654C90.6986 38.6549 90.1859 38.318 89.4315 38.318C88.2597 38.318 87.5126 39.2921 87.5126 40.8815C87.5126 42.4928 88.267 43.4449 89.4242 43.4449C90.2299 43.4449 90.7279 43.0714 91.0795 42.4489C91.3285 42.0387 91.5263 41.8849 91.9218 41.8849C92.3539 41.8849 92.6908 42.1779 92.6908 42.632C92.6908 42.7711 92.6542 42.9249 92.581 43.1007C92.1488 44.1627 90.8598 44.9171 89.3949 44.9171ZM95.1295 44.9098C94.5802 44.9098 94.2213 44.5509 94.2213 43.9503V37.7687C94.2213 37.1974 94.5729 36.8458 95.0929 36.8458C95.5982 36.8458 95.9571 37.1974 95.9571 37.7687V38.3619H95.9937C96.2062 37.4537 96.88 36.8678 97.6563 36.8678C97.942 36.8678 98.1617 36.941 98.3009 37.0656C98.4693 37.2047 98.5572 37.4244 98.5572 37.7247C98.5572 38.0104 98.4693 38.2228 98.2862 38.3693C98.1104 38.5231 97.8395 38.6036 97.4806 38.611C96.4405 38.6183 96.045 39.2701 96.045 40.215V43.9503C96.045 44.5509 95.6788 44.9098 95.1295 44.9098ZM102.82 44.9171C100.542 44.9171 99.0623 43.401 99.0623 40.8815C99.0623 38.3766 100.556 36.8385 102.82 36.8385C105.083 36.8385 106.577 38.3693 106.577 40.8815C106.577 43.401 105.097 44.9171 102.82 44.9171ZM102.82 43.4742C103.977 43.4742 104.724 42.5367 104.724 40.8815C104.724 39.2335 103.977 38.2887 102.82 38.2887C101.67 38.2887 100.915 39.2335 100.915 40.8815C100.915 42.5367 101.662 43.4742 102.82 43.4742ZM112.48 44.7633C111.894 44.7633 111.535 44.3971 111.535 43.7819V35.1759C111.535 34.5607 111.894 34.1945 112.48 34.1945H115.922C117.841 34.1945 119.079 35.2272 119.079 36.8312C119.079 37.9664 118.237 38.9552 117.153 39.131V39.1896C118.588 39.3287 119.592 40.3615 119.592 41.7604C119.592 43.6207 118.222 44.7633 115.966 44.7633H112.48ZM113.425 38.6476H115.153C116.471 38.6476 117.211 38.0909 117.211 37.1095C117.211 36.1866 116.574 35.6666 115.446 35.6666H113.425V38.6476ZM113.425 43.2911H115.534C116.925 43.2911 117.665 42.7125 117.665 41.6285C117.665 40.5519 116.904 39.9879 115.453 39.9879H113.425V43.2911ZM123.334 44.8878C121.832 44.8878 120.741 43.943 120.741 42.5441C120.741 41.1671 121.803 40.3395 123.693 40.2223L125.751 40.1051V39.5485C125.751 38.7355 125.202 38.2667 124.301 38.2667C123.59 38.2667 123.129 38.5084 122.675 39.1749C122.484 39.424 122.243 39.5411 121.935 39.5411C121.488 39.5411 121.166 39.2482 121.166 38.8087C121.166 38.6403 121.21 38.4791 121.29 38.3107C121.686 37.4098 122.887 36.8385 124.374 36.8385C126.3 36.8385 127.553 37.8566 127.553 39.4166V43.9943C127.553 44.5802 127.179 44.9098 126.666 44.9098C126.168 44.9098 125.824 44.6095 125.795 44.0675V43.5255H125.758C125.311 44.3678 124.337 44.8878 123.334 44.8878ZM123.891 43.5109C124.916 43.5109 125.751 42.8224 125.751 41.8849V41.2916L123.949 41.4015C123.07 41.4601 122.565 41.8556 122.565 42.4708C122.565 43.108 123.1 43.5109 123.891 43.5109ZM130.292 44.9098C129.757 44.9098 129.376 44.5656 129.376 43.9503V35.0074C129.376 34.3922 129.757 34.048 130.292 34.048C130.826 34.048 131.2 34.3922 131.2 35.0074V43.9503C131.2 44.5656 130.826 44.9098 130.292 44.9098ZM135.33 44.8878C133.829 44.8878 132.738 43.943 132.738 42.5441C132.738 41.1671 133.8 40.3395 135.689 40.2223L137.747 40.1051V39.5485C137.747 38.7355 137.198 38.2667 136.297 38.2667C135.587 38.2667 135.125 38.5084 134.671 39.1749C134.481 39.424 134.239 39.5411 133.931 39.5411C133.485 39.5411 133.162 39.2482 133.162 38.8087C133.162 38.6403 133.206 38.4791 133.287 38.3107C133.682 37.4098 134.884 36.8385 136.37 36.8385C138.297 36.8385 139.549 37.8566 139.549 39.4166V43.9943C139.549 44.5802 139.176 44.9098 138.663 44.9098C138.165 44.9098 137.821 44.6095 137.791 44.0675V43.5255H137.755C137.308 44.3678 136.334 44.8878 135.33 44.8878ZM135.887 43.5109C136.912 43.5109 137.747 42.8224 137.747 41.8849V41.2916L135.946 41.4015C135.067 41.4601 134.561 41.8556 134.561 42.4708C134.561 43.108 135.096 43.5109 135.887 43.5109ZM142.229 44.9098C141.695 44.9098 141.321 44.5656 141.321 43.9503V37.7687C141.321 37.2047 141.651 36.8458 142.193 36.8458C142.728 36.8458 143.094 37.2047 143.094 37.7687V38.3107H143.13C143.548 37.3878 144.354 36.8531 145.547 36.8531C147.261 36.8531 148.235 37.9518 148.235 39.7462V43.9503C148.235 44.5656 147.862 44.9098 147.327 44.9098C146.792 44.9098 146.412 44.5656 146.412 43.9503V40.1124C146.412 39.0138 145.899 38.3986 144.859 38.3986C143.812 38.3986 143.145 39.153 143.145 40.2662V43.9503C143.145 44.5656 142.764 44.9098 142.229 44.9098ZM153.413 44.9171C151.143 44.9171 149.678 43.379 149.678 40.8888C149.678 38.4132 151.135 36.8385 153.399 36.8385C154.922 36.8385 156.218 37.6222 156.592 38.7135C156.651 38.8673 156.687 39.0211 156.687 39.153C156.687 39.6071 156.343 39.8854 155.904 39.8854C155.537 39.8854 155.318 39.7316 155.105 39.3654C154.717 38.6549 154.204 38.318 153.45 38.318C152.278 38.318 151.531 39.2921 151.531 40.8815C151.531 42.4928 152.285 43.4449 153.443 43.4449C154.248 43.4449 154.746 43.0714 155.098 42.4489C155.347 42.0387 155.545 41.8849 155.94 41.8849C156.372 41.8849 156.709 42.1779 156.709 42.632C156.709 42.7711 156.673 42.9249 156.599 43.1007C156.167 44.1627 154.878 44.9171 153.413 44.9171ZM161.689 44.9171C159.316 44.9171 157.917 43.4303 157.917 40.9108C157.917 38.4352 159.346 36.8385 161.587 36.8385C163.711 36.8385 165.161 38.3473 165.161 40.4567C165.161 40.9987 164.853 41.3209 164.311 41.3209H159.734V41.3795C159.734 42.6759 160.488 43.5109 161.675 43.5109C162.495 43.5109 163.03 43.2252 163.616 42.4781C163.806 42.2657 163.975 42.1852 164.231 42.1852C164.641 42.1852 164.963 42.4489 164.963 42.8883C164.963 43.0275 164.919 43.1886 164.839 43.3497C164.326 44.3385 163.169 44.9171 161.689 44.9171ZM159.748 40.1198H163.374C163.337 38.9918 162.62 38.2521 161.594 38.2521C160.569 38.2521 159.822 39.0065 159.748 40.1198Z" fill="#8B8C8F"/>
<path d="M48.0799 68.9757C46.4319 68.9757 45.1282 68.17 44.3958 66.6246C44.0076 65.8116 43.8099 64.8009 43.8099 63.5997C43.8099 60.0768 45.4212 57.9747 48.1092 57.9747C49.7205 57.9747 50.951 58.6779 51.4783 59.6813C51.5955 59.8937 51.6468 60.0768 51.6468 60.2819C51.6468 60.714 51.3392 61.0436 50.8411 61.0436C50.4676 61.0436 50.2332 60.8678 49.9402 60.4943C49.4495 59.8204 48.8855 59.5128 48.1019 59.5128C46.5052 59.5128 45.6556 60.985 45.6189 63.4166V63.5265H45.6556C46.073 62.5524 47.1277 61.8199 48.5633 61.8199C50.5994 61.8199 52.0276 63.2848 52.0276 65.2843C52.0276 67.4303 50.365 68.9757 48.0799 68.9757ZM48.0506 67.4376C49.2298 67.4376 50.1673 66.5148 50.1673 65.3575C50.1746 64.1417 49.2884 63.2775 48.0726 63.2775C46.8567 63.2775 45.9412 64.1417 45.9412 65.3209C45.9412 66.5074 46.8714 67.4376 48.0506 67.4376ZM55.4844 68.9098C54.957 68.9098 54.6201 68.5875 54.6201 68.1407C54.6201 67.921 54.6714 67.7599 54.7812 67.5402L58.8901 59.7765V59.7399H54.1221C53.6533 59.7399 53.3164 59.4323 53.3164 58.9635C53.3164 58.4948 53.6533 58.1945 54.1221 58.1945H59.6738C60.3477 58.1945 60.8091 58.59 60.8091 59.2565C60.8091 59.6007 60.6992 59.8937 60.4429 60.3917L56.334 68.3605C56.1289 68.7633 55.8945 68.9098 55.4844 68.9098ZM65.4157 71.6857C63.9289 71.6783 62.7863 71.1071 62.2663 70.2721C62.1564 70.089 62.1125 69.9132 62.1125 69.7228C62.1125 69.3199 62.4128 69.0197 62.8742 69.0197C63.1306 69.0197 63.3137 69.1075 63.5407 69.3273C64.1486 69.9352 64.6906 70.2281 65.4304 70.2355C66.6682 70.2501 67.4079 69.5543 67.4079 68.5216V67.2838H67.3713C66.9685 68.1188 66.0529 68.6827 64.9396 68.6827C62.9914 68.6827 61.7463 67.174 61.7463 64.7863C61.7463 62.3546 62.9768 60.8678 64.9763 60.8678C66.0822 60.8678 66.9392 61.4391 67.3859 62.318H67.4152V61.776C67.4152 61.1754 67.8107 60.8458 68.3308 60.8458C68.8581 60.8458 69.239 61.1754 69.239 61.776V68.5143C69.239 70.4698 67.8107 71.7003 65.4157 71.6857ZM65.4963 67.2618C66.6608 67.2618 67.4226 66.317 67.4226 64.8009C67.4226 63.2921 66.6608 62.3107 65.4963 62.3107C64.3464 62.3107 63.614 63.2775 63.614 64.8009C63.614 66.339 64.3464 67.2618 65.4963 67.2618Z" fill="#222326"/>
<path d="M44.708 85.8712C44.2002 85.8712 43.8892 85.5602 43.8892 85.0206V77.4542C43.8892 76.921 44.2002 76.6036 44.708 76.6036H49.0879C49.5386 76.6036 49.8369 76.8702 49.8369 77.2955C49.8369 77.7208 49.5322 77.9874 49.0879 77.9874H45.5269V80.6915H48.7578C49.1895 80.6915 49.4751 80.9454 49.4751 81.358C49.4751 81.7706 49.1895 82.0245 48.7578 82.0245H45.5269V85.0206C45.5269 85.5602 45.2222 85.8712 44.708 85.8712ZM52.785 85.8712C51.4837 85.8712 50.5379 85.0524 50.5379 83.84C50.5379 82.6466 51.4584 81.9293 53.0961 81.8278L54.8797 81.7262V81.2438C54.8797 80.5392 54.4037 80.1329 53.6229 80.1329C53.0072 80.1329 52.6073 80.3424 52.2137 80.92C52.0487 81.1359 51.8392 81.2374 51.5726 81.2374C51.1854 81.2374 50.9061 80.9835 50.9061 80.6027C50.9061 80.4567 50.9442 80.317 51.014 80.171C51.3568 79.3903 52.3978 78.8951 53.6864 78.8951C55.3558 78.8951 56.4413 79.7775 56.4413 81.1295V85.0968C56.4413 85.6046 56.1175 85.8903 55.6732 85.8903C55.2416 85.8903 54.9432 85.63 54.9178 85.1603V84.6906H54.8861C54.4989 85.4205 53.6546 85.8712 52.785 85.8712ZM53.2674 84.6779C54.1561 84.6779 54.8797 84.0812 54.8797 83.2687V82.7545L53.3182 82.8497C52.5565 82.9005 52.1185 83.2433 52.1185 83.7765C52.1185 84.3287 52.5819 84.6779 53.2674 84.6779ZM58.5451 84.1002V80.2535H58.1198C57.7263 80.2535 57.4851 80.0187 57.4851 79.6378C57.4851 79.2633 57.7263 79.0348 58.1198 79.0348H58.5451V78.1398C58.5451 77.632 58.8498 77.3146 59.3386 77.3146C59.821 77.3146 60.1257 77.632 60.1257 78.1398V79.0348H60.8557C61.2492 79.0348 61.4904 79.2633 61.4904 79.6378C61.4904 80.0187 61.2492 80.2535 60.8557 80.2535H60.1257V83.7574C60.1257 84.2653 60.3034 84.4874 60.7605 84.5255L60.8747 84.5382C61.2937 84.5763 61.5095 84.754 61.5095 85.1222C61.5095 85.5856 61.1032 85.8331 60.3796 85.8331H60.3161C59.1418 85.8331 58.5451 85.2491 58.5451 84.1002Z" fill="#8EACFD"/>
<line x1="98.583" y1="90.7633" x2="98.583" y2="54.7633" stroke="#222326" stroke-opacity="0.1"/>
<path d="M115.816 68.9098C115.266 68.9098 114.885 68.5289 114.885 67.9576V60.0255H114.849L113.142 61.212C112.959 61.3439 112.813 61.3951 112.608 61.3951C112.212 61.3951 111.926 61.1095 111.926 60.692C111.926 60.399 112.044 60.1793 112.359 59.9596L114.519 58.4435C114.988 58.1139 115.281 58.048 115.676 58.048C116.343 58.048 116.746 58.4508 116.746 59.1027V67.9576C116.746 68.5289 116.365 68.9098 115.816 68.9098ZM123.433 68.9757C121.807 68.9757 120.4 68.1993 119.88 67.0494C119.778 66.8224 119.712 66.6027 119.712 66.3317C119.712 65.8409 120.027 65.5333 120.525 65.5333C120.92 65.5333 121.162 65.6871 121.36 66.0753C121.719 66.9323 122.422 67.4376 123.44 67.4376C124.692 67.4376 125.579 66.5514 125.579 65.299C125.579 64.0831 124.692 63.2189 123.447 63.2189C122.781 63.2189 122.202 63.4899 121.799 63.8854C121.36 64.3248 121.177 64.42 120.745 64.42C120.137 64.42 119.836 63.9879 119.851 63.4752C119.851 63.4313 119.851 63.402 119.858 63.358L120.195 59.3663C120.261 58.5314 120.686 58.1945 121.514 58.1945H126.069C126.553 58.1945 126.868 58.5021 126.868 58.9635C126.868 59.4323 126.553 59.7399 126.069 59.7399H121.799L121.521 62.8673H121.558C122.004 62.2081 122.876 61.798 123.938 61.798C125.959 61.798 127.402 63.2262 127.402 65.2477C127.402 67.4596 125.776 68.9757 123.433 68.9757ZM132.99 68.9757C130.383 68.9757 128.83 66.859 128.83 63.4679C128.83 60.0914 130.398 57.9821 132.99 57.9821C135.576 57.9821 137.136 60.0768 137.136 63.4606C137.136 66.8444 135.59 68.9757 132.99 68.9757ZM132.99 67.4303C134.419 67.4303 135.232 65.9728 135.232 63.4679C135.232 60.9923 134.404 59.5275 132.99 59.5275C131.569 59.5275 130.734 60.9996 130.734 63.4606C130.734 65.9655 131.555 67.4303 132.99 67.4303ZM142.16 71.6857C140.673 71.6783 139.531 71.1071 139.011 70.2721C138.901 70.089 138.857 69.9132 138.857 69.7228C138.857 69.3199 139.157 69.0197 139.618 69.0197C139.875 69.0197 140.058 69.1075 140.285 69.3273C140.893 69.9352 141.435 70.2281 142.175 70.2355C143.412 70.2501 144.152 69.5543 144.152 68.5216V67.2838H144.116C143.713 68.1188 142.797 68.6827 141.684 68.6827C139.736 68.6827 138.491 67.174 138.491 64.7863C138.491 62.3546 139.721 60.8678 141.721 60.8678C142.826 60.8678 143.683 61.4391 144.13 62.318H144.159V61.776C144.159 61.1754 144.555 60.8458 145.075 60.8458C145.602 60.8458 145.983 61.1754 145.983 61.776V68.5143C145.983 70.4698 144.555 71.7003 142.16 71.6857ZM142.241 67.2618C143.405 67.2618 144.167 66.317 144.167 64.8009C144.167 63.2921 143.405 62.3107 142.241 62.3107C141.091 62.3107 140.358 63.2775 140.358 64.8009C140.358 66.339 141.091 67.2618 142.241 67.2618Z" fill="#222326"/>
<path d="M115.856 85.9156C113.209 85.9156 111.578 84.1193 111.578 81.1803C111.578 78.2604 113.235 76.4513 115.825 76.4513C117.52 76.4513 118.859 77.2448 119.462 78.5841C119.563 78.7936 119.614 79.0094 119.614 79.1998C119.614 79.6378 119.329 79.9171 118.891 79.9171C118.516 79.9171 118.269 79.7394 118.091 79.3395C117.666 78.3556 116.834 77.8414 115.837 77.8414C114.263 77.8414 113.254 79.1364 113.254 81.1803C113.254 83.2369 114.257 84.5255 115.844 84.5255C116.891 84.5255 117.697 84.0685 118.116 83.1036C118.281 82.7291 118.491 82.5768 118.846 82.5768C119.297 82.5768 119.608 82.8751 119.608 83.3068C119.608 83.5162 119.557 83.7067 119.456 83.9225C118.872 85.1666 117.57 85.9156 115.856 85.9156ZM123.21 85.8712C121.909 85.8712 120.963 85.0524 120.963 83.84C120.963 82.6466 121.883 81.9293 123.521 81.8278L125.305 81.7262V81.2438C125.305 80.5392 124.828 80.1329 124.048 80.1329C123.432 80.1329 123.032 80.3424 122.639 80.92C122.473 81.1359 122.264 81.2374 121.997 81.2374C121.61 81.2374 121.331 80.9835 121.331 80.6027C121.331 80.4567 121.369 80.317 121.439 80.171C121.782 79.3903 122.823 78.8951 124.111 78.8951C125.781 78.8951 126.866 79.7775 126.866 81.1295V85.0968C126.866 85.6046 126.542 85.8903 126.098 85.8903C125.666 85.8903 125.368 85.63 125.343 85.1603V84.6906H125.311C124.924 85.4205 124.079 85.8712 123.21 85.8712ZM123.692 84.6779C124.581 84.6779 125.305 84.0812 125.305 83.2687V82.7545L123.743 82.8497C122.981 82.9005 122.543 83.2433 122.543 83.7765C122.543 84.3287 123.007 84.6779 123.692 84.6779ZM129.319 85.8903C128.843 85.8903 128.532 85.5792 128.532 85.0587V79.7013C128.532 79.2062 128.837 78.9015 129.287 78.9015C129.725 78.9015 130.036 79.2062 130.036 79.7013V80.2155H130.068C130.252 79.4283 130.836 78.9205 131.509 78.9205C131.757 78.9205 131.947 78.984 132.068 79.0919C132.214 79.2125 132.29 79.403 132.29 79.6632C132.29 79.9108 132.214 80.0948 132.055 80.2218C131.903 80.3551 131.668 80.4249 131.357 80.4313C130.455 80.4376 130.113 81.0026 130.113 81.8214V85.0587C130.113 85.5792 129.795 85.8903 129.319 85.8903ZM134.203 85.8903C133.746 85.8903 133.435 85.611 133.435 85.0968V77.3082C133.435 76.775 133.765 76.4767 134.229 76.4767C134.692 76.4767 135.016 76.775 135.016 77.3082V80.1901H135.054C135.441 79.403 136.203 78.9205 137.161 78.9205C138.856 78.9205 139.935 80.2472 139.935 82.399C139.935 84.5509 138.862 85.8712 137.155 85.8712C136.171 85.8712 135.416 85.3951 135.016 84.6144H134.984V85.0968C134.984 85.6046 134.66 85.8903 134.203 85.8903ZM136.672 84.5763C137.682 84.5763 138.316 83.7384 138.316 82.399C138.316 81.066 137.682 80.2218 136.672 80.2218C135.695 80.2218 135.009 81.0914 135.009 82.399C135.009 83.7194 135.695 84.5763 136.672 84.5763ZM143.943 85.8966C142.521 85.8966 141.525 85.3507 141.201 84.5446C141.157 84.4303 141.138 84.3287 141.138 84.2335C141.138 83.8527 141.417 83.6115 141.798 83.6115C142.058 83.6115 142.28 83.7321 142.483 83.9987C142.839 84.5128 143.245 84.7413 144 84.7413C144.737 84.7413 145.226 84.4303 145.226 83.9225C145.226 83.5162 144.972 83.2941 144.28 83.1354L143.188 82.8878C141.874 82.5895 141.227 81.942 141.227 80.9645C141.227 79.714 142.306 78.8951 143.969 78.8951C145.264 78.8951 146.267 79.5299 146.476 80.3043C146.495 80.3868 146.508 80.463 146.508 80.5392C146.508 80.8693 146.298 81.1041 145.898 81.1041C145.67 81.1041 145.441 81.0216 145.295 80.8121C144.984 80.3488 144.597 80.0568 143.931 80.0568C143.239 80.0568 142.763 80.3932 142.763 80.8756C142.763 81.2692 143.055 81.5358 143.753 81.6945L144.826 81.9293C146.247 82.2531 146.812 82.7672 146.812 83.7638C146.812 85.0524 145.657 85.8966 143.943 85.8966Z" fill="#FFA41C"/>
<line x1="166.583" y1="90.7633" x2="166.583" y2="54.7633" stroke="#222326" stroke-opacity="0.1"/>
<path d="M183.945 68.9757C182.216 68.9757 181.008 68.1334 180.568 67.2472C180.466 67.0348 180.414 66.859 180.414 66.6686C180.414 66.2291 180.707 65.9069 181.213 65.9069C181.594 65.9069 181.828 66.0826 182.121 66.4562C182.619 67.1227 183.124 67.4449 184.003 67.4449C185.637 67.4449 186.45 65.9362 186.471 63.5411V63.424H186.442C186.039 64.4493 184.948 65.1378 183.578 65.1378C181.601 65.1378 180.07 63.7169 180.07 61.6735C180.07 59.5201 181.733 57.9747 184.018 57.9747C185.666 57.9747 186.977 58.7877 187.702 60.3258C188.083 61.1388 188.288 62.1495 188.288 63.358C188.288 66.8883 186.669 68.9757 183.945 68.9757ZM184.018 63.673C185.241 63.673 186.157 62.816 186.157 61.6368C186.157 60.4503 185.234 59.5275 184.04 59.5275C182.861 59.5275 181.923 60.443 181.923 61.6002C181.923 62.8087 182.817 63.673 184.018 63.673ZM193.964 68.9757C191.54 68.9757 189.848 67.7086 189.848 65.9069C189.848 64.5372 190.822 63.4899 192.235 63.2042V63.1603C191.02 62.838 190.229 61.9371 190.229 60.8019C190.229 59.1759 191.781 57.9821 193.964 57.9821C196.146 57.9821 197.692 59.1686 197.692 60.8092C197.692 61.9298 196.908 62.8234 195.692 63.1603V63.2042C197.106 63.4972 198.087 64.5446 198.087 65.9069C198.087 67.7159 196.381 68.9757 193.964 68.9757ZM193.964 62.5597C195.055 62.5597 195.832 61.9152 195.832 60.9923C195.832 60.0548 195.055 59.4103 193.964 59.4103C192.865 59.4103 192.096 60.0621 192.096 60.9923C192.096 61.9152 192.865 62.5597 193.964 62.5597ZM193.964 67.5328C195.231 67.5328 196.125 66.7931 196.125 65.7677C196.125 64.735 195.231 64.0026 193.964 64.0026C192.697 64.0026 191.803 64.7423 191.803 65.7677C191.803 66.7931 192.697 67.5328 193.964 67.5328ZM203.104 71.6857C201.617 71.6783 200.475 71.1071 199.955 70.2721C199.845 70.089 199.801 69.9132 199.801 69.7228C199.801 69.3199 200.101 69.0197 200.563 69.0197C200.819 69.0197 201.002 69.1075 201.229 69.3273C201.837 69.9352 202.379 70.2281 203.119 70.2355C204.357 70.2501 205.096 69.5543 205.096 68.5216V67.2838H205.06C204.657 68.1188 203.741 68.6827 202.628 68.6827C200.68 68.6827 199.435 67.174 199.435 64.7863C199.435 62.3546 200.665 60.8678 202.665 60.8678C203.771 60.8678 204.628 61.4391 205.074 62.318H205.104V61.776C205.104 61.1754 205.499 60.8458 206.019 60.8458C206.547 60.8458 206.927 61.1754 206.927 61.776V68.5143C206.927 70.4698 205.499 71.7003 203.104 71.6857ZM203.185 67.2618C204.349 67.2618 205.111 66.317 205.111 64.8009C205.111 63.2921 204.349 62.3107 203.185 62.3107C202.035 62.3107 201.302 63.2775 201.302 64.8009C201.302 66.339 202.035 67.2618 203.185 67.2618Z" fill="#222326"/>
<path d="M180.708 85.8712C180.2 85.8712 179.889 85.5602 179.889 85.0206V77.4542C179.889 76.921 180.2 76.6036 180.708 76.6036H183.45C185.272 76.6036 186.535 77.8414 186.535 79.6696C186.535 81.4977 185.234 82.7355 183.38 82.7355H181.527V85.0206C181.527 85.5602 181.222 85.8712 180.708 85.8712ZM181.527 81.4152H183.012C184.187 81.4152 184.872 80.7804 184.872 79.6696C184.872 78.5714 184.193 77.943 183.019 77.943H181.527V81.4152ZM188.753 85.8903C188.277 85.8903 187.966 85.5792 187.966 85.0587V79.7013C187.966 79.2062 188.271 78.9015 188.722 78.9015C189.16 78.9015 189.471 79.2062 189.471 79.7013V80.2155H189.502C189.686 79.4283 190.27 78.9205 190.943 78.9205C191.191 78.9205 191.381 78.984 191.502 79.0919C191.648 79.2125 191.724 79.403 191.724 79.6632C191.724 79.9108 191.648 80.0948 191.489 80.2218C191.337 80.3551 191.102 80.4249 190.791 80.4313C189.89 80.4376 189.547 81.0026 189.547 81.8214V85.0587C189.547 85.5792 189.229 85.8903 188.753 85.8903ZM195.548 85.8966C193.574 85.8966 192.292 84.5826 192.292 82.399C192.292 80.2281 193.587 78.8951 195.548 78.8951C197.509 78.8951 198.804 80.2218 198.804 82.399C198.804 84.5826 197.522 85.8966 195.548 85.8966ZM195.548 84.6461C196.551 84.6461 197.198 83.8336 197.198 82.399C197.198 80.9708 196.551 80.152 195.548 80.152C194.551 80.152 193.898 80.9708 193.898 82.399C193.898 83.8336 194.545 84.6461 195.548 84.6461ZM200.648 84.1002V80.2535H200.223C199.829 80.2535 199.588 80.0187 199.588 79.6378C199.588 79.2633 199.829 79.0348 200.223 79.0348H200.648V78.1398C200.648 77.632 200.953 77.3146 201.441 77.3146C201.924 77.3146 202.229 77.632 202.229 78.1398V79.0348H202.959C203.352 79.0348 203.593 79.2633 203.593 79.6378C203.593 80.0187 203.352 80.2535 202.959 80.2535H202.229V83.7574C202.229 84.2653 202.406 84.4874 202.863 84.5255L202.978 84.5382C203.397 84.5763 203.612 84.754 203.612 85.1222C203.612 85.5856 203.206 85.8331 202.483 85.8331H202.419C201.245 85.8331 200.648 85.2491 200.648 84.1002ZM207.83 85.8966C205.773 85.8966 204.561 84.608 204.561 82.4244C204.561 80.2789 205.799 78.8951 207.741 78.8951C209.582 78.8951 210.839 80.2028 210.839 82.0309C210.839 82.5006 210.572 82.7799 210.102 82.7799H206.135V82.8307C206.135 83.9542 206.789 84.6779 207.817 84.6779C208.528 84.6779 208.992 84.4303 209.499 83.7828C209.664 83.5988 209.81 83.5289 210.033 83.5289C210.388 83.5289 210.667 83.7574 210.667 84.1383C210.667 84.2589 210.629 84.3986 210.56 84.5382C210.115 85.3951 209.112 85.8966 207.83 85.8966ZM206.148 81.7389H209.29C209.258 80.7614 208.636 80.1202 207.747 80.1202C206.859 80.1202 206.211 80.774 206.148 81.7389ZM213.076 78.089C212.587 78.089 212.2 77.7081 212.2 77.2321C212.2 76.7496 212.587 76.3751 213.076 76.3751C213.571 76.3751 213.958 76.7496 213.958 77.2321C213.958 77.7081 213.571 78.089 213.076 78.089ZM213.076 85.8903C212.594 85.8903 212.289 85.5729 212.289 85.0587V79.733C212.289 79.2252 212.594 78.9015 213.076 78.9015C213.558 78.9015 213.869 79.2252 213.869 79.7394V85.0587C213.869 85.5729 213.558 85.8903 213.076 85.8903ZM216.373 85.8903C215.91 85.8903 215.586 85.5919 215.586 85.0587V79.7013C215.586 79.2125 215.872 78.9015 216.341 78.9015C216.805 78.9015 217.122 79.2125 217.122 79.7013V80.171H217.154C217.516 79.3712 218.214 78.9078 219.249 78.9078C220.734 78.9078 221.578 79.86 221.578 81.4152V85.0587C221.578 85.5919 221.255 85.8903 220.791 85.8903C220.328 85.8903 219.998 85.5919 219.998 85.0587V81.7325C219.998 80.7804 219.553 80.2472 218.652 80.2472C217.744 80.2472 217.167 80.901 217.167 81.8658V85.0587C217.167 85.5919 216.837 85.8903 216.373 85.8903Z" fill="#F964A3"/>
</g>
<path d="M43.333 130.513C43.333 129.547 44.1165 128.763 45.083 128.763V128.763C46.0495 128.763 46.833 129.547 46.833 130.513V138.43H43.333V130.513Z" fill="#8EACFD"/>
<rect x="43.333" y="138.43" width="3.5" height="9.66667" fill="#F964A3"/>
<rect x="43.333" y="148.097" width="3.5" height="9.66667" fill="#FFA41C"/>
<path d="M50.666 137.513C50.666 136.547 51.4495 135.763 52.416 135.763V135.763C53.3825 135.763 54.166 136.547 54.166 137.513V143.097H50.666V137.513Z" fill="#8EACFD"/>
<rect x="50.666" y="143.097" width="3.5" height="7.33333" fill="#F964A3"/>
<rect x="50.666" y="150.43" width="3.5" height="7.33333" fill="#FFA41C"/>
<path d="M58 118.263C58 117.297 58.7835 116.513 59.75 116.513V116.513C60.7165 116.513 61.5 117.297 61.5 118.263V130.263H58V118.263Z" fill="#8EACFD"/>
<rect x="58" y="130.263" width="3.5" height="13.75" fill="#F964A3"/>
<rect x="58" y="144.013" width="3.5" height="13.75" fill="#FFA41C"/>
<path d="M65.333 114.513C65.333 113.547 66.1165 112.763 67.083 112.763V112.763C68.0495 112.763 68.833 113.547 68.833 114.513V116.481H65.333V114.513Z" fill="#8EACFD"/>
<rect x="65.333" y="116.481" width="3.5" height="37.5648" fill="#F964A3"/>
<rect x="65.333" y="154.046" width="3.5" height="3.71759" fill="#FFA41C"/>
<path d="M72.666 111.89C72.666 110.924 73.4495 110.14 74.416 110.14V110.14C75.3825 110.14 76.166 110.924 76.166 111.89V117.517H72.666V111.89Z" fill="#8EACFD"/>
<rect x="72.666" y="117.517" width="3.5" height="32.8692" fill="#F964A3"/>
<rect x="72.666" y="150.386" width="3.5" height="7.37693" fill="#FFA41C"/>
<path d="M80 118.263C80 117.297 80.7835 116.513 81.75 116.513V116.513C82.7165 116.513 83.5 117.297 83.5 118.263V130.263H80V118.263Z" fill="#8EACFD"/>
<rect x="80" y="130.263" width="3.5" height="13.75" fill="#F964A3"/>
<rect x="80" y="144.013" width="3.5" height="13.75" fill="#FFA41C"/>
<path d="M87.333 110.847C87.333 109.88 88.1165 109.097 89.083 109.097V109.097C90.0495 109.097 90.833 109.88 90.833 110.847V145.097H87.333V110.847Z" fill="#8EACFD"/>
<rect x="87.333" y="145.097" width="3.5" height="6.33333" fill="#F964A3"/>
<rect x="87.333" y="151.43" width="3.5" height="6.33333" fill="#FFA41C"/>
<path d="M94.666 108.18C94.666 107.213 95.4495 106.43 96.416 106.43V106.43C97.3825 106.43 98.166 107.213 98.166 108.18V150.43H94.666V108.18Z" fill="#8EACFD"/>
<rect x="94.666" y="150.43" width="3.5" height="3.66667" fill="#F964A3"/>
<rect x="94.666" y="154.097" width="3.5" height="3.66667" fill="#FFA41C"/>
<path d="M102 129.513C102 128.547 102.784 127.763 103.75 127.763V127.763C104.716 127.763 105.5 128.547 105.5 129.513V137.763H102V129.513Z" fill="#8EACFD"/>
<rect x="102" y="137.763" width="3.5" height="10" fill="#F964A3"/>
<rect x="102" y="147.763" width="3.5" height="10" fill="#FFA41C"/>
<path d="M109.333 118.263C109.333 117.297 110.117 116.513 111.083 116.513V116.513C112.05 116.513 112.833 117.297 112.833 118.263V130.263H109.333V118.263Z" fill="#8EACFD"/>
<rect x="109.333" y="130.263" width="3.5" height="13.75" fill="#F964A3"/>
<rect x="109.333" y="144.013" width="3.5" height="13.75" fill="#FFA41C"/>
<path d="M116.666 137.513C116.666 136.547 117.45 135.763 118.416 135.763V135.763C119.383 135.763 120.166 136.547 120.166 137.513V143.097H116.666V137.513Z" fill="#8EACFD"/>
<rect x="116.666" y="143.097" width="3.5" height="7.33333" fill="#F964A3"/>
<rect x="116.666" y="150.43" width="3.5" height="7.33333" fill="#FFA41C"/>
<path d="M124 109.431C124 108.464 124.784 107.681 125.75 107.681V107.681C126.716 107.681 127.5 108.464 127.5 109.431V112.598H124V109.431Z" fill="#8EACFD"/>
<rect x="124" y="112.598" width="3.5" height="40.248" fill="#F964A3"/>
<rect x="124" y="152.846" width="3.5" height="4.91732" fill="#FFA41C"/>
<path d="M131.333 129.513C131.333 128.547 132.117 127.763 133.083 127.763V127.763C134.05 127.763 134.833 128.547 134.833 129.513V137.763H131.333V129.513Z" fill="#8EACFD"/>
<rect x="131.333" y="137.763" width="3.5" height="10" fill="#F964A3"/>
<rect x="131.333" y="147.763" width="3.5" height="10" fill="#FFA41C"/>
<path d="M138.666 137.513C138.666 136.547 139.45 135.763 140.416 135.763V135.763C141.383 135.763 142.166 136.547 142.166 137.513V143.097H138.666V137.513Z" fill="#8EACFD"/>
<rect x="138.666" y="143.097" width="3.5" height="7.33333" fill="#F964A3"/>
<rect x="138.666" y="150.43" width="3.5" height="7.33333" fill="#FFA41C"/>
<path d="M146 137.513C146 136.547 146.784 135.763 147.75 135.763V135.763C148.716 135.763 149.5 136.547 149.5 137.513V143.097H146V137.513Z" fill="#8EACFD"/>
<rect x="146" y="143.097" width="3.5" height="7.33333" fill="#F964A3"/>
<rect x="146" y="150.43" width="3.5" height="7.33333" fill="#FFA41C"/>
<path d="M153.333 137.513C153.333 136.547 154.117 135.763 155.083 135.763V135.763C156.05 135.763 156.833 136.547 156.833 137.513V143.097H153.333V137.513Z" fill="#8EACFD"/>
<rect x="153.333" y="143.097" width="3.5" height="7.33333" fill="#F964A3"/>
<rect x="153.333" y="150.43" width="3.5" height="7.33333" fill="#FFA41C"/>
<path d="M160.666 118.263C160.666 117.297 161.45 116.513 162.416 116.513V116.513C163.383 116.513 164.166 117.297 164.166 118.263V130.263H160.666V118.263Z" fill="#8EACFD"/>
<rect x="160.666" y="130.263" width="3.5" height="13.75" fill="#F964A3"/>
<rect x="160.666" y="144.013" width="3.5" height="13.75" fill="#FFA41C"/>
<path d="M168 118.263C168 117.297 168.784 116.513 169.75 116.513V116.513C170.716 116.513 171.5 117.297 171.5 118.263V130.263H168V118.263Z" fill="#8EACFD"/>
<rect x="168" y="130.263" width="3.5" height="13.75" fill="#F964A3"/>
<rect x="168" y="144.013" width="3.5" height="13.75" fill="#FFA41C"/>
<path d="M175.333 137.513C175.333 136.547 176.117 135.763 177.083 135.763V135.763C178.05 135.763 178.833 136.547 178.833 137.513V143.097H175.333V137.513Z" fill="#8EACFD"/>
<rect x="175.333" y="143.097" width="3.5" height="7.33333" fill="#F964A3"/>
<rect x="175.333" y="150.43" width="3.5" height="7.33333" fill="#FFA41C"/>
<path d="M182.666 137.513C182.666 136.547 183.45 135.763 184.416 135.763V135.763C185.383 135.763 186.166 136.547 186.166 137.513V143.097H182.666V137.513Z" fill="#8EACFD"/>
<rect x="182.666" y="143.097" width="3.5" height="7.33333" fill="#F964A3"/>
<rect x="182.666" y="150.43" width="3.5" height="7.33333" fill="#FFA41C"/>
<path d="M190 112.013C190 111.047 190.784 110.263 191.75 110.263V110.263C192.716 110.263 193.5 111.047 193.5 112.013V130.263H190V112.013Z" fill="#8EACFD"/>
<rect x="190" y="130.263" width="3.5" height="20" fill="#F964A3"/>
<rect x="190" y="150.263" width="3.5" height="7.5" fill="#FFA41C"/>
<path d="M197.333 116.18C197.333 115.213 198.117 114.43 199.083 114.43V114.43C200.05 114.43 200.833 115.213 200.833 116.18V134.43H197.333V116.18Z" fill="#8EACFD"/>
<rect x="197.333" y="134.43" width="3.5" height="11.6667" fill="#F964A3"/>
<rect x="197.333" y="146.097" width="3.5" height="11.6667" fill="#FFA41C"/>
<path d="M204.666 137.513C204.666 136.547 205.45 135.763 206.416 135.763V135.763C207.383 135.763 208.166 136.547 208.166 137.513V145.763H204.666V137.513Z" fill="#8EACFD"/>
<rect x="204.666" y="145.763" width="3.5" height="10" fill="#F964A3"/>
<rect x="204.666" y="155.763" width="3.5" height="2" fill="#FFA41C"/>
<path d="M212 129.513C212 128.547 212.784 127.763 213.75 127.763V127.763C214.716 127.763 215.5 128.547 215.5 129.513V133.763H212V129.513Z" fill="#8EACFD"/>
<rect x="212" y="133.763" width="3.5" height="12" fill="#F964A3"/>
<rect x="212" y="145.763" width="3.5" height="12" fill="#FFA41C"/>
<path d="M219.333 146.513C219.333 145.547 220.117 144.763 221.083 144.763V144.763C222.05 144.763 222.833 145.547 222.833 146.513V149.097H219.333V146.513Z" fill="#8EACFD"/>
<rect x="219.333" y="149.097" width="3.5" height="4.33333" fill="#F964A3"/>
<rect x="219.333" y="153.43" width="3.5" height="4.33333" fill="#FFA41C"/>
</g>
<defs>
<filter id="filter0_dd_43888_10333" x="0.0830078" y="0.763306" width="272" height="214" filterUnits="userSpaceOnUse" color-interpolation-filters="sRGB">
<feFlood flood-opacity="0" result="BackgroundImageFix"/>
<feColorMatrix in="SourceAlpha" type="matrix" values="0 0 0 0 0 0 0 0 0 0 0 0 0 0 0 0 0 0 127 0" result="hardAlpha"/>
<feOffset dx="2" dy="15"/>
<feGaussianBlur stdDeviation="15"/>
<feComposite in2="hardAlpha" operator="out"/>
<feColorMatrix type="matrix" values="0 0 0 0 0 0 0 0 0 0 0 0 0 0 0 0 0 0 0.1 0"/>
<feBlend mode="normal" in2="BackgroundImageFix" result="effect1_dropShadow_43888_10333"/>
<feColorMatrix in="SourceAlpha" type="matrix" values="0 0 0 0 0 0 0 0 0 0 0 0 0 0 0 0 0 0 127 0" result="hardAlpha"/>
<feOffset dx="2" dy="6"/>
<feGaussianBlur stdDeviation="6"/>
<feComposite in2="hardAlpha" operator="out"/>
<feColorMatrix type="matrix" values="0 0 0 0 0 0 0 0 0 0 0 0 0 0 0 0 0 0 0.01 0"/>
<feBlend mode="normal" in2="effect1_dropShadow_43888_10333" result="effect2_dropShadow_43888_10333"/>
<feBlend mode="normal" in="BackgroundImageFix" in2="effect2_dropShadow_43888_10333" result="BackgroundImageFix"/>
<feBlend mode="normal" in="SourceGraphic" in2="BackgroundImageFix" result="shape"/>
</filter>
<radialGradient id="paint0_radial_43888_10333" cx="0" cy="0" r="1" gradientUnits="userSpaceOnUse" gradientTransform="translate(134.083 92.7633) rotate(90) scale(77 106)">
<stop stop-color="#A48EFF"/>
<stop offset="0.95195" stop-color="#A29DFF" stop-opacity="0"/>
</radialGradient>
<linearGradient id="paint1_linear_43888_10333" x1="217.833" y1="-3.37828" x2="113.256" y2="156.107" gradientUnits="userSpaceOnUse">
<stop stop-color="white" stop-opacity="0"/>
<stop offset="1" stop-color="white"/>
</linearGradient>
<clipPath id="clip0_43888_10333">
<rect width="180" height="63" fill="white" transform="translate(43.083 27.7633)"/>
</clipPath>
</defs>
</svg>
