<svg width="105" height="25" viewBox="0 0 105 25" fill="none" xmlns="http://www.w3.org/2000/svg">
<path d="M42.2031 21.0631V3.99512H49.6282C52.9989 3.99512 54.8957 5.66005 54.8957 8.31472C54.8957 9.78643 54.0037 11.125 52.4879 11.6983C54.5705 12.2457 55.9434 13.7872 55.9434 15.8053C55.9434 17.4252 55.3562 18.8636 54.2441 19.7503C53.1685 20.609 51.5948 21.0631 49.6959 21.0631H42.2031ZM49.5542 18.5963C52.1444 18.5963 53.2501 17.7655 53.2501 15.8053C53.2501 13.8452 52.0446 13.0143 49.5649 13.0143H44.8921V18.5963H49.5542ZM49.4758 10.8577C51.2492 10.8577 52.3516 9.93457 52.3516 8.50687C52.3516 7.07917 51.4349 6.34921 49.4661 6.34921H44.8825L44.8921 10.8577H49.4758Z" fill="#222326"/>
<path d="M103.691 3.99512H101.002V21.0631H103.691V3.99512Z" fill="#222326"/>
<path d="M71.5784 8.10645H74.3576L77.2419 15.9846L78.0674 18.3752L78.894 15.9867L81.7773 8.10645H84.5565L79.5832 21.0556L76.5539 21.0577L71.5784 8.10645Z" fill="#222326"/>
<path d="M21.5938 8.15442C22.6791 8.15442 23.847 8.37555 24.7208 8.76414C24.6671 4.4381 21.1451 0.731445 16.804 0.731445H3.86133L6.91639 8.15442H21.5938Z" fill="#222326"/>
<path d="M24.7209 8.76367V8.86458C24.7209 13.3516 21.5896 16.3552 16.8041 16.3552H0.987793L4.37456 24.7314H21.8634V24.7271C26.4696 24.7271 30.2031 21.1009 30.2031 16.4947C30.2031 12.8922 27.9198 9.9316 24.7209 8.76582V8.76367Z" fill="#222326"/>
<path d="M64.4742 21.2903C62.644 21.2903 61.0917 20.6548 59.9861 19.4579C58.8804 18.2621 58.2417 16.5832 58.2417 14.6027C58.2417 10.5772 60.7418 7.87207 64.3819 7.87207C68.022 7.87207 70.2644 10.4162 70.2644 14.2033C70.2644 14.7766 70.1732 15.4507 70.1732 15.4507H60.8427C60.9962 17.7704 62.3992 19.0972 64.4968 19.0972C66.3377 19.0972 67.2051 17.9465 67.5368 16.9364H70.0154C69.7266 18.2073 68.1594 21.2903 64.4753 21.2903H64.4742ZM67.672 13.4262C67.51 11.3587 66.2196 10.0297 64.3593 10.0297C62.499 10.0297 61.0209 11.451 60.8491 13.4262H67.672Z" fill="#222326"/>
<path d="M92.1041 21.2903C90.2738 21.2903 88.7216 20.6548 87.616 19.4579C86.5103 18.2621 85.8716 16.5832 85.8716 14.6027C85.8716 10.5772 88.3717 7.87207 92.0118 7.87207C95.6519 7.87207 97.8943 10.4162 97.8943 14.2033C97.8943 14.7766 97.8031 15.4507 97.8031 15.4507H88.4726C88.6261 17.7704 90.0291 19.0972 92.1266 19.0972C93.9676 19.0972 94.835 17.9465 95.1667 16.9364H97.6453C97.3565 18.2073 95.7893 21.2903 92.1052 21.2903H92.1041ZM95.3019 13.4262C95.1398 11.3587 93.8495 10.0297 91.9892 10.0297C90.1289 10.0297 88.6508 11.451 88.479 13.4262H95.3019Z" fill="#222326"/>
</svg>
