<svg width="229" height="291" viewBox="0 0 229 291" fill="none" xmlns="http://www.w3.org/2000/svg">
<g filter="url(#filter0_dd_43889_10555)">
<rect x="32.7852" y="15.1869" width="167.427" height="230.427" rx="18" fill="white"/>
<rect x="32.7852" y="15.1869" width="167.427" height="230.427" rx="18" fill="url(#paint0_radial_43889_10555)" fill-opacity="0.1"/>
<rect x="33.5352" y="15.9369" width="165.927" height="228.927" rx="17.25" stroke="url(#paint1_linear_43889_10555)" stroke-width="1.5"/>
<g opacity="0.9">
<g filter="url(#filter1_i_43889_10555)">
<path d="M117.483 36.9525L116.147 36.5658C116.007 36.5306 115.937 36.39 115.937 36.2494C115.937 36.1439 116.007 36.0033 116.147 35.9681L117.483 35.5814L117.87 34.2455C117.905 34.1049 118.046 33.9994 118.187 33.9994C118.292 33.9994 118.433 34.1049 118.468 34.2455L118.854 35.5814L120.19 35.9681C120.331 36.0033 120.437 36.1439 120.437 36.2494C120.437 36.39 120.331 36.5306 120.19 36.5658L118.854 36.9525L118.468 38.2885C118.433 38.4291 118.292 38.4994 118.187 38.4994C118.046 38.4994 117.905 38.4291 117.87 38.2885L117.483 36.9525ZM121.667 44.3705L121.104 42.3314L119.065 41.7689C118.854 41.6986 118.749 41.5228 118.749 41.3119C118.749 41.1361 118.854 40.9603 119.065 40.89L121.104 40.3275L121.667 38.2885C121.737 38.0775 121.913 37.9369 122.124 37.9369C122.3 37.9369 122.476 38.0775 122.546 38.2885L123.108 40.3275L125.147 40.89C125.358 40.9603 125.499 41.1361 125.499 41.3119C125.499 41.5228 125.358 41.6986 125.147 41.7689L123.108 42.3314L122.546 44.3705C122.476 44.5814 122.3 44.6869 122.124 44.6869C121.913 44.6869 121.737 44.5814 121.667 44.3705ZM114.214 37.9369L114.214 37.972C114.425 37.972 114.601 37.972 114.812 37.972C115.058 38.0072 115.233 38.183 115.304 38.4291C115.339 38.6752 115.233 38.9213 115.022 39.0267C113.476 39.9056 112.421 41.5931 112.421 43.5267C112.421 46.3744 114.706 48.6595 117.554 48.6595C117.87 48.6595 118.151 48.6595 118.433 48.5892C118.679 48.5541 118.925 48.6947 119.03 48.9056C119.136 49.1166 119.101 49.3978 118.925 49.5385C117.694 50.7338 116.042 51.472 114.214 51.472C110.487 51.472 107.499 48.4486 107.499 44.722C107.499 40.9955 110.487 37.9369 114.214 37.9369Z" fill="#CACBCE"/>
</g>
<path d="M80.9514 80.5267C77.0725 80.5267 74.3654 78.4994 74.3654 75.6166C74.3654 73.4252 75.924 71.7494 78.1857 71.2924L78.1857 71.222C76.2404 70.7064 74.9748 69.265 74.9748 67.4486C74.9748 64.847 77.4592 62.9369 80.9514 62.9369C84.4436 62.9369 86.9162 64.8353 86.9162 67.4603C86.9162 69.2533 85.6623 70.683 83.717 71.222L83.717 71.2924C85.9787 71.7611 87.549 73.4369 87.549 75.6166C87.549 78.5111 84.8186 80.5267 80.9514 80.5267ZM80.9514 70.2611C82.6975 70.2611 83.9396 69.2299 83.9396 67.7533C83.9396 66.2533 82.6975 65.222 80.9514 65.222C79.1936 65.222 77.9631 66.265 77.9631 67.7533C77.9631 69.2299 79.1936 70.2611 80.9514 70.2611ZM80.9514 78.2181C82.9787 78.2181 84.4084 77.0345 84.4084 75.3939C84.4084 73.7416 82.9787 72.5697 80.9514 72.5697C78.924 72.5697 77.4943 73.7533 77.4943 75.3939C77.4943 77.0345 78.924 78.2181 80.9514 78.2181ZM91.7673 80.4213C90.9118 80.4213 90.3025 79.8705 90.3025 78.8861L90.3025 64.5424C90.3025 63.6166 90.8532 63.0424 91.7439 63.0424C92.6462 63.0424 93.1853 63.6166 93.1853 64.5424L93.1853 69.8978L93.2439 69.8978C93.9118 68.3861 95.2829 67.5306 97.1696 67.5306C99.9118 67.5306 101.517 69.3353 101.517 72.183L101.517 78.8861C101.517 79.8705 100.908 80.4213 100.052 80.4213C99.197 80.4213 98.5993 79.8705 98.5993 78.8861L98.5993 72.7806C98.5993 71.0463 97.7321 70.0033 96.0446 70.0033C94.2868 70.0033 93.2204 71.222 93.2204 73.0502L93.2204 78.8861C93.2204 79.8705 92.6228 80.4213 91.7673 80.4213ZM115.755 80.5267C112.79 80.5267 110.868 79.3197 109.989 77.6205C109.766 77.2103 109.673 76.8236 109.673 76.4252C109.673 75.6283 110.177 75.1244 111.02 75.1244C111.641 75.1244 112.016 75.3939 112.333 76.015C112.919 77.2924 113.938 78.0541 115.79 78.0541C117.712 78.0541 119.012 76.9525 119.012 75.4174C119.024 73.6127 117.712 72.6049 115.544 72.6049L114.583 72.6049C113.833 72.6049 113.387 72.1478 113.387 71.4799C113.387 70.8119 113.833 70.3549 114.583 70.3549L115.473 70.3549C117.337 70.3549 118.579 69.2885 118.579 67.7885C118.579 66.3236 117.618 65.3392 115.743 65.3392C114.149 65.3392 113.223 65.9955 112.661 67.3197C112.333 68.0463 112.005 68.3158 111.302 68.3158C110.458 68.3158 110.012 67.8236 110.012 67.0502C110.012 66.6283 110.094 66.2533 110.305 65.8431C111.102 64.1674 112.977 62.9369 115.731 62.9369C119.235 62.9369 121.485 64.765 121.485 67.3783C121.485 69.4994 119.973 70.9174 117.934 71.3392L117.934 71.3978C120.43 71.6322 122.083 73.1322 122.083 75.4877C122.083 78.4877 119.458 80.5267 115.755 80.5267ZM131.317 80.5267C127.145 80.5267 124.66 77.14 124.66 71.7142C124.66 66.3119 127.168 62.9369 131.317 62.9369C135.453 62.9369 137.949 66.2885 137.949 71.7025C137.949 77.1166 135.477 80.5267 131.317 80.5267ZM131.317 78.0541C133.602 78.0541 134.903 75.722 134.903 71.7142C134.903 67.7533 133.578 65.4095 131.317 65.4095C129.043 65.4095 127.707 67.765 127.707 71.7025C127.707 75.7103 129.02 78.0541 131.317 78.0541ZM142.086 80.4213C141.207 80.4213 140.633 79.8588 140.633 78.8861L140.633 69.0072C140.633 68.058 141.207 67.5189 142.027 67.5189C142.847 67.5189 143.433 68.058 143.433 69.0072L143.433 69.9213L143.492 69.9213C144.031 68.4799 145.344 67.5306 147.031 67.5306C148.789 67.5306 150.043 68.433 150.5 70.0267L150.57 70.0267C151.168 68.4916 152.644 67.5306 154.437 67.5306C156.887 67.5306 158.492 69.183 158.492 71.6674L158.492 78.8861C158.492 79.8588 157.906 80.4213 157.039 80.4213C156.16 80.4213 155.574 79.8588 155.574 78.8861L155.574 72.3822C155.574 70.8588 154.777 69.9916 153.347 69.9916C151.941 69.9916 150.98 71.0228 150.98 72.5111L150.98 78.8861C150.98 79.8588 150.429 80.4213 149.562 80.4213C148.683 80.4213 148.144 79.8588 148.144 78.8861L148.144 72.2299C148.144 70.847 147.301 69.9916 145.941 69.9916C144.535 69.9916 143.551 71.0814 143.551 72.5814L143.551 78.8861C143.551 79.8588 142.953 80.4213 142.086 80.4213Z" fill="#222326"/>
<path d="M73.0497 100.363C70.9403 100.363 69.5341 99.4838 69.1239 98.2826C69.058 98.1068 69.0214 97.9164 69.0214 97.7406C69.0214 97.2133 69.3583 96.8763 69.8563 96.8763C70.2738 96.8763 70.5375 97.0448 70.7426 97.4696C71.0722 98.3851 71.9804 98.7953 73.1083 98.7953C74.3827 98.7953 75.2763 98.1654 75.2763 97.2865C75.2763 96.5248 74.7489 96.056 73.372 95.7704L72.2367 95.536C70.12 95.1039 69.1312 94.1078 69.1312 92.5624C69.1312 90.702 70.7645 89.4423 73.057 89.4423C74.9247 89.4423 76.3749 90.2772 76.807 91.6761C76.851 91.7933 76.8729 91.9325 76.8729 92.1083C76.8729 92.5697 76.5434 92.8846 76.0526 92.8846C75.6132 92.8846 75.3422 92.6942 75.1444 92.2841C74.7855 91.3905 74.0312 91.0096 73.0424 91.0096C71.8705 91.0096 71.0355 91.5663 71.0355 92.4525C71.0355 93.1703 71.5629 93.6317 72.8812 93.91L74.0165 94.1444C76.2431 94.6058 77.1806 95.4994 77.1806 97.0668C77.1806 99.0883 75.5912 100.363 73.0497 100.363ZM79.6852 100.333C79.1505 100.333 78.7696 99.9891 78.7696 99.3739L78.7696 90.431C78.7696 89.8158 79.1505 89.4716 79.6852 89.4716C80.2198 89.4716 80.5934 89.8158 80.5934 90.431L80.5934 99.3739C80.5934 99.9891 80.2198 100.333 79.6852 100.333ZM85.8958 100.341C83.5228 100.341 82.1238 98.8539 82.1238 96.3344C82.1238 93.8588 83.552 92.2621 85.7933 92.2621C87.9173 92.2621 89.3675 93.7709 89.3675 95.8802C89.3675 96.4222 89.0599 96.7445 88.5179 96.7445L83.9402 96.7445L83.9402 96.8031C83.9402 98.0995 84.6946 98.9344 85.8812 98.9344C86.7015 98.9344 87.2361 98.6488 87.8221 97.9017C88.0125 97.6893 88.181 97.6088 88.4373 97.6088C88.8475 97.6088 89.1697 97.8724 89.1697 98.3119C89.1697 98.451 89.1258 98.6122 89.0452 98.7733C88.5325 99.7621 87.3753 100.341 85.8958 100.341ZM83.9549 95.5433L87.5804 95.5433C87.5437 94.4154 86.826 93.6757 85.8006 93.6757C84.7752 93.6757 84.0281 94.4301 83.9549 95.5433ZM94.2964 100.341C91.9233 100.341 90.5244 98.8539 90.5244 96.3344C90.5244 93.8588 91.9526 92.2621 94.1938 92.2621C96.3179 92.2621 97.7681 93.7709 97.7681 95.8802C97.7681 96.4222 97.4604 96.7445 96.9185 96.7445L92.3408 96.7445L92.3408 96.8031C92.3408 98.0995 93.0952 98.9344 94.2817 98.9344C95.102 98.9344 95.6367 98.6488 96.2227 97.9017C96.4131 97.6893 96.5815 97.6088 96.8379 97.6088C97.248 97.6088 97.5703 97.8724 97.5703 98.3119C97.5703 98.451 97.5264 98.6122 97.4458 98.7733C96.9331 99.7621 95.7759 100.341 94.2964 100.341ZM92.3555 95.5433L95.981 95.5433C95.9443 94.4154 95.2266 93.6757 94.2012 93.6757C93.1758 93.6757 92.4287 94.4301 92.3555 95.5433ZM100.155 102.948C99.6208 102.948 99.2473 102.604 99.2473 101.989L99.2473 93.2069C99.2473 92.6063 99.6135 92.2694 100.133 92.2694C100.654 92.2694 101.027 92.6063 101.027 93.2069L101.027 93.7635L101.064 93.7635C101.503 92.8627 102.382 92.2914 103.51 92.2914C105.48 92.2914 106.733 93.8221 106.733 96.3051C106.733 98.7806 105.487 100.311 103.539 100.311C102.411 100.311 101.532 99.7694 101.108 98.8978L101.071 98.8978L101.071 101.989C101.071 102.604 100.69 102.948 100.155 102.948ZM102.953 98.8173C104.133 98.8173 104.865 97.8431 104.865 96.3051C104.865 94.7743 104.133 93.7928 102.953 93.7928C101.818 93.7928 101.064 94.7963 101.056 96.3051C101.064 97.8285 101.818 98.8173 102.953 98.8173ZM112.606 100.311C112.035 100.311 111.691 99.9598 111.691 99.3593L111.691 90.4677C111.691 89.8597 112.064 89.4935 112.672 89.4935C113.089 89.4935 113.346 89.64 113.653 90.0575L118.575 97.0228L118.641 97.0228L118.641 90.4457C118.641 89.8451 118.985 89.4935 119.549 89.4935C120.121 89.4935 120.458 89.8451 120.458 90.4457L120.458 99.3666C120.458 99.9672 120.113 100.311 119.498 100.311C119.066 100.311 118.817 100.172 118.517 99.7474L113.58 92.7748L113.514 92.7748L113.514 99.3593C113.514 99.9598 113.17 100.311 112.606 100.311ZM125.892 100.341C123.519 100.341 122.12 98.8539 122.12 96.3344C122.12 93.8588 123.548 92.2621 125.789 92.2621C127.913 92.2621 129.364 93.7709 129.364 95.8802C129.364 96.4222 129.056 96.7445 128.514 96.7445L123.936 96.7445L123.936 96.8031C123.936 98.0995 124.691 98.9344 125.877 98.9344C126.698 98.9344 127.232 98.6488 127.818 97.9017C128.009 97.6893 128.177 97.6088 128.433 97.6088C128.844 97.6088 129.166 97.8724 129.166 98.3119C129.166 98.451 129.122 98.6122 129.041 98.7733C128.529 99.7621 127.371 100.341 125.892 100.341ZM123.951 95.5433L127.576 95.5433C127.54 94.4154 126.822 93.6757 125.797 93.6757C124.771 93.6757 124.024 94.4301 123.951 95.5433ZM134.292 100.341C131.919 100.341 130.521 98.8539 130.521 96.3344C130.521 93.8588 131.949 92.2621 134.19 92.2621C136.314 92.2621 137.764 93.7709 137.764 95.8802C137.764 96.4222 137.457 96.7445 136.915 96.7445L132.337 96.7445L132.337 96.8031C132.337 98.0995 133.091 98.9344 134.278 98.9344C135.098 98.9344 135.633 98.6488 136.219 97.9017C136.409 97.6893 136.578 97.6088 136.834 97.6088C137.244 97.6088 137.566 97.8724 137.566 98.3119C137.566 98.451 137.522 98.6122 137.442 98.7733C136.929 99.7621 135.772 100.341 134.292 100.341ZM132.352 95.5433L135.977 95.5433C135.94 94.4154 135.223 93.6757 134.197 93.6757C133.172 93.6757 132.425 94.4301 132.352 95.5433ZM142.144 100.311C140.188 100.311 138.921 98.766 138.921 96.2977C138.921 93.8441 140.188 92.2914 142.144 92.2914C143.257 92.2914 144.136 92.87 144.546 93.7269L144.59 93.7269L144.59 90.431C144.59 89.8158 144.964 89.4716 145.498 89.4716C146.033 89.4716 146.414 89.8158 146.414 90.431L146.414 99.4178C146.414 100.004 146.04 100.333 145.513 100.333C144.986 100.333 144.59 100.011 144.59 99.4178L144.59 98.8099L144.553 98.8099C144.18 99.7035 143.345 100.311 142.144 100.311ZM142.693 98.8173C143.843 98.8173 144.597 97.8431 144.597 96.3051C144.597 94.7816 143.843 93.7928 142.693 93.7928C141.521 93.7928 140.789 94.767 140.789 96.3051C140.789 97.8505 141.514 98.8173 142.693 98.8173ZM151.694 100.341C149.321 100.341 147.922 98.8539 147.922 96.3344C147.922 93.8588 149.35 92.2621 151.592 92.2621C153.716 92.2621 155.166 93.7709 155.166 95.8802C155.166 96.4222 154.858 96.7445 154.316 96.7445L149.739 96.7445L149.739 96.8031C149.739 98.0995 150.493 98.9344 151.68 98.9344C152.5 98.9344 153.035 98.6488 153.621 97.9017C153.811 97.6893 153.979 97.6088 154.236 97.6088C154.646 97.6088 154.968 97.8724 154.968 98.3119C154.968 98.451 154.924 98.6122 154.844 98.7733C154.331 99.7621 153.174 100.341 151.694 100.341ZM149.753 95.5433L153.379 95.5433C153.342 94.4154 152.624 93.6757 151.599 93.6757C150.574 93.6757 149.827 94.4301 149.753 95.5433ZM159.546 100.311C157.59 100.311 156.323 98.766 156.323 96.2977C156.323 93.8441 157.59 92.2914 159.546 92.2914C160.659 92.2914 161.538 92.87 161.948 93.7269L161.992 93.7269L161.992 90.431C161.992 89.8158 162.365 89.4716 162.9 89.4716C163.435 89.4716 163.816 89.8158 163.816 90.431L163.816 99.4178C163.816 100.004 163.442 100.333 162.915 100.333C162.387 100.333 161.992 100.011 161.992 99.4178L161.992 98.8099L161.955 98.8099C161.582 99.7035 160.747 100.311 159.546 100.311ZM160.095 98.8173C161.245 98.8173 161.999 97.8431 161.999 96.3051C161.999 94.7816 161.245 93.7928 160.095 93.7928C158.923 93.7928 158.191 94.767 158.191 96.3051C158.191 97.8505 158.916 98.8173 160.095 98.8173Z" fill="#8B8C8F"/>
</g>
<mask id="mask0_43889_10555" style="mask-type:alpha" maskUnits="userSpaceOnUse" x="57" y="116" width="119" height="118">
<circle cx="116.499" cy="174.901" r="31.2134" stroke="black" stroke-width="55"/>
</mask>
<g mask="url(#mask0_43889_10555)">
<g opacity="0.6" filter="url(#filter2_i_43889_10555)">
<circle cx="116.499" cy="174.901" r="58.7134" fill="#222326" fill-opacity="0.04"/>
</g>
<g filter="url(#filter3_d_43889_10555)">
<path d="M106.167 129.316C104.994 124.141 108.25 118.907 113.549 118.629C121.393 118.218 129.274 119.449 136.674 122.287C147.08 126.277 156.069 133.264 162.505 142.363C168.94 151.462 172.533 162.265 172.829 173.405C173.039 181.328 171.575 189.169 168.574 196.429C166.547 201.332 160.528 202.658 156.039 199.829V199.829C151.551 196.999 150.346 191.072 151.933 186.009C153.153 182.119 153.73 178.034 153.621 173.915C153.426 166.574 151.058 159.454 146.817 153.458C142.576 147.462 136.652 142.858 129.795 140.228C125.948 138.753 121.904 137.937 117.83 137.791C112.527 137.601 107.34 134.49 106.167 129.316V129.316Z" fill="#9EB8FF"/>
</g>
<path d="M125.012 128.786C131.196 129.822 137.107 132.09 142.396 135.457C147.685 138.823 152.242 143.219 155.798 148.383C159.354 153.546 161.834 159.372 163.093 165.514C164.351 171.656 164.362 177.988 163.124 184.134" stroke="white" stroke-opacity="0.4" stroke-width="5" stroke-dasharray="1 2"/>
</g>
<g filter="url(#filter4_d_43889_10555)">
<circle cx="116.499" cy="174.9" r="34.7845" fill="white"/>
</g>
<path d="M126.54 146.023C130.332 147.341 133.828 149.394 136.827 152.063C139.826 154.733 142.27 157.967 144.019 161.581C145.768 165.195 146.789 169.118 147.022 173.126C147.255 177.135 146.696 181.15 145.377 184.942C144.059 188.734 142.006 192.23 139.336 195.229C136.667 198.228 133.433 200.672 129.819 202.421C126.205 204.17 122.282 205.191 118.274 205.424C114.265 205.657 110.25 205.098 106.458 203.779C102.666 202.461 99.1701 200.408 96.171 197.739C93.1719 195.069 90.728 191.835 88.9788 188.221C87.2296 184.607 86.2094 180.684 85.9763 176.676C85.7433 172.667 86.302 168.652 87.6207 164.86C88.9393 161.068 90.9919 157.572 93.6614 154.573C96.3309 151.574 99.565 149.13 103.179 147.381C106.793 145.632 110.716 144.611 114.724 144.378C118.733 144.145 122.748 144.704 126.54 146.023L126.54 146.023Z" stroke="#222326" stroke-opacity="0.1" stroke-dasharray="1.5 3"/>
<path d="M117.914 152.19L119.05 151.712L119.469 150.494C119.488 150.386 119.588 150.32 119.688 150.32C119.767 150.32 119.867 150.386 119.887 150.494L120.325 151.712L121.441 152.19C121.541 152.212 121.601 152.32 121.601 152.407C121.601 152.516 121.541 152.625 121.441 152.647L120.325 153.103L119.887 154.342C119.867 154.429 119.767 154.495 119.688 154.495C119.588 154.495 119.488 154.429 119.469 154.342L119.05 153.103L117.914 152.647C117.834 152.625 117.775 152.516 117.775 152.407C117.775 152.32 117.834 152.212 117.914 152.19ZM115.483 151.929L116.519 154.408L118.791 155.538C118.911 155.603 118.99 155.734 118.99 155.864C118.99 155.995 118.911 156.125 118.791 156.169L116.519 157.321L115.483 159.799C115.423 159.93 115.303 160.017 115.184 160.017C115.064 160.017 114.945 159.93 114.905 159.799L113.849 157.321L111.577 156.19C111.457 156.125 111.397 155.995 111.397 155.864C111.397 155.734 111.457 155.603 111.577 155.538L113.849 154.408L114.905 151.929C114.945 151.799 115.064 151.712 115.184 151.712C115.303 151.712 115.423 151.799 115.483 151.929ZM119.05 158.669L119.469 157.451C119.488 157.342 119.588 157.277 119.688 157.277C119.767 157.277 119.867 157.342 119.887 157.451L120.325 158.669L121.441 159.147C121.541 159.169 121.601 159.277 121.601 159.364C121.601 159.473 121.541 159.582 121.441 159.603L120.325 160.06L119.887 161.299C119.867 161.386 119.767 161.451 119.688 161.451C119.588 161.451 119.488 161.386 119.469 161.299L119.05 160.06L117.914 159.603C117.834 159.582 117.775 159.473 117.775 159.364C117.775 159.277 117.834 159.169 117.914 159.147L119.05 158.669Z" fill="#83E3DE"/>
<path d="M115.747 189.306V188.175C115.747 187.775 116.077 187.421 116.501 187.421C116.901 187.421 117.255 187.775 117.255 188.175V189.306C117.255 189.729 116.901 190.059 116.501 190.059C116.077 190.059 115.747 189.729 115.747 189.306ZM114.24 193.451C114.24 192.65 114.664 191.92 115.37 191.496C116.054 191.095 116.925 191.095 117.631 191.496C118.314 191.92 118.762 192.65 118.762 193.451C118.762 194.275 118.314 195.005 117.631 195.429C116.925 195.829 116.054 195.829 115.37 195.429C114.664 195.005 114.24 194.275 114.24 193.451ZM110.472 193.451C110.472 193.05 110.801 192.697 111.225 192.697H112.356C112.756 192.697 113.11 193.05 113.11 193.451C113.11 193.875 112.756 194.204 112.356 194.204H111.225C110.801 194.204 110.472 193.875 110.472 193.451ZM120.646 192.697H121.777C122.177 192.697 122.53 193.05 122.53 193.451C122.53 193.875 122.177 194.204 121.777 194.204H120.646C120.222 194.204 119.892 193.875 119.892 193.451C119.892 193.05 120.222 192.697 120.646 192.697ZM116.501 199.48C116.077 199.48 115.747 199.15 115.747 198.726V197.596C115.747 197.195 116.077 196.842 116.501 196.842C116.901 196.842 117.255 197.195 117.255 197.596V198.726C117.255 199.15 116.901 199.48 116.501 199.48ZM112.191 197.761C111.885 197.478 111.885 196.983 112.191 196.701L112.945 195.947C113.227 195.641 113.722 195.641 114.004 195.947C114.311 196.23 114.311 196.724 114.004 197.007L113.251 197.761C112.968 198.067 112.474 198.067 112.191 197.761ZM118.974 189.918L119.728 189.164C120.01 188.858 120.505 188.858 120.787 189.164C121.094 189.447 121.094 189.941 120.787 190.224L120.034 190.978C119.751 191.284 119.257 191.284 118.974 190.978C118.668 190.695 118.668 190.201 118.974 189.918ZM120.787 197.761C120.505 198.067 120.01 198.067 119.728 197.761L118.974 197.007C118.668 196.724 118.668 196.23 118.974 195.947C119.257 195.641 119.751 195.641 120.034 195.947L120.787 196.701C121.094 196.983 121.094 197.478 120.787 197.761ZM112.945 190.978L112.191 190.224C111.885 189.941 111.885 189.447 112.191 189.164C112.474 188.858 112.968 188.858 113.251 189.164L114.004 189.918C114.311 190.201 114.311 190.695 114.004 190.978C113.722 191.284 113.227 191.284 112.945 190.978Z" fill="#FFD600"/>
<path d="M112.514 124.474C112.514 124.016 112.884 123.629 113.358 123.629H119.551C120.008 123.629 120.395 124.016 120.395 124.474V126.761C120.131 126.602 119.85 126.514 119.551 126.462C119.551 126.462 119.551 126.462 119.551 126.444V125.881C119.551 125.582 119.287 125.318 118.988 125.318H117.299C116.982 125.318 116.736 125.582 116.736 125.881V126.444H116.173V125.881C116.173 125.582 115.909 125.318 115.61 125.318H113.921C113.605 125.318 113.358 125.582 113.358 125.881V126.444C113.358 126.462 113.358 126.462 113.358 126.462C113.042 126.514 112.76 126.602 112.514 126.761V124.474ZM111.951 128.696C111.951 127.763 112.708 127.007 113.64 127.007H119.269C120.202 127.007 120.958 127.763 120.958 128.696V130.947C120.958 131.264 120.694 131.51 120.395 131.51C120.078 131.51 119.832 131.264 119.832 130.947V130.384H113.077V130.947C113.077 131.264 112.813 131.51 112.514 131.51C112.197 131.51 111.951 131.264 111.951 130.947V128.696Z" fill="white"/>
<path d="M159.389 188.254L157.146 190.113C157.007 189.882 156.931 189.606 156.931 189.329C156.931 188.515 157.576 187.854 158.39 187.854C158.774 187.854 159.128 188.008 159.389 188.254ZM160.863 195.72V195.735C160.08 195.735 159.373 195.474 158.79 195.044L158.252 195.582C158.067 195.781 157.745 195.781 157.561 195.582C157.361 195.397 157.361 195.075 157.561 194.89L158.098 194.353C157.668 193.769 157.422 193.062 157.422 192.279C157.422 190.389 158.959 188.838 160.863 188.838C162.753 188.838 164.305 190.389 164.305 192.279C164.305 193.062 164.044 193.769 163.613 194.353L164.151 194.89C164.351 195.075 164.351 195.397 164.151 195.582C163.967 195.781 163.644 195.781 163.46 195.582L162.922 195.044C162.338 195.474 161.632 195.72 160.863 195.72ZM164.566 190.113L162.338 188.254C162.599 188.008 162.937 187.854 163.321 187.854C164.136 187.854 164.796 188.515 164.796 189.329C164.796 189.606 164.704 189.882 164.566 190.113ZM161.232 190.681C161.232 190.481 161.063 190.312 160.863 190.312C160.648 190.312 160.495 190.481 160.495 190.681V192.279C160.495 192.386 160.526 192.478 160.602 192.54L161.34 193.277C161.478 193.431 161.708 193.431 161.862 193.277C162 193.139 162 192.909 161.862 192.77L161.232 192.14V190.681Z" fill="white"/>
</g>
<defs>
<filter id="filter0_dd_43889_10555" x="0.785156" y="0.18689" width="227.427" height="290.427" filterUnits="userSpaceOnUse" color-interpolation-filters="sRGB">
<feFlood flood-opacity="0" result="BackgroundImageFix"/>
<feColorMatrix in="SourceAlpha" type="matrix" values="0 0 0 0 0 0 0 0 0 0 0 0 0 0 0 0 0 0 127 0" result="hardAlpha"/>
<feOffset dx="-2" dy="15"/>
<feGaussianBlur stdDeviation="15"/>
<feComposite in2="hardAlpha" operator="out"/>
<feColorMatrix type="matrix" values="0 0 0 0 0 0 0 0 0 0 0 0 0 0 0 0 0 0 0.1 0"/>
<feBlend mode="normal" in2="BackgroundImageFix" result="effect1_dropShadow_43889_10555"/>
<feColorMatrix in="SourceAlpha" type="matrix" values="0 0 0 0 0 0 0 0 0 0 0 0 0 0 0 0 0 0 127 0" result="hardAlpha"/>
<feOffset dx="-2" dy="6"/>
<feGaussianBlur stdDeviation="6"/>
<feComposite in2="hardAlpha" operator="out"/>
<feColorMatrix type="matrix" values="0 0 0 0 0 0 0 0 0 0 0 0 0 0 0 0 0 0 0.01 0"/>
<feBlend mode="normal" in2="effect1_dropShadow_43889_10555" result="effect2_dropShadow_43889_10555"/>
<feBlend mode="normal" in="BackgroundImageFix" in2="effect2_dropShadow_43889_10555" result="BackgroundImageFix"/>
<feBlend mode="normal" in="SourceGraphic" in2="BackgroundImageFix" result="shape"/>
</filter>
<filter id="filter1_i_43889_10555" x="107.499" y="33.9994" width="18" height="19.4727" filterUnits="userSpaceOnUse" color-interpolation-filters="sRGB">
<feFlood flood-opacity="0" result="BackgroundImageFix"/>
<feBlend mode="normal" in="SourceGraphic" in2="BackgroundImageFix" result="shape"/>
<feColorMatrix in="SourceAlpha" type="matrix" values="0 0 0 0 0 0 0 0 0 0 0 0 0 0 0 0 0 0 127 0" result="hardAlpha"/>
<feOffset dy="2"/>
<feGaussianBlur stdDeviation="2"/>
<feComposite in2="hardAlpha" operator="arithmetic" k2="-1" k3="1"/>
<feColorMatrix type="matrix" values="0 0 0 0 0 0 0 0 0 0 0 0 0 0 0 0 0 0 0.2 0"/>
<feBlend mode="normal" in2="shape" result="effect1_innerShadow_43889_10555"/>
</filter>
<filter id="filter2_i_43889_10555" x="57.7852" y="116.187" width="117.427" height="117.427" filterUnits="userSpaceOnUse" color-interpolation-filters="sRGB">
<feFlood flood-opacity="0" result="BackgroundImageFix"/>
<feBlend mode="normal" in="SourceGraphic" in2="BackgroundImageFix" result="shape"/>
<feColorMatrix in="SourceAlpha" type="matrix" values="0 0 0 0 0 0 0 0 0 0 0 0 0 0 0 0 0 0 127 0" result="hardAlpha"/>
<feOffset/>
<feGaussianBlur stdDeviation="7.2"/>
<feComposite in2="hardAlpha" operator="arithmetic" k2="-1" k3="1"/>
<feColorMatrix type="matrix" values="0 0 0 0 0.0409722 0 0 0 0 0.0535416 0 0 0 0 0.166667 0 0 0 0.23 0"/>
<feBlend mode="normal" in2="shape" result="effect1_innerShadow_43889_10555"/>
</filter>
<filter id="filter3_d_43889_10555" x="90.9287" y="105.552" width="96.9199" height="112.746" filterUnits="userSpaceOnUse" color-interpolation-filters="sRGB">
<feFlood flood-opacity="0" result="BackgroundImageFix"/>
<feColorMatrix in="SourceAlpha" type="matrix" values="0 0 0 0 0 0 0 0 0 0 0 0 0 0 0 0 0 0 127 0" result="hardAlpha"/>
<feOffset dy="2"/>
<feGaussianBlur stdDeviation="7.5"/>
<feComposite in2="hardAlpha" operator="out"/>
<feColorMatrix type="matrix" values="0 0 0 0 0.279167 0 0 0 0 0.279167 0 0 0 0 0.279167 0 0 0 0.1 0"/>
<feBlend mode="normal" in2="BackgroundImageFix" result="effect1_dropShadow_43889_10555"/>
<feBlend mode="normal" in="SourceGraphic" in2="effect1_dropShadow_43889_10555" result="shape"/>
</filter>
<filter id="filter4_d_43889_10555" x="66.7148" y="127.115" width="99.5693" height="99.569" filterUnits="userSpaceOnUse" color-interpolation-filters="sRGB">
<feFlood flood-opacity="0" result="BackgroundImageFix"/>
<feColorMatrix in="SourceAlpha" type="matrix" values="0 0 0 0 0 0 0 0 0 0 0 0 0 0 0 0 0 0 127 0" result="hardAlpha"/>
<feOffset dy="2"/>
<feGaussianBlur stdDeviation="7.5"/>
<feComposite in2="hardAlpha" operator="out"/>
<feColorMatrix type="matrix" values="0 0 0 0 0 0 0 0 0 0 0 0 0 0 0 0 0 0 0.15 0"/>
<feBlend mode="normal" in2="BackgroundImageFix" result="effect1_dropShadow_43889_10555"/>
<feBlend mode="normal" in="SourceGraphic" in2="effect1_dropShadow_43889_10555" result="shape"/>
</filter>
<radialGradient id="paint0_radial_43889_10555" cx="0" cy="0" r="1" gradientUnits="userSpaceOnUse" gradientTransform="translate(116.499 130.4) rotate(90) scale(115.213 83.7134)">
<stop stop-color="#7B9EFD"/>
<stop offset="0.95195" stop-color="#7BBAFD" stop-opacity="0"/>
</radialGradient>
<linearGradient id="paint1_linear_43889_10555" x1="182.64" y1="-13.4543" x2="15.9608" y2="120.712" gradientUnits="userSpaceOnUse">
<stop stop-color="white" stop-opacity="0"/>
<stop offset="1" stop-color="white"/>
</linearGradient>
</defs>
</svg>
