<?xml version="1.0" encoding="iso-8859-1"?>
<!-- Generator: Adobe Illustrator 30.3.0, SVG Export Plug-In . SVG Version: 9.03 Build 0)  -->
<svg version="1.1" id="katman_1" xmlns="http://www.w3.org/2000/svg" xmlns:xlink="http://www.w3.org/1999/xlink" x="0px" y="0px"
	 viewBox="0 0 714.228 383.023" style="enable-background:new 0 0 714.228 383.023;" xml:space="preserve">
<path style="fill:none;stroke:#E2130A;stroke-width:2;stroke-miterlimit:10;" d="M673.268,359.473h-62.553l-2.139-92.804
	c-5.553-56.077-12.108-115.987-57-155.226c-65.584-57.32-159.453-24.373-211.13,34.688c22.538,21.804,41.022,50.865,47.645,81.882
	c29.428,137.822-169.773,160.874-159.49,9.612c1.736-25.527,11.993-49.617,22.438-72.474
	c-45.537-16.088-94.561-5.842-122.489,34.976c-31.62,46.213-25.663,105.893-27.189,159.353H38.807
	c0.205-46.806-3.047-92.972,10.058-138.504C79.211,115.517,184.511,63.593,285.7,110.871
	c34.436-38.589,75.925-70.943,126.721-84.839c78.845-21.573,151.356-1.568,203.904,60.875
	c61.174,72.695,56.565,182.924,56.942,272.572L673.268,359.473z M303.844,192.239c-17.908,3.466-33.099,101.278,6.355,102.196
	c22.947,0.535,25.112-33.728,23.487-49.994C332.569,233.256,317.21,189.648,303.844,192.239L303.844,192.239z"/>
</svg>
