<?xml version="1.0" encoding="iso-8859-1"?>
<!-- Generator: Adobe Illustrator 30.3.0, SVG Export Plug-In . SVG Version: 9.03 Build 0)  -->
<svg version="1.1" id="katman_1" xmlns="http://www.w3.org/2000/svg" xmlns:xlink="http://www.w3.org/1999/xlink" x="0px" y="0px"
	 viewBox="0 0 1287.318 608.863" style="enable-background:new 0 0 1287.318 608.863;" xml:space="preserve">
<path style="fill:#E2130A;" d="M1192.175,79.723c-3.183-3.438-7.787-4.771-12.316-3.568l-275.27,73.158
	c-4.44,1.18-7.756,4.546-8.869,9.003c-1.114,4.457,0.23,8.986,3.593,12.115l68.1,63.358l-10.11,66.489
	c-0.383,2.516,0.838,4.883,3.11,6.028c0.848,0.428,1.746,0.637,2.633,0.637c0.993,0,1.968-0.268,2.843-0.779
	c0.004-0.002,0.009-0.003,0.013-0.005l51.615-25.756l70.15,65.265c2.333,2.17,5.351,3.333,8.452,3.333
	c0.999,0,2.005-0.12,3.001-0.367c4.089-1.011,7.359-3.987,8.751-7.962l86.917-248.397
	C1196.335,87.853,1195.358,83.16,1192.175,79.723z M961.968,303.223c-0.728-0.367-1.439-1.197-1.252-2.426l9.757-64.163
	l29.514,27.459l-35.345,38.717C963.769,303.667,962.691,303.588,961.968,303.223z M972.044,233.381l171.041-109.812
	l-140.703,138.037L972.044,233.381z M973.03,298.743l29.485-32.298l12.303,11.446L973.03,298.743z M1191.529,91.136l-86.917,248.396
	c-1.004,2.871-3.367,5.022-6.32,5.752c-2.95,0.731-6.045-0.071-8.272-2.143l-85.106-79.18l152.565-149.675
	c0.632-0.62,0.693-1.617,0.141-2.309c-0.552-0.692-1.537-0.855-2.282-0.376L969.435,230.954l-67.769-63.05
	c-2.43-2.26-3.4-5.532-2.596-8.751c0.805-3.219,3.2-5.65,6.406-6.503l275.27-73.158c3.27-0.87,6.596,0.094,8.896,2.578
	C1191.941,84.551,1192.647,87.941,1191.529,91.136z"/>
<path style="fill:#E2130A;" d="M68.49,496.343c-0.206,0-0.414-0.037-0.618-0.115c-0.89-0.341-1.335-1.34-0.994-2.23
	c0.636-1.658,1.294-3.328,1.956-4.964c0.358-0.884,1.365-1.308,2.248-0.952c0.884,0.358,1.31,1.364,0.952,2.248
	c-0.654,1.616-1.304,3.266-1.932,4.904C69.839,495.921,69.184,496.343,68.49,496.343z M449.203,495.026
	c-0.036,0-0.072-0.001-0.108-0.003c-2.366-0.146-4.772-0.389-7.152-0.724c-0.944-0.133-1.602-1.005-1.469-1.949
	c0.132-0.945,1.002-1.601,1.949-1.469c2.291,0.321,4.608,0.556,6.885,0.697c0.952,0.058,1.676,0.878,1.617,1.829
	C450.868,494.321,450.108,495.026,449.203,495.026z M466.797,494.331c-0.847,0-1.586-0.623-1.707-1.486
	c-0.133-0.944,0.525-1.817,1.469-1.949c2.256-0.317,4.546-0.729,6.81-1.226c0.932-0.203,1.852,0.385,2.056,1.317
	c0.204,0.932-0.385,1.852-1.317,2.056c-2.349,0.515-4.727,0.942-7.069,1.272C466.958,494.325,466.876,494.331,466.797,494.331z
	 M425.035,490.294c-0.178,0-0.359-0.028-0.537-0.086c-2.232-0.73-4.498-1.551-6.732-2.439c-0.886-0.352-1.318-1.356-0.967-2.242
	c0.352-0.886,1.355-1.318,2.242-0.966c2.168,0.862,4.365,1.658,6.53,2.366c0.906,0.297,1.4,1.271,1.104,2.177
	C426.437,489.832,425.761,490.294,425.035,490.294z M490.541,487.789c-0.678,0-1.322-0.403-1.596-1.069
	c-0.364-0.881,0.057-1.89,0.938-2.253c2.113-0.871,4.245-1.83,6.334-2.851c0.856-0.416,1.89-0.063,2.309,0.794
	c0.418,0.857,0.063,1.89-0.794,2.308c-2.154,1.052-4.353,2.041-6.534,2.94C490.983,487.747,490.761,487.789,490.541,487.789z
	 M402.504,480.28c-0.285,0-0.574-0.071-0.841-0.22c-2.041-1.142-4.108-2.361-6.144-3.623c-0.81-0.502-1.06-1.567-0.557-2.377
	c0.502-0.81,1.566-1.059,2.377-0.557c1.992,1.236,4.014,2.428,6.01,3.545c0.832,0.465,1.129,1.517,0.664,2.349
	C403.696,479.961,403.109,480.28,402.504,480.28z M597.852,477.265c-0.952,0-1.724-0.771-1.726-1.723
	c-0.002-0.953,0.77-1.727,1.723-1.729c2.3-0.004,4.649-0.056,6.982-0.156c0.941-0.04,1.758,0.698,1.798,1.65
	c0.041,0.953-0.698,1.758-1.651,1.799c-2.38,0.102-4.777,0.156-7.124,0.16C597.853,477.265,597.853,477.265,597.852,477.265z
	 M580.249,476.32c-0.064,0-0.128-0.003-0.193-0.011c-1.401-0.156-2.821-0.334-4.219-0.53c-0.955-0.134-1.908-0.278-2.86-0.432
	c-0.941-0.152-1.58-1.039-1.427-1.98c0.152-0.941,1.038-1.581,1.98-1.427c0.927,0.15,1.855,0.291,2.786,0.421
	c1.367,0.192,2.753,0.366,4.121,0.518c0.948,0.105,1.631,0.959,1.525,1.906C581.865,475.667,581.117,476.32,580.249,476.32z
	 M512.2,476.01c-0.551,0-1.093-0.263-1.427-0.752c-0.538-0.787-0.335-1.862,0.452-2.399c1.895-1.294,3.794-2.667,5.643-4.081
	c0.757-0.579,1.841-0.435,2.42,0.323c0.579,0.757,0.435,1.841-0.323,2.42c-1.899,1.451-3.847,2.861-5.792,4.189
	C512.874,475.913,512.535,476.01,512.2,476.01z M622.463,475.513c-0.85,0-1.59-0.628-1.708-1.493
	c-0.129-0.945,0.533-1.815,1.477-1.944c2.271-0.31,4.598-0.666,6.918-1.061c0.943-0.156,1.832,0.474,1.991,1.413
	c0.16,0.94-0.473,1.831-1.412,1.991c-2.357,0.401-4.722,0.764-7.03,1.078C622.619,475.508,622.54,475.513,622.463,475.513z
	 M77.565,475.287c-0.252,0-0.507-0.056-0.749-0.172c-0.859-0.415-1.219-1.446-0.804-2.305c1.03-2.134,2.099-4.271,3.177-6.351
	c0.439-0.847,1.481-1.177,2.327-0.739c0.846,0.439,1.177,1.481,0.738,2.327c-1.063,2.052-2.117,4.159-3.133,6.264
	C78.823,474.928,78.207,475.287,77.565,475.287z M556.069,471.449c-0.162,0-0.326-0.023-0.49-0.071
	c-2.267-0.671-4.554-1.409-6.796-2.196c-0.9-0.316-1.373-1.301-1.057-2.2c0.316-0.899,1.301-1.373,2.2-1.058
	c2.188,0.768,4.419,1.489,6.632,2.143c0.914,0.27,1.436,1.231,1.166,2.145C557.502,470.962,556.814,471.449,556.069,471.449z
	 M646.705,470.848c-0.777,0-1.483-0.528-1.676-1.317c-0.227-0.927,0.341-1.861,1.267-2.087c2.216-0.542,4.501-1.131,6.791-1.751
	c0.92-0.25,1.868,0.294,2.117,1.215c0.249,0.92-0.294,1.868-1.215,2.117c-2.318,0.628-4.631,1.224-6.874,1.772
	C646.978,470.831,646.84,470.848,646.705,470.848z M381.91,466.683c-0.364,0-0.73-0.114-1.042-0.351
	c-1.847-1.401-3.731-2.878-5.598-4.389c-0.741-0.6-0.856-1.686-0.256-2.427c0.6-0.742,1.686-0.856,2.427-0.256
	c1.84,1.489,3.695,2.942,5.513,4.321c0.76,0.576,0.909,1.659,0.333,2.418C382.946,466.448,382.431,466.683,381.91,466.683z
	 M670.435,464.016c-0.727,0-1.402-0.462-1.641-1.19c-0.296-0.906,0.198-1.881,1.104-2.177c2.163-0.709,4.403-1.464,6.658-2.245
	c0.902-0.312,1.885,0.166,2.197,1.067s-0.165,1.884-1.066,2.196c-2.274,0.787-4.533,1.549-6.714,2.263
	C670.794,463.988,670.613,464.016,670.435,464.016z M533.106,462.435c-0.257,0-0.519-0.058-0.765-0.18
	c-2.125-1.052-4.251-2.171-6.32-3.324c-0.833-0.464-1.131-1.516-0.667-2.348c0.464-0.832,1.514-1.132,2.348-0.667
	c0.794,0.443,1.598,0.881,2.407,1.312c1.608-1.592,3.196-3.242,4.723-4.906c0.645-0.702,1.736-0.75,2.439-0.105
	c0.702,0.645,0.749,1.736,0.104,2.439c-1.313,1.431-2.67,2.852-4.046,4.235c0.181,0.09,0.362,0.181,0.543,0.27
	c0.855,0.423,1.204,1.459,0.781,2.313C534.352,462.082,533.741,462.435,533.106,462.435z M693.681,455.683
	c-0.693,0-1.347-0.42-1.611-1.106c-0.343-0.889,0.1-1.889,0.99-2.231c2.192-0.845,4.376-1.702,6.552-2.568
	c0.887-0.355,1.89,0.08,2.242,0.965c0.353,0.886-0.08,1.89-0.965,2.242c-2.188,0.87-4.384,1.732-6.587,2.581
	C694.097,455.645,693.887,455.683,693.681,455.683z M89.41,453.643c-0.31,0-0.624-0.083-0.908-0.259
	c-0.811-0.502-1.06-1.566-0.558-2.376c1.254-2.023,2.546-4.035,3.842-5.981c0.529-0.793,1.6-1.009,2.394-0.48
	c0.793,0.529,1.008,1.6,0.48,2.394c-1.275,1.914-2.547,3.895-3.781,5.886C90.552,453.353,89.988,453.643,89.41,453.643z
	 M363.018,450.784c-0.416,0-0.832-0.149-1.164-0.452c-1.658-1.514-3.356-3.088-5.192-4.812c-0.695-0.653-0.729-1.745-0.076-2.44
	c0.651-0.696,1.745-0.73,2.44-0.076c1.824,1.713,3.511,3.276,5.157,4.78c0.704,0.643,0.754,1.735,0.11,2.439
	C363.952,450.595,363.486,450.784,363.018,450.784z M512.011,449.646c-0.353,0-0.709-0.108-1.016-0.332
	c-1.917-1.398-3.822-2.861-5.664-4.349c-0.742-0.599-0.857-1.686-0.258-2.427c0.599-0.742,1.686-0.858,2.427-0.258
	c1.799,1.453,3.659,2.882,5.529,4.246c0.77,0.562,0.94,1.642,0.378,2.412C513.068,449.401,512.543,449.646,512.011,449.646z
	 M716.576,446.427c-0.675,0-1.315-0.398-1.592-1.06c-0.369-0.879,0.046-1.891,0.925-2.259c2.166-0.907,4.328-1.821,6.488-2.742
	c0.879-0.375,1.891,0.035,2.265,0.911c0.374,0.877-0.034,1.891-0.911,2.265c-2.166,0.924-4.336,1.84-6.508,2.751
	C717.025,446.383,716.799,446.427,716.576,446.427z M547.234,441.552c-0.351,0-0.705-0.106-1.01-0.328
	c-0.772-0.559-0.945-1.638-0.387-2.411c1.35-1.865,2.682-3.797,3.96-5.743c0.524-0.797,1.593-1.018,2.39-0.496
	c0.797,0.523,1.019,1.594,0.496,2.39c-1.306,1.989-2.669,3.965-4.049,5.873C548.297,441.304,547.769,441.552,547.234,441.552z
	 M739.248,436.639c-0.661,0-1.292-0.382-1.578-1.026c-0.387-0.871,0.005-1.891,0.876-2.279c2.145-0.954,4.288-1.915,6.427-2.882
	c0.87-0.394,1.891-0.007,2.284,0.861c0.393,0.869,0.007,1.891-0.861,2.284c-2.146,0.97-4.295,1.934-6.447,2.891
	C739.721,436.59,739.482,436.639,739.248,436.639z M345.097,433.795c-0.432,0-0.864-0.161-1.199-0.484
	c-1.692-1.632-3.384-3.264-5.08-4.889c-0.688-0.66-0.711-1.753-0.052-2.441c0.661-0.688,1.753-0.71,2.441-0.052
	c1.699,1.629,3.394,3.262,5.088,4.897c0.686,0.662,0.706,1.755,0.044,2.441C346,433.619,345.548,433.795,345.097,433.795z
	 M103.624,433.481c-0.379,0-0.761-0.124-1.079-0.38c-0.743-0.597-0.862-1.684-0.266-2.427c1.484-1.849,3.018-3.687,4.561-5.465
	c0.625-0.72,1.714-0.798,2.435-0.172c0.72,0.624,0.798,1.714,0.173,2.435c-1.514,1.745-3.019,3.55-4.476,5.364
	C104.63,433.26,104.13,433.481,103.624,433.481z M493.42,433.435c-0.453,0-0.906-0.178-1.245-0.53
	c-1.649-1.717-3.27-3.492-4.816-5.279c-0.624-0.721-0.546-1.811,0.175-2.435c0.721-0.624,1.811-0.547,2.435,0.175
	c1.508,1.741,3.088,3.473,4.696,5.147c0.661,0.687,0.639,1.78-0.049,2.44C494.282,433.275,493.851,433.435,493.42,433.435z
	 M761.701,426.36c-0.648,0-1.268-0.366-1.563-0.991c-0.406-0.863-0.037-1.891,0.826-2.297c2.124-1.001,4.246-2.008,6.364-3.021
	c0.86-0.412,1.891-0.048,2.302,0.812s0.048,1.891-0.812,2.302c-2.125,1.017-4.253,2.027-6.383,3.03
	C762.198,426.307,761.948,426.36,761.701,426.36z M560.076,420.491c-0.263,0-0.53-0.06-0.78-0.188c-0.85-0.431-1.19-1.47-0.758-2.32
	c1.047-2.063,2.063-4.18,3.021-6.292c0.393-0.868,1.415-1.253,2.285-0.859c0.868,0.394,1.253,1.417,0.859,2.285
	c-0.979,2.157-2.017,4.32-3.087,6.428C561.313,420.145,560.706,420.491,560.076,420.491z M327.134,416.848
	c-0.413,0-0.827-0.147-1.158-0.446c-1.791-1.621-3.558-3.188-5.252-4.659c-0.719-0.625-0.796-1.716-0.171-2.435
	c0.625-0.72,1.716-0.795,2.435-0.171c1.711,1.486,3.496,3.07,5.304,4.705c0.707,0.639,0.761,1.731,0.122,2.438
	C328.075,416.656,327.605,416.848,327.134,416.848z M783.925,415.596c-0.634,0-1.245-0.351-1.546-0.957
	c-0.425-0.854-0.078-1.89,0.776-2.315c2.102-1.046,4.201-2.099,6.296-3.159c0.85-0.43,1.89-0.09,2.32,0.761
	c0.43,0.851,0.089,1.889-0.762,2.319c-2.102,1.063-4.206,2.119-6.315,3.169C784.446,415.538,784.184,415.596,783.925,415.596z
	 M120.342,415.345c-0.459,0-0.918-0.183-1.258-0.543c-0.653-0.695-0.62-1.787,0.074-2.44c1.732-1.63,3.513-3.235,5.292-4.771
	c0.721-0.623,1.811-0.543,2.435,0.178c0.623,0.721,0.543,1.812-0.178,2.435c-1.742,1.504-3.486,3.077-5.183,4.673
	C121.191,415.19,120.766,415.345,120.342,415.345z M478.04,414.158c-0.563,0-1.115-0.275-1.446-0.782
	c-1.305-1.995-2.566-4.045-3.746-6.092c-0.477-0.826-0.193-1.881,0.633-2.358c0.825-0.476,1.881-0.193,2.358,0.633
	c1.149,1.991,2.375,3.986,3.645,5.928c0.522,0.797,0.298,1.867-0.5,2.389C478.692,414.067,478.364,414.158,478.04,414.158z
	 M805.91,404.352c-0.621,0-1.221-0.336-1.53-0.924c-0.443-0.844-0.118-1.887,0.726-2.331c2.079-1.092,4.154-2.19,6.225-3.295
	c0.843-0.449,1.888-0.129,2.336,0.711c0.448,0.841,0.13,1.887-0.711,2.336c-2.078,1.108-4.16,2.21-6.246,3.305
	C806.455,404.287,806.181,404.352,805.91,404.352z M308.166,401.05c-0.361,0-0.724-0.112-1.035-0.346
	c-1.895-1.422-3.801-2.799-5.665-4.094c-0.783-0.543-0.977-1.619-0.433-2.402c0.543-0.782,1.618-0.977,2.402-0.434
	c1.899,1.319,3.84,2.721,5.769,4.168c0.763,0.572,0.917,1.654,0.344,2.417C309.209,400.811,308.691,401.05,308.166,401.05z
	 M139.534,399.861c-0.55,0-1.091-0.262-1.425-0.751c-0.539-0.786-0.338-1.861,0.448-2.399c1.96-1.343,3.971-2.653,5.975-3.895
	c0.81-0.502,1.875-0.252,2.376,0.559c0.502,0.811,0.252,1.875-0.559,2.377c-1.959,1.213-3.924,2.494-5.841,3.808
	C140.21,399.763,139.871,399.861,139.534,399.861z M569.533,397.704c-0.179,0-0.36-0.028-0.539-0.087
	c-0.906-0.297-1.399-1.273-1.101-2.179c0.723-2.198,1.408-4.445,2.037-6.677c0.258-0.917,1.211-1.451,2.13-1.194
	c0.918,0.259,1.452,1.212,1.193,2.13c-0.643,2.28-1.342,4.574-2.08,6.819C570.934,397.243,570.259,397.704,569.533,397.704z
	 M827.646,392.63c-0.608,0-1.197-0.321-1.512-0.891c-0.461-0.834-0.16-1.885,0.674-2.347c2.055-1.137,4.105-2.28,6.152-3.43
	c0.83-0.469,1.884-0.172,2.35,0.659c0.467,0.832,0.172,1.884-0.659,2.351c-2.053,1.154-4.11,2.3-6.171,3.441
	C828.215,392.561,827.928,392.63,827.646,392.63z M466.648,392.293c-0.685,0-1.333-0.411-1.603-1.085
	c-0.883-2.208-1.714-4.466-2.47-6.713c-0.304-0.904,0.183-1.882,1.086-2.186c0.907-0.304,1.882,0.183,2.186,1.086
	c0.735,2.185,1.543,4.382,2.403,6.529c0.355,0.886-0.076,1.89-0.961,2.244C467.079,392.253,466.862,392.293,466.648,392.293z
	 M287.315,387.89c-0.257,0-0.518-0.058-0.764-0.18c-2.048-1.013-4.175-1.989-6.322-2.899c-0.878-0.373-1.287-1.386-0.915-2.263
	c0.373-0.877,1.385-1.286,2.263-0.915c2.208,0.937,4.396,1.941,6.504,2.984c0.855,0.423,1.205,1.458,0.782,2.312
	C288.563,387.537,287.951,387.89,287.315,387.89z M160.944,387.627c-0.65,0-1.272-0.369-1.566-0.997
	c-0.403-0.864-0.029-1.891,0.834-2.294c2.147-1.001,4.346-1.964,6.536-2.862c0.882-0.361,1.891,0.061,2.252,0.943
	c0.361,0.882-0.061,1.89-0.943,2.252c-2.14,0.877-4.288,1.817-6.385,2.796C161.437,387.574,161.188,387.627,160.944,387.627z
	 M849.119,380.437c-0.594,0-1.173-0.307-1.493-0.857c-0.48-0.824-0.202-1.881,0.622-2.361c2.029-1.182,4.055-2.37,6.077-3.564
	c0.82-0.485,1.88-0.212,2.364,0.609c0.485,0.821,0.212,1.879-0.609,2.364c-2.027,1.197-4.059,2.389-6.093,3.574
	C849.713,380.362,849.414,380.437,849.119,380.437z M264.257,379.151c-0.153,0-0.309-0.021-0.464-0.064
	c-2.22-0.618-4.494-1.19-6.76-1.703c-0.93-0.21-1.513-1.134-1.303-2.064c0.21-0.929,1.133-1.514,2.064-1.303
	c2.321,0.524,4.65,1.111,6.924,1.743c0.919,0.256,1.456,1.207,1.201,2.126C265.706,378.651,265.012,379.151,264.257,379.151z
	 M184.083,379.106c-0.757,0-1.452-0.502-1.663-1.268c-0.253-0.919,0.286-1.87,1.205-2.123c2.277-0.628,4.606-1.212,6.923-1.734
	c0.928-0.21,1.854,0.374,2.064,1.305c0.21,0.93-0.375,1.854-1.304,2.063c-2.264,0.51-4.539,1.08-6.764,1.694
	C184.389,379.086,184.235,379.106,184.083,379.106z M240.02,374.562c-0.061,0-0.122-0.003-0.183-0.01
	c-2.302-0.242-4.641-0.434-6.952-0.569c-0.952-0.056-1.678-0.872-1.623-1.824c0.056-0.952,0.876-1.666,1.824-1.623
	c2.365,0.138,4.757,0.334,7.112,0.582c0.948,0.1,1.636,0.949,1.536,1.898C241.641,373.904,240.892,374.562,240.02,374.562z
	 M208.32,374.54c-0.873,0-1.623-0.66-1.715-1.548c-0.099-0.949,0.59-1.797,1.538-1.896c2.357-0.245,4.75-0.438,7.113-0.573
	c0.952-0.049,1.768,0.673,1.822,1.625c0.054,0.952-0.673,1.767-1.625,1.822c-2.309,0.132-4.648,0.32-6.952,0.56
	C208.44,374.537,208.38,374.54,208.32,374.54z M575.461,373.755c-0.096,0-0.193-0.008-0.291-0.025
	c-0.94-0.159-1.573-1.05-1.414-1.99c0.387-2.283,0.729-4.606,1.018-6.907c0.119-0.946,0.984-1.612,1.927-1.497
	c0.946,0.119,1.617,0.982,1.498,1.928c-0.295,2.349-0.644,4.722-1.039,7.053C577.018,373.158,576.287,373.755,575.461,373.755z
	 M459.749,368.619c-0.813,0-1.537-0.577-1.694-1.405c-0.442-2.331-0.827-4.705-1.142-7.055c-0.126-0.945,0.537-1.814,1.481-1.941
	c0.95-0.122,1.814,0.537,1.941,1.481c0.307,2.289,0.682,4.602,1.112,6.872c0.178,0.937-0.438,1.84-1.374,2.017
	C459.964,368.609,459.856,368.619,459.749,368.619z M870.32,367.776c-0.581,0-1.149-0.293-1.474-0.825
	c-0.498-0.814-0.242-1.876,0.571-2.374c2.003-1.226,4.001-2.458,5.996-3.696c0.81-0.502,1.874-0.253,2.377,0.556
	s0.254,1.874-0.556,2.377c-2,1.242-4.005,2.478-6.014,3.708C870.938,367.694,870.627,367.776,870.32,367.776z M891.238,354.653
	c-0.568,0-1.124-0.28-1.454-0.793c-0.516-0.802-0.283-1.87,0.519-2.385c1.976-1.27,3.946-2.545,5.914-3.828
	c0.797-0.52,1.868-0.295,2.389,0.504c0.52,0.798,0.295,1.868-0.504,2.389c-1.973,1.286-3.95,2.566-5.932,3.839
	C891.881,354.565,891.558,354.653,891.238,354.653z M577.737,349.188c-0.01,0-0.02,0-0.03-0.001
	c-0.953-0.016-1.713-0.802-1.696-1.755c0.016-0.905,0.024-1.812,0.024-2.717c0-1.414-0.019-2.848-0.057-4.261
	c-0.025-0.953,0.727-1.746,1.68-1.772c0.969-0.042,1.746,0.727,1.772,1.68c0.038,1.444,0.058,2.908,0.058,4.353
	c0,0.926-0.008,1.852-0.024,2.777C579.447,348.434,578.677,349.188,577.737,349.188z M457.45,344.067
	C457.45,344.067,457.45,344.067,457.45,344.067c-0.954,0-1.726-0.773-1.726-1.727c0.001-2.372,0.065-4.775,0.191-7.144
	c0.051-0.952,0.878-1.682,1.816-1.632c0.952,0.051,1.682,0.864,1.632,1.816c-0.123,2.307-0.186,4.649-0.187,6.96
	C459.176,343.295,458.403,344.067,457.45,344.067z M911.861,341.072c-0.555,0-1.1-0.266-1.433-0.761
	c-0.533-0.791-0.324-1.863,0.466-2.397c1.947-1.313,3.889-2.631,5.827-3.957c0.788-0.537,1.862-0.335,2.399,0.451
	c0.538,0.787,0.337,1.861-0.451,2.399c-1.944,1.329-3.892,2.652-5.845,3.969C912.528,340.976,912.193,341.072,911.861,341.072z
	 M932.179,327.037c-0.542,0-1.075-0.254-1.411-0.729c-0.551-0.779-0.366-1.856,0.413-2.406c1.917-1.356,3.829-2.718,5.737-4.086
	c0.775-0.555,1.854-0.378,2.409,0.397c0.555,0.775,0.378,1.853-0.397,2.409c-1.914,1.372-3.833,2.738-5.756,4.098
	C932.871,326.934,932.523,327.037,932.179,327.037z M576.259,324.562c-0.848,0-1.588-0.625-1.708-1.489
	c-0.32-2.304-0.694-4.621-1.113-6.889c-0.173-0.937,0.446-1.837,1.384-2.011c0.931-0.175,1.837,0.446,2.011,1.384
	c0.428,2.317,0.811,4.686,1.138,7.041c0.131,0.944-0.528,1.816-1.473,1.947C576.418,324.557,576.338,324.562,576.259,324.562z
	 M459.756,319.516c-0.107,0-0.215-0.01-0.324-0.031c-0.937-0.178-1.552-1.081-1.374-2.017c0.442-2.335,0.954-4.685,1.52-6.984
	c0.228-0.925,1.161-1.494,2.089-1.264c0.925,0.228,1.491,1.163,1.263,2.089c-0.552,2.239-1.05,4.528-1.481,6.801
	C461.293,318.939,460.568,319.516,459.756,319.516z M570.942,300.473c-0.738,0-1.421-0.477-1.649-1.219
	c-0.684-2.223-1.426-4.449-2.206-6.616c-0.323-0.897,0.143-1.886,1.04-2.209c0.896-0.321,1.886,0.143,2.209,1.04
	c0.798,2.218,1.557,4.496,2.257,6.77c0.28,0.911-0.231,1.877-1.142,2.157C571.28,300.448,571.11,300.473,570.942,300.473z
	 M466.628,295.838c-0.212,0-0.429-0.039-0.638-0.123c-0.886-0.353-1.318-1.356-0.965-2.243c0.88-2.209,1.832-4.418,2.832-6.566
	c0.402-0.865,1.427-1.239,2.293-0.838c0.864,0.402,1.239,1.429,0.837,2.293c-0.972,2.09-1.899,4.239-2.755,6.388
	C467.963,295.426,467.314,295.838,466.628,295.838z M561.642,277.634c-0.614,0-1.208-0.328-1.521-0.906
	c-1.118-2.068-2.303-4.072-3.524-5.954c-0.519-0.8-0.291-1.869,0.509-2.388c0.801-0.518,1.87-0.291,2.388,0.509
	c1.271,1.959,2.504,4.043,3.666,6.192c0.453,0.839,0.14,1.886-0.698,2.339C562.2,277.567,561.919,277.634,561.642,277.634z
	 M478.067,274.009c-0.339,0-0.681-0.1-0.981-0.307c-0.784-0.543-0.979-1.618-0.436-2.402c1.374-1.985,2.835-3.918,4.341-5.744
	c0.606-0.736,1.694-0.841,2.43-0.233c0.735,0.607,0.84,1.694,0.233,2.43c-1.445,1.752-2.847,3.607-4.167,5.513
	C479.153,273.749,478.615,274.009,478.067,274.009z M546.727,258.095c-0.409,0-0.82-0.144-1.149-0.439
	c-1.737-1.551-3.546-2.949-5.377-4.156c-0.796-0.525-1.016-1.595-0.491-2.391c0.525-0.796,1.596-1.016,2.392-0.491
	c1.97,1.299,3.914,2.801,5.776,4.463c0.711,0.635,0.773,1.726,0.138,2.437C547.675,257.901,547.202,258.095,546.727,258.095z
	 M495.063,256.235c-0.534,0-1.061-0.247-1.399-0.712c-0.56-0.772-0.389-1.851,0.383-2.411c2.012-1.46,4.082-2.769,6.152-3.891
	c0.838-0.454,1.886-0.143,2.34,0.695c0.454,0.838,0.143,1.886-0.696,2.34c-1.938,1.05-3.879,2.278-5.768,3.65
	C495.77,256.128,495.414,256.235,495.063,256.235z M524.813,247.6c-0.073,0-0.146-0.005-0.219-0.014
	c-0.164-0.021-0.33-0.04-0.496-0.059c-2.059-0.23-4.148-0.274-6.21-0.132c-0.952,0.06-1.775-0.652-1.841-1.604
	c-0.065-0.951,0.653-1.775,1.604-1.841c2.269-0.156,4.568-0.106,6.829,0.146c0.183,0.02,0.365,0.042,0.547,0.065
	c0.946,0.12,1.615,0.984,1.496,1.929C526.413,246.963,525.67,247.6,524.813,247.6z"/>
</svg>
