<svg width="65" height="18" viewBox="0 0 65 18" fill="none" xmlns="http://www.w3.org/2000/svg">
<path d="M3.07617 16.2207C2.97526 16.1458 2.91341 16.0449 2.89062 15.918C2.87109 15.791 2.89225 15.6396 2.9541 15.4639L3.97461 12.4268L1.36719 10.5518C1.21419 10.4443 1.1084 10.3337 1.0498 10.2197C0.991211 10.1058 0.981445 9.98861 1.02051 9.86816C1.05957 9.75098 1.13607 9.66471 1.25 9.60938C1.36393 9.55078 1.5153 9.52148 1.7041 9.52148H4.90234L5.87402 6.48926C5.93262 6.31022 6.00586 6.17513 6.09375 6.08398C6.1849 5.99284 6.29232 5.94727 6.41602 5.94727C6.54297 5.94727 6.65039 5.99284 6.73828 6.08398C6.82943 6.17513 6.9043 6.31022 6.96289 6.48926L7.93457 9.52148H11.1328C11.3216 9.52148 11.473 9.55078 11.5869 9.60938C11.7008 9.66471 11.7773 9.75098 11.8164 9.86816C11.8555 9.98861 11.8457 10.1058 11.7871 10.2197C11.7285 10.3337 11.6227 10.4443 11.4697 10.5518L8.8623 12.4268L9.88281 15.4639C9.94466 15.6396 9.96419 15.791 9.94141 15.918C9.92188 16.0449 9.86165 16.1458 9.76074 16.2207C9.65983 16.2988 9.5459 16.3249 9.41895 16.2988C9.29199 16.276 9.15365 16.2109 9.00391 16.1035L6.41602 14.2041L3.83301 16.1035C3.68327 16.2109 3.54492 16.276 3.41797 16.2988C3.29102 16.3249 3.17708 16.2988 3.07617 16.2207Z" fill="#FFCC00"/>
<path d="M16.0762 16.2207C15.9753 16.1458 15.9134 16.0449 15.8906 15.918C15.8711 15.791 15.8923 15.6396 15.9541 15.4639L16.9746 12.4268L14.3672 10.5518C14.2142 10.4443 14.1084 10.3337 14.0498 10.2197C13.9912 10.1058 13.9814 9.98861 14.0205 9.86816C14.0596 9.75098 14.1361 9.66471 14.25 9.60938C14.3639 9.55078 14.5153 9.52148 14.7041 9.52148H17.9023L18.874 6.48926C18.9326 6.31022 19.0059 6.17513 19.0938 6.08398C19.1849 5.99284 19.2923 5.94727 19.416 5.94727C19.543 5.94727 19.6504 5.99284 19.7383 6.08398C19.8294 6.17513 19.9043 6.31022 19.9629 6.48926L20.9346 9.52148H24.1328C24.3216 9.52148 24.473 9.55078 24.5869 9.60938C24.7008 9.66471 24.7773 9.75098 24.8164 9.86816C24.8555 9.98861 24.8457 10.1058 24.7871 10.2197C24.7285 10.3337 24.6227 10.4443 24.4697 10.5518L21.8623 12.4268L22.8828 15.4639C22.9447 15.6396 22.9642 15.791 22.9414 15.918C22.9219 16.0449 22.8617 16.1458 22.7607 16.2207C22.6598 16.2988 22.5459 16.3249 22.4189 16.2988C22.292 16.276 22.1536 16.2109 22.0039 16.1035L19.416 14.2041L16.833 16.1035C16.6833 16.2109 16.5449 16.276 16.418 16.2988C16.291 16.3249 16.1771 16.2988 16.0762 16.2207Z" fill="#FFCC00"/>
<path d="M29.0762 16.2207C28.9753 16.1458 28.9134 16.0449 28.8906 15.918C28.8711 15.791 28.8923 15.6396 28.9541 15.4639L29.9746 12.4268L27.3672 10.5518C27.2142 10.4443 27.1084 10.3337 27.0498 10.2197C26.9912 10.1058 26.9814 9.98861 27.0205 9.86816C27.0596 9.75098 27.1361 9.66471 27.25 9.60938C27.3639 9.55078 27.5153 9.52148 27.7041 9.52148H30.9023L31.874 6.48926C31.9326 6.31022 32.0059 6.17513 32.0938 6.08398C32.1849 5.99284 32.2923 5.94727 32.416 5.94727C32.543 5.94727 32.6504 5.99284 32.7383 6.08398C32.8294 6.17513 32.9043 6.31022 32.9629 6.48926L33.9346 9.52148H37.1328C37.3216 9.52148 37.473 9.55078 37.5869 9.60938C37.7008 9.66471 37.7773 9.75098 37.8164 9.86816C37.8555 9.98861 37.8457 10.1058 37.7871 10.2197C37.7285 10.3337 37.6227 10.4443 37.4697 10.5518L34.8623 12.4268L35.8828 15.4639C35.9447 15.6396 35.9642 15.791 35.9414 15.918C35.9219 16.0449 35.8617 16.1458 35.7607 16.2207C35.6598 16.2988 35.5459 16.3249 35.4189 16.2988C35.292 16.276 35.1536 16.2109 35.0039 16.1035L32.416 14.2041L29.833 16.1035C29.6833 16.2109 29.5449 16.276 29.418 16.2988C29.291 16.3249 29.1771 16.2988 29.0762 16.2207Z" fill="#FFCC00"/>
<path d="M42.0762 16.2207C41.9753 16.1458 41.9134 16.0449 41.8906 15.918C41.8711 15.791 41.8923 15.6396 41.9541 15.4639L42.9746 12.4268L40.3672 10.5518C40.2142 10.4443 40.1084 10.3337 40.0498 10.2197C39.9912 10.1058 39.9814 9.98861 40.0205 9.86816C40.0596 9.75098 40.1361 9.66471 40.25 9.60938C40.3639 9.55078 40.5153 9.52148 40.7041 9.52148H43.9023L44.874 6.48926C44.9326 6.31022 45.0059 6.17513 45.0938 6.08398C45.1849 5.99284 45.2923 5.94727 45.416 5.94727C45.543 5.94727 45.6504 5.99284 45.7383 6.08398C45.8294 6.17513 45.9043 6.31022 45.9629 6.48926L46.9346 9.52148H50.1328C50.3216 9.52148 50.473 9.55078 50.5869 9.60938C50.7008 9.66471 50.7773 9.75098 50.8164 9.86816C50.8555 9.98861 50.8457 10.1058 50.7871 10.2197C50.7285 10.3337 50.6227 10.4443 50.4697 10.5518L47.8623 12.4268L48.8828 15.4639C48.9447 15.6396 48.9642 15.791 48.9414 15.918C48.9219 16.0449 48.8617 16.1458 48.7607 16.2207C48.6598 16.2988 48.5459 16.3249 48.4189 16.2988C48.292 16.276 48.1536 16.2109 48.0039 16.1035L45.416 14.2041L42.833 16.1035C42.6833 16.2109 42.5449 16.276 42.418 16.2988C42.291 16.3249 42.1771 16.2988 42.0762 16.2207Z" fill="#FFCC00"/>
<path d="M55.0762 16.2207C54.9753 16.1458 54.9134 16.0449 54.8906 15.918C54.8711 15.791 54.8923 15.6396 54.9541 15.4639L55.9746 12.4268L53.3672 10.5518C53.2142 10.4443 53.1084 10.3337 53.0498 10.2197C52.9912 10.1058 52.9814 9.98861 53.0205 9.86816C53.0596 9.75098 53.1361 9.66309 53.25 9.60449C53.3639 9.5459 53.5153 9.51823 53.7041 9.52148L56.9023 9.54102L57.874 6.48926C57.9326 6.31022 58.0059 6.17513 58.0938 6.08398C58.1849 5.99284 58.2923 5.94727 58.416 5.94727C58.543 5.94727 58.6504 5.99284 58.7383 6.08398C58.8294 6.17513 58.9043 6.31022 58.9629 6.48926L59.9346 9.54102L63.1328 9.52148C63.3216 9.51823 63.473 9.5459 63.5869 9.60449C63.7008 9.66309 63.7773 9.75098 63.8164 9.86816C63.8555 9.98861 63.8457 10.1058 63.7871 10.2197C63.7285 10.3337 63.6227 10.4443 63.4697 10.5518L60.8623 12.4268L61.8828 15.4639C61.9447 15.6396 61.9642 15.791 61.9414 15.918C61.9219 16.0449 61.8617 16.1458 61.7607 16.2207C61.6598 16.2988 61.5459 16.3249 61.4189 16.2988C61.292 16.276 61.1536 16.2109 61.0039 16.1035L58.416 14.2041L55.833 16.1035C55.6833 16.2109 55.5449 16.276 55.418 16.2988C55.291 16.3249 55.1771 16.2988 55.0762 16.2207Z" fill="#AEAEB2"/>
<g clip-path="url(#clip0_2243_2999)">
<path d="M55.0762 16.2207C54.9753 16.1458 54.9134 16.0449 54.8906 15.918C54.8711 15.791 54.8923 15.6396 54.9541 15.4639L55.9746 12.4268L53.3672 10.5518C53.2142 10.4443 53.1084 10.3337 53.0498 10.2197C52.9912 10.1058 52.9814 9.98861 53.0205 9.86816C53.0596 9.75098 53.1361 9.66471 53.25 9.60938C53.3639 9.55078 53.5153 9.52148 53.7041 9.52148H56.9023L57.874 6.48926C57.9326 6.31022 58.0059 6.17513 58.0938 6.08398C58.1849 5.99284 58.2923 5.94727 58.416 5.94727C58.543 5.94727 58.6504 5.99284 58.7383 6.08398C58.8294 6.17513 58.9043 6.31022 58.9629 6.48926L59.9346 9.52148H63.1328C63.3216 9.52148 63.473 9.55078 63.5869 9.60938C63.7008 9.66471 63.7773 9.75098 63.8164 9.86816C63.8555 9.98861 63.8457 10.1058 63.7871 10.2197C63.7285 10.3337 63.6227 10.4443 63.4697 10.5518L60.8623 12.4268L61.8828 15.4639C61.9447 15.6396 61.9642 15.791 61.9414 15.918C61.9219 16.0449 61.8617 16.1458 61.7607 16.2207C61.6598 16.2988 61.5459 16.3249 61.4189 16.2988C61.292 16.276 61.1536 16.2109 61.0039 16.1035L58.416 14.2041L55.833 16.1035C55.6833 16.2109 55.5449 16.276 55.418 16.2988C55.291 16.3249 55.1771 16.2988 55.0762 16.2207Z" fill="#FFCC00"/>
</g>
<defs>
<clipPath id="clip0_2243_2999">
<rect width="10" height="18" fill="white" transform="translate(52)"/>
</clipPath>
</defs>
</svg>
