<svg width="105" height="105" viewBox="0 0 105 105" fill="none" xmlns="http://www.w3.org/2000/svg">
<g filter="url(#filter0_d_43888_10322)">
<rect x="18.8477" y="8.6842" width="67.82" height="67.82" rx="17" fill="white" shape-rendering="crispEdges"/>
<rect x="18.8477" y="8.6842" width="67.82" height="67.82" rx="17" fill="url(#paint0_radial_43888_10322)" fill-opacity="0.1" shape-rendering="crispEdges"/>
<rect x="19.5977" y="9.4342" width="66.32" height="66.32" rx="16.25" stroke="white" stroke-width="1.5" shape-rendering="crispEdges"/>
<g opacity="0.35" filter="url(#filter1_f_43888_10322)">
<path d="M55.0872 50.0784C55.0872 48.9777 55.9864 48.0631 57.1025 48.0631L65.6444 48.0633C66.7451 48.0634 67.6442 48.9781 67.6442 50.0788C67.6442 51.195 66.745 52.0941 65.6443 52.0941L57.1024 52.0938C55.9862 52.0938 55.0871 51.1946 55.0872 50.0784Z" fill="#F46C41"/>
<path d="M54.2362 42.8848L45.663 55.721C45.0118 56.6976 44.4537 57.0387 43.5391 57.0387C42.3919 57.0386 41.3067 56.31 41.3068 55.1007C41.3068 54.4341 41.5238 54.0155 41.8339 53.5505L50.0661 41.3654L58.3138 28.9633C58.9804 27.9712 59.523 27.5681 60.6237 27.5681C61.8019 27.5682 62.732 28.4053 62.732 29.5681C62.732 30.0952 62.5149 30.5602 62.1893 31.0718L54.2362 42.8848Z" fill="#E3E4E7"/>
<path d="M36.5778 35.5053C36.5778 34.3891 37.477 33.49 38.5932 33.49L40.8565 33.4901L40.8566 31.2266C40.8566 30.1104 41.7558 29.2113 42.872 29.2113C43.9727 29.2113 44.8718 30.1105 44.8718 31.2267L44.8717 33.4902L47.1196 33.4902C48.2358 33.4903 49.1349 34.3894 49.1348 35.5057C49.1348 36.6064 48.2356 37.5055 47.1195 37.5055L44.8716 37.5054L44.8715 39.7533C44.8715 40.8695 43.9723 41.7687 42.8717 41.7687C41.7555 41.7841 40.8563 40.8694 40.8564 39.7532L40.8564 37.5053L38.5931 37.5052C37.4769 37.5052 36.5778 36.606 36.5778 35.5053Z" fill="#7F8EDE"/>
</g>
<g filter="url(#filter2_i_43888_10322)">
<path d="M55.0852 50.0786C55.0852 48.9779 55.9844 48.0632 57.1006 48.0633L65.6425 48.0635C66.7432 48.0635 67.6423 48.9782 67.6422 50.0789C67.6422 51.1952 66.743 52.0943 65.6424 52.0943L57.1005 52.094C55.9843 52.094 55.0852 51.1948 55.0852 50.0786Z" fill="#F46C41"/>
<path d="M54.2333 42.8852L45.66 55.7214C45.0089 56.6981 44.4508 57.0391 43.5362 57.0391C42.389 57.0391 41.3038 56.3104 41.3038 55.1012C41.3039 54.4345 41.5209 54.016 41.831 53.5509L50.0632 41.3658L58.3108 28.9638C58.9775 27.9716 59.5201 27.5685 60.6208 27.5686C61.7989 27.5686 62.7291 28.4058 62.729 29.5685C62.729 30.0956 62.512 30.5607 62.1864 31.0723L54.2333 42.8852Z" fill="#E3E4E7"/>
<path d="M36.5749 35.5055C36.5749 34.3893 37.4741 33.4901 38.5902 33.4902L40.8536 33.4902L40.8537 31.2268C40.8537 30.1106 41.7529 29.2115 42.8691 29.2115C43.9697 29.2115 44.8689 30.1107 44.8688 31.2269L44.8688 33.4903L47.1166 33.4904C48.2328 33.4904 49.1319 34.3896 49.1319 35.5058C49.1319 36.6065 48.2327 37.5057 47.1165 37.5057L44.8687 37.5056L44.8686 39.7535C44.8686 40.8697 43.9694 41.7689 42.8687 41.7688C41.7525 41.7843 40.8534 40.8696 40.8534 39.7534L40.8535 37.5055L38.5901 37.5054C37.474 37.5054 36.5748 36.6062 36.5749 35.5055Z" fill="#7F8EDE"/>
</g>
</g>
<defs>
<filter id="filter0_d_43888_10322" x="0.847656" y="0.684204" width="103.82" height="103.82" filterUnits="userSpaceOnUse" color-interpolation-filters="sRGB">
<feFlood flood-opacity="0" result="BackgroundImageFix"/>
<feColorMatrix in="SourceAlpha" type="matrix" values="0 0 0 0 0 0 0 0 0 0 0 0 0 0 0 0 0 0 127 0" result="hardAlpha"/>
<feOffset dy="10"/>
<feGaussianBlur stdDeviation="9"/>
<feComposite in2="hardAlpha" operator="out"/>
<feColorMatrix type="matrix" values="0 0 0 0 0 0 0 0 0 0 0 0 0 0 0 0 0 0 0.12 0"/>
<feBlend mode="normal" in2="BackgroundImageFix" result="effect1_dropShadow_43888_10322"/>
<feBlend mode="normal" in="BackgroundImageFix" in2="effect1_dropShadow_43888_10322" result="BackgroundImageFix"/>
<feBlend mode="normal" in="SourceGraphic" in2="BackgroundImageFix" result="shape"/>
</filter>
<filter id="filter1_f_43888_10322" x="28.5781" y="19.5681" width="47.0664" height="45.4706" filterUnits="userSpaceOnUse" color-interpolation-filters="sRGB">
<feFlood flood-opacity="0" result="BackgroundImageFix"/>
<feBlend mode="normal" in="SourceGraphic" in2="BackgroundImageFix" result="shape"/>
<feGaussianBlur stdDeviation="4" result="effect1_foregroundBlur_43888_10322"/>
</filter>
<filter id="filter2_i_43888_10322" x="36.5752" y="27.5685" width="31.0674" height="30.4706" filterUnits="userSpaceOnUse" color-interpolation-filters="sRGB">
<feFlood flood-opacity="0" result="BackgroundImageFix"/>
<feBlend mode="normal" in="SourceGraphic" in2="BackgroundImageFix" result="shape"/>
<feColorMatrix in="SourceAlpha" type="matrix" values="0 0 0 0 0 0 0 0 0 0 0 0 0 0 0 0 0 0 127 0" result="hardAlpha"/>
<feOffset dy="1"/>
<feGaussianBlur stdDeviation="1"/>
<feComposite in2="hardAlpha" operator="arithmetic" k2="-1" k3="1"/>
<feColorMatrix type="matrix" values="0 0 0 0 0 0 0 0 0 0 0 0 0 0 0 0 0 0 0.1 0"/>
<feBlend mode="normal" in2="shape" result="effect1_innerShadow_43888_10322"/>
</filter>
<radialGradient id="paint0_radial_43888_10322" cx="0" cy="0" r="1" gradientUnits="userSpaceOnUse" gradientTransform="translate(52.7577 42.5942) rotate(90) scale(33.91)">
<stop stop-color="#A48EFF"/>
<stop offset="0.95195" stop-color="#A29DFF" stop-opacity="0"/>
</radialGradient>
</defs>
</svg>
