<svg width="278" height="230" viewBox="0 0 278 230" fill="none" xmlns="http://www.w3.org/2000/svg">
<g filter="url(#filter0_dd_43882_9840)">
<rect x="28.5566" y="15.1045" width="216.902" height="169.69" rx="18" fill="white"/>
<rect x="28.5566" y="15.1045" width="216.902" height="169.69" rx="18" fill="url(#paint0_radial_43882_9840)" fill-opacity="0.06"/>
<rect x="29.3066" y="15.8545" width="215.402" height="168.19" rx="17.25" stroke="url(#paint1_linear_43882_9840)" stroke-width="1.5"/>
<g clip-path="url(#clip0_43882_9840)">
<path d="M44.75 39.8721C43.9883 39.1611 43.5566 38.1455 43.5566 37.0791L43.5566 36.9521C43.5566 35.1748 44.8262 33.6514 46.5781 33.3721C47.7461 33.1689 48.9141 33.5498 49.752 34.3623L50.0566 34.667L50.3613 34.3623C51.1738 33.5498 52.3672 33.1689 53.5098 33.3721C55.2617 33.6514 56.5566 35.1748 56.5566 36.9521L56.5566 37.0791C56.5566 38.1455 56.0996 39.1611 55.3379 39.8721L50.7422 44.1631C50.5645 44.3408 50.3105 44.417 50.0566 44.417C49.7773 44.417 49.5234 44.3408 49.3457 44.1631L44.75 39.8721Z" fill="#CACBCE"/>
<path d="M64.4316 44.251C63.8457 44.251 63.4868 43.8848 63.4868 43.2695V34.5171C63.4868 33.9019 63.8457 33.5356 64.4316 33.5356H67.6836C69.9687 33.5356 71.3384 34.8027 71.3384 36.8242C71.3384 38.2012 70.6353 39.3291 69.4121 39.8052L71.082 42.7349C71.2432 43.0059 71.2871 43.167 71.2871 43.3867C71.2871 43.8848 70.877 44.251 70.335 44.251C69.8882 44.251 69.6685 44.0898 69.3755 43.5698L67.4932 40.1274H65.3765V43.2695C65.3765 43.8848 65.0176 44.251 64.4316 44.251ZM65.3765 38.6772H67.5078C68.709 38.6772 69.4048 38.0107 69.4048 36.8682C69.4048 35.7549 68.665 35.0664 67.4712 35.0664H65.3765V38.6772ZM76.3845 44.2583C74.0114 44.2583 72.6125 42.7715 72.6125 40.252C72.6125 37.7764 74.0407 36.1797 76.2819 36.1797C78.406 36.1797 79.8562 37.6885 79.8562 39.7979C79.8562 40.3398 79.5485 40.6621 79.0065 40.6621H74.4289V40.7207C74.4289 42.0171 75.1833 42.8521 76.3698 42.8521C77.1901 42.8521 77.7248 42.5664 78.3107 41.8193C78.5012 41.6069 78.6696 41.5264 78.926 41.5264C79.3361 41.5264 79.6584 41.79 79.6584 42.2295C79.6584 42.3687 79.6145 42.5298 79.5339 42.6909C79.0212 43.6797 77.864 44.2583 76.3845 44.2583ZM74.4436 39.4609H78.069C78.0324 38.333 77.3146 37.5933 76.2893 37.5933C75.2639 37.5933 74.5168 38.3477 74.4436 39.4609ZM84.331 44.2583C82.6903 44.2583 81.5404 43.6284 81.1669 42.6982C81.1156 42.5664 81.0937 42.4492 81.0937 42.3394C81.0937 41.8999 81.4159 41.6216 81.8554 41.6216C82.1557 41.6216 82.412 41.7607 82.6464 42.0684C83.0565 42.6616 83.5253 42.9253 84.3969 42.9253C85.2465 42.9253 85.8104 42.5664 85.8104 41.9805C85.8104 41.5117 85.5175 41.2554 84.7191 41.0723L83.4594 40.7866C81.9433 40.4424 81.1962 39.6953 81.1962 38.5674C81.1962 37.1245 82.4413 36.1797 84.3603 36.1797C85.8544 36.1797 87.0116 36.9121 87.2533 37.8057C87.2753 37.9009 87.2899 37.9888 87.2899 38.0767C87.2899 38.4575 87.0482 38.7285 86.5868 38.7285C86.3231 38.7285 86.0595 38.6333 85.891 38.3916C85.5321 37.8569 85.0854 37.52 84.3163 37.52C83.518 37.52 82.9687 37.9082 82.9687 38.4648C82.9687 38.9189 83.3056 39.2266 84.1112 39.4097L85.349 39.6807C86.9896 40.0542 87.6415 40.6475 87.6415 41.7974C87.6415 43.2842 86.3085 44.2583 84.331 44.2583ZM89.5968 42.1855V37.7471H89.1061C88.652 37.7471 88.3736 37.4761 88.3736 37.0366C88.3736 36.6045 88.652 36.3408 89.1061 36.3408H89.5968V35.3081C89.5968 34.7222 89.9483 34.356 90.5123 34.356C91.0689 34.356 91.4205 34.7222 91.4205 35.3081V36.3408H92.2628C92.7169 36.3408 92.9952 36.6045 92.9952 37.0366C92.9952 37.4761 92.7169 37.7471 92.2628 37.7471H91.4205V41.79C91.4205 42.376 91.6256 42.6323 92.1529 42.6763L92.2848 42.6909C92.7682 42.7349 93.0172 42.9399 93.0172 43.3647C93.0172 43.8994 92.5484 44.1851 91.7135 44.1851H91.6402C90.2853 44.1851 89.5968 43.5112 89.5968 42.1855ZM95.3826 35.2495C94.8187 35.2495 94.3719 34.8101 94.3719 34.2607C94.3719 33.7041 94.8187 33.272 95.3826 33.272C95.9539 33.272 96.4007 33.7041 96.4007 34.2607C96.4007 34.8101 95.9539 35.2495 95.3826 35.2495ZM95.3826 44.251C94.826 44.251 94.4744 43.8848 94.4744 43.2915V37.1465C94.4744 36.5605 94.826 36.187 95.3826 36.187C95.9393 36.187 96.2981 36.5605 96.2981 37.1538V43.2915C96.2981 43.8848 95.9393 44.251 95.3826 44.251ZM99.0371 44.251C98.5024 44.251 98.1289 43.9067 98.1289 43.2915V37.1099C98.1289 36.5459 98.4585 36.187 99.0005 36.187C99.5352 36.187 99.9014 36.5459 99.9014 37.1099V37.6519H99.938C100.355 36.729 101.161 36.1943 102.355 36.1943C104.069 36.1943 105.043 37.293 105.043 39.0874V43.2915C105.043 43.9067 104.669 44.251 104.135 44.251C103.6 44.251 103.219 43.9067 103.219 43.2915V39.4536C103.219 38.355 102.707 37.7397 101.667 37.7397C100.619 37.7397 99.9526 38.4941 99.9526 39.6074V43.2915C99.9526 43.9067 99.5718 44.251 99.0371 44.251ZM110.155 47.0269C108.668 47.0195 107.526 46.4482 107.006 45.6133C106.896 45.4302 106.852 45.2544 106.852 45.064C106.852 44.6611 107.152 44.3608 107.613 44.3608C107.87 44.3608 108.053 44.4487 108.28 44.6685C108.888 45.2764 109.43 45.5693 110.17 45.5767C111.407 45.5913 112.147 44.8955 112.147 43.8628V42.625H112.111C111.708 43.46 110.792 44.0239 109.679 44.0239C107.731 44.0239 106.486 42.5151 106.486 40.1274C106.486 37.6958 107.716 36.209 109.716 36.209C110.821 36.209 111.678 36.7803 112.125 37.6592H112.154V37.1172C112.154 36.5166 112.55 36.187 113.07 36.187C113.597 36.187 113.978 36.5166 113.978 37.1172V43.8555C113.978 45.811 112.55 47.0415 110.155 47.0269ZM110.236 42.603C111.4 42.603 112.162 41.6582 112.162 40.1421C112.162 38.6333 111.4 37.6519 110.236 37.6519C109.086 37.6519 108.353 38.6187 108.353 40.1421C108.353 41.6802 109.086 42.603 110.236 42.603ZM120.196 44.229C119.61 44.229 119.251 43.8701 119.251 43.2476V34.3926C119.251 33.77 119.61 33.4111 120.196 33.4111C120.789 33.4111 121.141 33.77 121.141 34.3926V37.9302H126.282V34.3926C126.282 33.77 126.634 33.4111 127.22 33.4111C127.813 33.4111 128.165 33.77 128.165 34.3926V43.2476C128.165 43.8701 127.813 44.229 127.22 44.229C126.634 44.229 126.282 43.8701 126.282 43.2476V39.5195H121.141V43.2476C121.141 43.8701 120.789 44.229 120.196 44.229ZM131.277 44.251C130.691 44.251 130.332 43.8848 130.332 43.2695V34.5171C130.332 33.9019 130.691 33.5356 131.277 33.5356H134.529C136.814 33.5356 138.184 34.8027 138.184 36.8242C138.184 38.2012 137.481 39.3291 136.258 39.8052L137.928 42.7349C138.089 43.0059 138.133 43.167 138.133 43.3867C138.133 43.8848 137.722 44.251 137.18 44.251C136.734 44.251 136.514 44.0898 136.221 43.5698L134.339 40.1274H132.222V43.2695C132.222 43.8848 131.863 44.251 131.277 44.251ZM132.222 38.6772H134.353C135.554 38.6772 136.25 38.0107 136.25 36.8682C136.25 35.7549 135.511 35.0664 134.317 35.0664H132.222V38.6772Z" fill="#8B8C8F"/>
<path d="M51.3523 77.4443C48.7507 77.4443 46.5007 76.2021 45.6687 74.3623C45.5046 73.999 45.3991 73.6475 45.3991 73.2139C45.3991 72.4287 45.903 71.9365 46.6999 71.9365C47.3327 71.9365 47.7195 72.1826 48.0359 72.8037C48.6101 74.1748 49.7351 74.9834 51.364 74.9834C53.3679 74.9834 54.7859 73.5654 54.7859 71.5615C54.7859 69.6162 53.3679 68.2334 51.3757 68.2334C50.3093 68.2334 49.3835 68.667 48.739 69.2998C48.0359 70.0029 47.7429 70.1553 47.0515 70.1553C46.0788 70.1553 45.5984 69.4639 45.6218 68.6436C45.6218 68.5732 45.6218 68.5264 45.6335 68.4561L46.1726 62.0693C46.278 60.7334 46.9577 60.1943 48.282 60.1943H55.571C56.3445 60.1943 56.8484 60.6865 56.8484 61.4248C56.8484 62.1748 56.3445 62.667 55.571 62.667H48.739L48.2937 67.6709H48.3523C49.0671 66.6162 50.4616 65.96 52.1609 65.96C55.3952 65.96 57.7038 68.2451 57.7038 71.4795C57.7038 75.0186 55.1023 77.4443 51.3523 77.4443ZM61.6291 77.1045C60.6916 77.1045 60.1995 76.5889 60.1995 75.8271C60.1995 75.2412 60.3987 74.8896 61.0432 74.2803L66.2112 69.1592C68.3674 67.0264 68.9065 66.1709 68.9065 64.8818C68.9065 63.3701 67.7463 62.2803 66.1174 62.2803C64.594 62.2803 63.5276 63.0537 62.9299 64.5771C62.6252 65.1865 62.2737 65.5029 61.5823 65.5029C60.762 65.5029 60.2698 64.999 60.2698 64.249C60.2698 64.0264 60.3049 63.8154 60.3635 63.6162C60.8205 61.7881 62.8479 59.8545 66.1409 59.8545C69.5276 59.8545 71.8596 61.8584 71.8596 64.6943C71.8596 66.6748 70.9104 68.0107 68.1096 70.7529L64.2307 74.5732V74.6318H70.9807C71.7776 74.6318 72.2698 75.124 72.2698 75.874C72.2698 76.6123 71.7776 77.1045 70.9807 77.1045H61.6291ZM76.8513 77.2334C75.9021 77.2334 75.1638 76.4951 75.1638 75.5459C75.1638 74.6084 75.9021 73.8584 76.8513 73.8584C77.7888 73.8584 78.5271 74.6084 78.5271 75.5459C78.5271 76.4951 77.7888 77.2334 76.8513 77.2334ZM88.1126 77.4443C85.511 77.4443 83.261 76.2021 82.429 74.3623C82.2649 73.999 82.1595 73.6475 82.1595 73.2139C82.1595 72.4287 82.6634 71.9365 83.4602 71.9365C84.093 71.9365 84.4798 72.1826 84.7962 72.8037C85.3704 74.1748 86.4954 74.9834 88.1243 74.9834C90.1282 74.9834 91.5462 73.5654 91.5462 71.5615C91.5462 69.6162 90.1282 68.2334 88.136 68.2334C87.0696 68.2334 86.1438 68.667 85.4993 69.2998C84.7962 70.0029 84.5032 70.1553 83.8118 70.1553C82.8391 70.1553 82.3587 69.4639 82.3821 68.6436C82.3821 68.5732 82.3821 68.5264 82.3938 68.4561L82.9329 62.0693C83.0384 60.7334 83.718 60.1943 85.0423 60.1943H92.3313C93.1048 60.1943 93.6087 60.6865 93.6087 61.4248C93.6087 62.1748 93.1048 62.667 92.3313 62.667H85.4993L85.054 67.6709H85.1126C85.8274 66.6162 87.222 65.96 88.9212 65.96C92.1555 65.96 94.4641 68.2451 94.4641 71.4795C94.4641 75.0186 91.8626 77.4443 88.1126 77.4443Z" fill="#222326"/>
<path d="M99.4339 77.251C98.9065 77.251 98.5477 76.9287 98.5477 76.3354V67.3486C98.5477 66.7334 98.9285 66.3892 99.4632 66.3892C99.9979 66.3892 100.371 66.7334 100.371 67.3486V70.6738H100.415C100.862 69.7656 101.741 69.209 102.847 69.209C104.803 69.209 106.048 70.7397 106.048 73.2227C106.048 75.7056 104.81 77.229 102.84 77.229C101.704 77.229 100.833 76.6797 100.371 75.7788H100.335V76.3354C100.335 76.9214 99.9612 77.251 99.4339 77.251ZM102.283 75.7349C103.448 75.7349 104.18 74.7681 104.18 73.2227C104.18 71.6846 103.448 70.7104 102.283 70.7104C101.155 70.7104 100.364 71.7139 100.364 73.2227C100.364 74.7461 101.155 75.7349 102.283 75.7349ZM108.435 79.8657C107.9 79.8657 107.527 79.5215 107.527 78.9062V70.1245C107.527 69.5239 107.893 69.187 108.413 69.187C108.933 69.187 109.307 69.5239 109.307 70.1245V70.6812H109.343C109.783 69.7803 110.662 69.209 111.79 69.209C113.76 69.209 115.012 70.7397 115.012 73.2227C115.012 75.6982 113.767 77.229 111.819 77.229C110.691 77.229 109.812 76.687 109.387 75.8154H109.351V78.9062C109.351 79.5215 108.97 79.8657 108.435 79.8657ZM111.233 75.7349C112.412 75.7349 113.145 74.7607 113.145 73.2227C113.145 71.6919 112.412 70.7104 111.233 70.7104C110.098 70.7104 109.343 71.7139 109.336 73.2227C109.343 74.7461 110.098 75.7349 111.233 75.7349ZM117.392 77.251C116.843 77.251 116.484 76.8994 116.484 76.2915V70.1172C116.484 69.5239 116.843 69.187 117.356 69.187C117.868 69.187 118.235 69.5239 118.235 70.1172V70.6885H118.271C118.608 69.7876 119.428 69.1943 120.483 69.1943C121.582 69.1943 122.365 69.7583 122.651 70.7544H122.695C123.069 69.7949 123.991 69.1943 125.112 69.1943C126.643 69.1943 127.646 70.2271 127.646 71.7798V76.2915C127.646 76.8994 127.28 77.251 126.738 77.251C126.189 77.251 125.822 76.8994 125.822 76.2915V72.2266C125.822 71.2744 125.324 70.7324 124.431 70.7324C123.552 70.7324 122.951 71.377 122.951 72.3071V76.2915C122.951 76.8994 122.607 77.251 122.065 77.251C121.516 77.251 121.179 76.8994 121.179 76.2915V72.1313C121.179 71.2671 120.652 70.7324 119.802 70.7324C118.923 70.7324 118.308 71.4136 118.308 72.3511V76.2915C118.308 76.8994 117.934 77.251 117.392 77.251Z" fill="#8B8C8F"/>
<path d="M50.0566 99.2295C47.7207 99.2295 45.5879 98.0107 44.4199 95.9795C43.252 93.9736 43.252 91.5107 44.4199 89.4795C45.5879 87.4736 47.7207 86.2295 50.0566 86.2295C52.3672 86.2295 54.5 87.4736 55.668 89.4795C56.8359 91.5107 56.8359 93.9736 55.668 95.9795C54.5 98.0107 52.3672 99.2295 50.0566 99.2295ZM52.9258 91.5361H52.9004C53.1543 91.3076 53.1543 90.9268 52.9004 90.6729C52.6719 90.4443 52.291 90.4443 52.0625 90.6729L49.2441 93.5166L48.0508 92.3232C47.7969 92.0693 47.416 92.0693 47.1875 92.3232C46.9336 92.5518 46.9336 92.9326 47.1875 93.1611L48.8125 94.7861C49.041 95.04 49.4219 95.04 49.6758 94.7861L52.9258 91.5361Z" fill="#62C58C"/>
<path d="M64.4023 98.229C63.8311 98.229 63.4868 97.8774 63.4868 97.2769V88.3853C63.4868 87.7773 63.8604 87.4111 64.4683 87.4111C64.8857 87.4111 65.1421 87.5576 65.4497 87.9751L70.3716 94.9404H70.4375V88.3633C70.4375 87.7627 70.7817 87.4111 71.3457 87.4111C71.917 87.4111 72.2539 87.7627 72.2539 88.3633V97.2842C72.2539 97.8848 71.9097 98.229 71.2944 98.229C70.8623 98.229 70.6133 98.0898 70.313 97.665L65.3765 90.6924H65.3105V97.2769C65.3105 97.8774 64.9663 98.229 64.4023 98.229ZM77.6735 98.2583C75.3957 98.2583 73.9162 96.7422 73.9162 94.2227C73.9162 91.7178 75.4104 90.1797 77.6735 90.1797C79.9367 90.1797 81.4309 91.7104 81.4309 94.2227C81.4309 96.7422 79.9514 98.2583 77.6735 98.2583ZM77.6735 96.8154C78.8308 96.8154 79.5778 95.8779 79.5778 94.2227C79.5778 92.5747 78.8308 91.6299 77.6735 91.6299C76.5236 91.6299 75.7692 92.5747 75.7692 94.2227C75.7692 95.8779 76.5163 96.8154 77.6735 96.8154ZM83.8109 98.251C83.2616 98.251 82.9027 97.8921 82.9027 97.2915V91.1099C82.9027 90.5386 83.2543 90.187 83.7743 90.187C84.2797 90.187 84.6386 90.5386 84.6386 91.1099V91.7031H84.6752C84.8876 90.7949 85.5614 90.209 86.3378 90.209C86.6234 90.209 86.8432 90.2822 86.9823 90.4067C87.1508 90.5459 87.2387 90.7656 87.2387 91.0659C87.2387 91.3516 87.1508 91.564 86.9677 91.7104C86.7919 91.8643 86.5209 91.9448 86.162 91.9521C85.122 91.9595 84.7265 92.6113 84.7265 93.5562V97.2915C84.7265 97.8921 84.3603 98.251 83.8109 98.251ZM89.2672 98.251C88.7179 98.251 88.359 97.8994 88.359 97.2915V91.1172C88.359 90.5239 88.7179 90.187 89.2306 90.187C89.7433 90.187 90.1095 90.5239 90.1095 91.1172V91.6885H90.1461C90.483 90.7876 91.3033 90.1943 92.358 90.1943C93.4566 90.1943 94.2403 90.7583 94.526 91.7544H94.5699C94.9435 90.7949 95.8663 90.1943 96.9869 90.1943C98.5177 90.1943 99.5211 91.2271 99.5211 92.7798V97.2915C99.5211 97.8994 99.1549 98.251 98.6129 98.251C98.0636 98.251 97.6974 97.8994 97.6974 97.2915V93.2266C97.6974 92.2744 97.1993 91.7324 96.3058 91.7324C95.4269 91.7324 94.8263 92.377 94.8263 93.3071V97.2915C94.8263 97.8994 94.482 98.251 93.94 98.251C93.3907 98.251 93.0538 97.8994 93.0538 97.2915V93.1313C93.0538 92.2671 92.5265 91.7324 91.6769 91.7324C90.7979 91.7324 90.1827 92.4136 90.1827 93.3511V97.2915C90.1827 97.8994 89.8092 98.251 89.2672 98.251ZM103.564 98.229C102.062 98.229 100.971 97.2842 100.971 95.8853C100.971 94.5083 102.033 93.6807 103.923 93.5635L105.981 93.4463V92.8896C105.981 92.0767 105.431 91.6079 104.531 91.6079C103.82 91.6079 103.359 91.8496 102.905 92.5161C102.714 92.7651 102.472 92.8823 102.165 92.8823C101.718 92.8823 101.396 92.5894 101.396 92.1499C101.396 91.9814 101.44 91.8203 101.52 91.6519C101.916 90.751 103.117 90.1797 104.604 90.1797C106.53 90.1797 107.783 91.1978 107.783 92.7578V97.3354C107.783 97.9214 107.409 98.251 106.896 98.251C106.398 98.251 106.054 97.9507 106.025 97.4087V96.8667H105.988C105.541 97.709 104.567 98.229 103.564 98.229ZM104.12 96.8521C105.146 96.8521 105.981 96.1636 105.981 95.2261V94.6328L104.179 94.7427C103.3 94.8013 102.795 95.1968 102.795 95.812C102.795 96.4492 103.329 96.8521 104.12 96.8521ZM110.521 98.251C109.987 98.251 109.606 97.9067 109.606 97.2915V88.3486C109.606 87.7334 109.987 87.3892 110.521 87.3892C111.056 87.3892 111.43 87.7334 111.43 88.3486V97.2915C111.43 97.9067 111.056 98.251 110.521 98.251Z" fill="#62C58C"/>
</g>
<mask id="mask0_43882_9840" style="mask-type:alpha" maskUnits="userSpaceOnUse" x="43" y="116" width="186" height="51">
<path d="M43.9297 124.813C51.5946 131.009 55.429 146.826 64.4852 147.95C71.4933 149.133 75.2461 145.965 81.9575 140.678C91.051 136.874 96.2032 133.227 105.596 124.813C122.28 116.725 131.61 117 148.249 116.88C162.333 116.238 170.046 118.711 183.707 124.813C202.764 131.681 211.908 127.955 228.93 124.813V159.188C206.954 160.171 187.55 146.384 169.319 143.984C153.313 141.877 138.212 151.106 123.069 151.917C114.353 152.383 99.4297 155.222 88.638 159.188C78.3602 161.832 70.8764 168.291 61.9158 166.46C53.123 164.663 53.6891 162.53 43.9297 159.188V124.813Z" fill="#48D238"/>
</mask>
<g mask="url(#mask0_43882_9840)">
<rect x="44.2402" y="107.096" width="187.902" height="155.022" fill="#38D27B" fill-opacity="0.1"/>
</g>
<path d="M43.9297 118.355L53.651 116.782L59.5427 118.782L65.4345 120.615L71.9154 119.282L78.3962 119.782L84.5826 121.615L91.0634 122.448L97.2497 125.782L103.731 126.948L109.328 128.948L115.809 129.615L122.29 129.282L128.476 127.282L134.957 127.615L141.143 128.948L147.329 127.948L153.81 130.948L159.997 134.948L166.183 138.115L172.369 132.615L178.555 138.115L185.036 141.282L191.223 144.448L197.409 145.115L203.595 145.282L210.076 135.615L216.262 139.282L222.154 140.115L228.93 145.782" stroke="#73D843" stroke-width="3" stroke-linejoin="round"/>
<g filter="url(#filter1_d_43882_9840)">
<circle cx="228.023" cy="143.354" r="3.25" fill="#73D843"/>
<circle cx="228.023" cy="143.354" r="4.25" stroke="white" stroke-width="2"/>
</g>
</g>
<defs>
<filter id="filter0_dd_43882_9840" x="0.556641" y="0.104492" width="276.902" height="229.69" filterUnits="userSpaceOnUse" color-interpolation-filters="sRGB">
<feFlood flood-opacity="0" result="BackgroundImageFix"/>
<feColorMatrix in="SourceAlpha" type="matrix" values="0 0 0 0 0 0 0 0 0 0 0 0 0 0 0 0 0 0 127 0" result="hardAlpha"/>
<feOffset dx="2" dy="15"/>
<feGaussianBlur stdDeviation="15"/>
<feComposite in2="hardAlpha" operator="out"/>
<feColorMatrix type="matrix" values="0 0 0 0 0 0 0 0 0 0 0 0 0 0 0 0 0 0 0.1 0"/>
<feBlend mode="normal" in2="BackgroundImageFix" result="effect1_dropShadow_43882_9840"/>
<feColorMatrix in="SourceAlpha" type="matrix" values="0 0 0 0 0 0 0 0 0 0 0 0 0 0 0 0 0 0 127 0" result="hardAlpha"/>
<feOffset dx="2" dy="6"/>
<feGaussianBlur stdDeviation="6"/>
<feComposite in2="hardAlpha" operator="out"/>
<feColorMatrix type="matrix" values="0 0 0 0 0 0 0 0 0 0 0 0 0 0 0 0 0 0 0.01 0"/>
<feBlend mode="normal" in2="effect1_dropShadow_43882_9840" result="effect2_dropShadow_43882_9840"/>
<feBlend mode="normal" in="BackgroundImageFix" in2="effect2_dropShadow_43882_9840" result="BackgroundImageFix"/>
<feBlend mode="normal" in="SourceGraphic" in2="BackgroundImageFix" result="shape"/>
</filter>
<filter id="filter1_d_43882_9840" x="216.842" y="132.173" width="22.3625" height="22.3625" filterUnits="userSpaceOnUse" color-interpolation-filters="sRGB">
<feFlood flood-opacity="0" result="BackgroundImageFix"/>
<feColorMatrix in="SourceAlpha" type="matrix" values="0 0 0 0 0 0 0 0 0 0 0 0 0 0 0 0 0 0 127 0" result="hardAlpha"/>
<feOffset/>
<feGaussianBlur stdDeviation="2.96563"/>
<feComposite in2="hardAlpha" operator="out"/>
<feColorMatrix type="matrix" values="0 0 0 0 0.45098 0 0 0 0 0.847059 0 0 0 0 0.262745 0 0 0 1 0"/>
<feBlend mode="normal" in2="BackgroundImageFix" result="effect1_dropShadow_43882_9840"/>
<feBlend mode="normal" in="SourceGraphic" in2="effect1_dropShadow_43882_9840" result="shape"/>
</filter>
<radialGradient id="paint0_radial_43882_9840" cx="0" cy="0" r="1" gradientUnits="userSpaceOnUse" gradientTransform="translate(137.008 99.9497) rotate(90) scale(84.8452 108.451)">
<stop stop-color="#27A401"/>
<stop offset="0.95195" stop-color="#C3E91D" stop-opacity="0"/>
</radialGradient>
<linearGradient id="paint1_linear_43882_9840" x1="222.695" y1="-5.98734" x2="104.285" y2="161.686" gradientUnits="userSpaceOnUse">
<stop stop-color="white" stop-opacity="0"/>
<stop offset="1" stop-color="white"/>
</linearGradient>
<clipPath id="clip0_43882_9840">
<rect width="174" height="75" fill="white" transform="translate(43.5566 27.1045)"/>
</clipPath>
</defs>
</svg>
