<svg width="104" height="105" viewBox="0 0 104 105" fill="none" xmlns="http://www.w3.org/2000/svg">
<g filter="url(#filter0_d_43882_9806)">
<rect x="18.1191" y="8.97131" width="67.82" height="67.82" rx="17" fill="white" shape-rendering="crispEdges"/>
<rect x="18.1191" y="8.97131" width="67.82" height="67.82" rx="17" fill="url(#paint0_radial_43882_9806)" fill-opacity="0.1" shape-rendering="crispEdges"/>
<rect x="19.3691" y="10.2213" width="65.32" height="65.32" rx="15.75" stroke="white" stroke-width="2.5" shape-rendering="crispEdges"/>
<g opacity="0.35" filter="url(#filter1_f_43882_9806)">
<path d="M51.5381 28.3176C52.5342 28.3176 53.4131 29.1965 53.4131 30.1926V37.9855C53.4131 38.923 53.8818 39.8019 54.7021 40.3293L55.2881 40.6808V38.0441C55.2881 35.759 57.1045 33.9426 59.3311 33.9426C60.6201 33.9426 61.8506 34.5871 62.6123 35.6418C63.4912 36.9308 65.1904 39.509 66.7725 42.4973C68.2959 45.4855 69.8193 49.1183 70.2295 52.4582C70.2295 52.5754 70.2295 52.634 70.2295 52.6926V53.1027C70.2295 56.0324 67.9443 58.3176 65.0146 58.3176C64.6045 58.3176 64.1943 58.3176 63.7842 58.2004L59.5068 57.1457C57.0459 56.5012 55.2881 54.2746 55.2881 51.6379V47.3605L60.5615 50.759C61.0303 51.0519 61.5576 50.9348 61.8506 50.466C62.1436 50.0558 62.0264 49.4699 61.5576 49.1769L55.2881 45.1926V45.134L52.6514 43.4933C52.2412 43.2004 51.8896 42.9074 51.5381 42.5558C51.1865 42.9074 50.7764 43.2004 50.3662 43.4933L47.7881 45.134L42.2217 48.6496L41.4014 49.1769C40.9912 49.4699 40.874 50.0558 41.1084 50.466C41.4014 50.9348 41.9873 51.0519 42.3975 50.759L47.7881 47.3605V51.6379C47.7881 54.2746 46.0303 56.5012 43.5107 57.1457L39.2334 58.2004C38.8232 58.3176 38.4131 58.3176 38.0029 58.3176C35.0732 58.3176 32.7881 56.0324 32.7881 53.1027V52.6926C32.7881 52.634 32.7881 52.5754 32.7881 52.4582C33.1982 49.1183 34.7217 45.4855 36.2451 42.4973C37.8271 39.509 39.5264 36.9308 40.4053 35.6418C41.167 34.5871 42.3975 33.9426 43.6865 33.9426C45.9717 33.9426 47.7881 35.759 47.7881 38.0441V40.6808L48.3154 40.3293C49.1357 39.8019 49.6631 38.923 49.6631 37.9855V30.1926C49.6631 29.1965 50.4834 28.3176 51.5381 28.3176Z" fill="#C3E91D"/>
<path d="M55.2881 38.044V40.6807V45.1339V45.1924L61.5576 49.1768C62.0264 49.4698 62.1436 50.0557 61.8506 50.4659C61.5576 50.9346 61.0303 51.0518 60.5615 50.7589L55.2881 47.3604V51.6378C55.2881 54.2745 57.0459 56.501 59.5068 57.1456L63.7842 58.2003C64.1943 58.3174 64.6045 58.3174 65.0146 58.3174C67.9443 58.3174 70.2295 56.0323 70.2295 53.1026V52.6924V52.4581C69.8193 49.1182 68.2959 45.4854 66.7725 42.4971C65.1904 39.5089 63.4912 36.9307 62.6123 35.6417C61.8506 34.587 60.6201 33.9424 59.3311 33.9424C57.1045 33.9424 55.2881 35.7589 55.2881 38.044Z" fill="url(#paint1_linear_43882_9806)"/>
<path d="M42.2217 48.6495L47.7881 45.1339V40.6807V38.044C47.7881 35.7589 45.9717 33.9424 43.6865 33.9424C42.3975 33.9424 41.167 34.587 40.4053 35.6417C39.5264 36.9307 37.8271 39.5089 36.2451 42.4971C34.7217 45.4854 33.1982 49.1182 32.7881 52.4581V52.6924V53.1026C32.7881 56.0323 35.0732 58.3174 38.0029 58.3174C38.4131 58.3174 38.8232 58.3174 39.2334 58.2003L43.5107 57.1456C46.0303 56.501 47.7881 54.2745 47.7881 51.6378V47.3604L42.3975 50.7589C41.9873 51.0518 41.4014 50.9346 41.1084 50.4659C40.874 50.0557 40.9912 49.4698 41.4014 49.1768L42.2217 48.6495Z" fill="url(#paint2_linear_43882_9806)"/>
</g>
<g filter="url(#filter2_i_43882_9806)">
<path d="M51.5381 28.3176C52.5342 28.3176 53.4131 29.1965 53.4131 30.1926V37.9855C53.4131 38.923 53.8818 39.8019 54.7021 40.3293L55.2881 40.6808V38.0441C55.2881 35.759 57.1045 33.9426 59.3311 33.9426C60.6201 33.9426 61.8506 34.5871 62.6123 35.6418C63.4912 36.9308 65.1904 39.509 66.7725 42.4973C68.2959 45.4855 69.8193 49.1183 70.2295 52.4582C70.2295 52.5754 70.2295 52.634 70.2295 52.6926V53.1027C70.2295 56.0324 67.9443 58.3176 65.0146 58.3176C64.6045 58.3176 64.1943 58.3176 63.7842 58.2004L59.5068 57.1457C57.0459 56.5012 55.2881 54.2746 55.2881 51.6379V47.3605L60.5615 50.759C61.0303 51.0519 61.5576 50.9348 61.8506 50.466C62.1436 50.0558 62.0264 49.4699 61.5576 49.1769L55.2881 45.1926V45.134L52.6514 43.4933C52.2412 43.2004 51.8896 42.9074 51.5381 42.5558C51.1865 42.9074 50.7764 43.2004 50.3662 43.4933L47.7881 45.134L42.2217 48.6496L41.4014 49.1769C40.9912 49.4699 40.874 50.0558 41.1084 50.466C41.4014 50.9348 41.9873 51.0519 42.3975 50.759L47.7881 47.3605V51.6379C47.7881 54.2746 46.0303 56.5012 43.5107 57.1457L39.2334 58.2004C38.8232 58.3176 38.4131 58.3176 38.0029 58.3176C35.0732 58.3176 32.7881 56.0324 32.7881 53.1027V52.6926C32.7881 52.634 32.7881 52.5754 32.7881 52.4582C33.1982 49.1183 34.7217 45.4855 36.2451 42.4973C37.8271 39.509 39.5264 36.9308 40.4053 35.6418C41.167 34.5871 42.3975 33.9426 43.6865 33.9426C45.9717 33.9426 47.7881 35.759 47.7881 38.0441V40.6808L48.3154 40.3293C49.1357 39.8019 49.6631 38.923 49.6631 37.9855V30.1926C49.6631 29.1965 50.4834 28.3176 51.5381 28.3176Z" fill="#C3E91D"/>
<path d="M55.2881 38.044V40.6807V45.1339V45.1924L61.5576 49.1768C62.0264 49.4698 62.1436 50.0557 61.8506 50.4659C61.5576 50.9346 61.0303 51.0518 60.5615 50.7589L55.2881 47.3604V51.6378C55.2881 54.2745 57.0459 56.501 59.5068 57.1456L63.7842 58.2003C64.1943 58.3174 64.6045 58.3174 65.0146 58.3174C67.9443 58.3174 70.2295 56.0323 70.2295 53.1026V52.6924V52.4581C69.8193 49.1182 68.2959 45.4854 66.7725 42.4971C65.1904 39.5089 63.4912 36.9307 62.6123 35.6417C61.8506 34.587 60.6201 33.9424 59.3311 33.9424C57.1045 33.9424 55.2881 35.7589 55.2881 38.044Z" fill="url(#paint3_linear_43882_9806)"/>
<path d="M42.2217 48.6495L47.7881 45.1339V40.6807V38.044C47.7881 35.7589 45.9717 33.9424 43.6865 33.9424C42.3975 33.9424 41.167 34.587 40.4053 35.6417C39.5264 36.9307 37.8271 39.5089 36.2451 42.4971C34.7217 45.4854 33.1982 49.1182 32.7881 52.4581V52.6924V53.1026C32.7881 56.0323 35.0732 58.3174 38.0029 58.3174C38.4131 58.3174 38.8232 58.3174 39.2334 58.2003L43.5107 57.1456C46.0303 56.501 47.7881 54.2745 47.7881 51.6378V47.3604L42.3975 50.7589C41.9873 51.0518 41.4014 50.9346 41.1084 50.4659C40.874 50.0557 40.9912 49.4698 41.4014 49.1768L42.2217 48.6495Z" fill="url(#paint4_linear_43882_9806)"/>
</g>
</g>
<defs>
<filter id="filter0_d_43882_9806" x="0.119141" y="0.971313" width="103.82" height="103.82" filterUnits="userSpaceOnUse" color-interpolation-filters="sRGB">
<feFlood flood-opacity="0" result="BackgroundImageFix"/>
<feColorMatrix in="SourceAlpha" type="matrix" values="0 0 0 0 0 0 0 0 0 0 0 0 0 0 0 0 0 0 127 0" result="hardAlpha"/>
<feOffset dy="10"/>
<feGaussianBlur stdDeviation="9"/>
<feComposite in2="hardAlpha" operator="out"/>
<feColorMatrix type="matrix" values="0 0 0 0 0 0 0 0 0 0 0 0 0 0 0 0 0 0 0.12 0"/>
<feBlend mode="normal" in2="BackgroundImageFix" result="effect1_dropShadow_43882_9806"/>
<feBlend mode="normal" in="BackgroundImageFix" in2="effect1_dropShadow_43882_9806" result="BackgroundImageFix"/>
<feBlend mode="normal" in="SourceGraphic" in2="BackgroundImageFix" result="shape"/>
</filter>
<filter id="filter1_f_43882_9806" x="24.7881" y="20.3176" width="53.4414" height="46" filterUnits="userSpaceOnUse" color-interpolation-filters="sRGB">
<feFlood flood-opacity="0" result="BackgroundImageFix"/>
<feBlend mode="normal" in="SourceGraphic" in2="BackgroundImageFix" result="shape"/>
<feGaussianBlur stdDeviation="4" result="effect1_foregroundBlur_43882_9806"/>
</filter>
<filter id="filter2_i_43882_9806" x="32.7881" y="28.3176" width="37.4414" height="31" filterUnits="userSpaceOnUse" color-interpolation-filters="sRGB">
<feFlood flood-opacity="0" result="BackgroundImageFix"/>
<feBlend mode="normal" in="SourceGraphic" in2="BackgroundImageFix" result="shape"/>
<feColorMatrix in="SourceAlpha" type="matrix" values="0 0 0 0 0 0 0 0 0 0 0 0 0 0 0 0 0 0 127 0" result="hardAlpha"/>
<feOffset dy="1"/>
<feGaussianBlur stdDeviation="1"/>
<feComposite in2="hardAlpha" operator="arithmetic" k2="-1" k3="1"/>
<feColorMatrix type="matrix" values="0 0 0 0 0 0 0 0 0 0 0 0 0 0 0 0 0 0 0.1 0"/>
<feBlend mode="normal" in2="shape" result="effect1_innerShadow_43882_9806"/>
</filter>
<radialGradient id="paint0_radial_43882_9806" cx="0" cy="0" r="1" gradientUnits="userSpaceOnUse" gradientTransform="translate(52.0291 42.8813) rotate(90) scale(33.91)">
<stop stop-color="#27A401"/>
<stop offset="0.95195" stop-color="#C3E91D" stop-opacity="0"/>
</radialGradient>
<linearGradient id="paint1_linear_43882_9806" x1="64.9155" y1="58.3174" x2="64.9155" y2="32.7817" gradientUnits="userSpaceOnUse">
<stop stop-color="#A8E300"/>
<stop offset="0.943945" stop-color="#47B82B"/>
</linearGradient>
<linearGradient id="paint2_linear_43882_9806" x1="64.9155" y1="58.3174" x2="64.9155" y2="32.7817" gradientUnits="userSpaceOnUse">
<stop stop-color="#A8E300"/>
<stop offset="0.943945" stop-color="#47B82B"/>
</linearGradient>
<linearGradient id="paint3_linear_43882_9806" x1="64.9155" y1="58.3174" x2="64.9155" y2="32.7817" gradientUnits="userSpaceOnUse">
<stop stop-color="#A8E300"/>
<stop offset="0.943945" stop-color="#47B82B"/>
</linearGradient>
<linearGradient id="paint4_linear_43882_9806" x1="64.9155" y1="58.3174" x2="64.9155" y2="32.7817" gradientUnits="userSpaceOnUse">
<stop stop-color="#A8E300"/>
<stop offset="0.943945" stop-color="#47B82B"/>
</linearGradient>
</defs>
</svg>
