<svg width="278" height="221" viewBox="0 0 278 221" fill="none" xmlns="http://www.w3.org/2000/svg">
<g filter="url(#filter0_dd_43889_10574)">
<rect x="28.9297" y="15.9651" width="216.902" height="159.69" rx="18" fill="white"/>
<rect x="28.9297" y="15.9651" width="216.902" height="159.69" rx="18" fill="url(#paint0_radial_43889_10574)" fill-opacity="0.1"/>
<rect x="29.6797" y="16.7151" width="215.402" height="158.19" rx="17.25" stroke="url(#paint1_linear_43889_10574)" stroke-width="1.5"/>
<g clip-path="url(#clip0_43889_10574)">
<path d="M50.0996 33.1663C50.3027 33.0901 50.5312 33.0901 50.7344 33.1663L56.4219 35.6038C56.7773 35.7561 56.9805 36.137 56.9043 36.5178C56.8281 36.8987 56.498 37.1526 56.1172 37.1526L56.1172 37.3557C56.1172 37.7112 55.8379 37.9651 55.5078 37.9651L45.3516 37.9651C44.9961 37.9651 44.7422 37.7112 44.7422 37.3557L44.7422 37.1526C44.3359 37.1526 44.0059 36.8987 43.9297 36.5178C43.8535 36.137 44.0566 35.7561 44.4121 35.6038L50.0996 33.1663ZM47.1797 38.7776L47.1797 43.6526L48.1953 43.6526L48.1953 38.7776L49.8203 38.7776L49.8203 43.6526L51.0391 43.6526L51.0391 38.7776L52.6641 38.7776L52.6641 43.6526L53.6797 43.6526L53.6797 38.7776L55.3047 38.7776L55.2793 43.7795C55.3047 43.7795 55.3301 43.7795 55.3301 43.8049L56.5488 44.6174C56.8535 44.8206 56.9805 45.176 56.8789 45.5315C56.7773 45.8616 56.4727 46.0901 56.1172 46.0901L44.7422 46.0901C44.3613 46.0901 44.0566 45.8616 43.9551 45.5315C43.8535 45.176 43.9805 44.8206 44.2852 44.6174L45.5039 43.8049C45.5039 43.7795 45.5293 43.7795 45.5547 43.7795L45.5547 38.7776L47.1797 38.7776ZM50.4297 34.7151C49.9727 34.7151 49.6172 35.0959 49.6172 35.5276C49.6172 35.9846 49.9727 36.3401 50.4297 36.3401C50.8613 36.3401 51.2422 35.9846 51.2422 35.5276C51.2422 35.0959 50.8613 34.7151 50.4297 34.7151Z" fill="#CACBCE"/>
<path d="M67.5806 45.1409C65.4712 45.1409 64.0649 44.262 63.6548 43.0608C63.5889 42.885 63.5522 42.6946 63.5522 42.5188C63.5522 41.9915 63.8892 41.6545 64.3872 41.6545C64.8047 41.6545 65.0684 41.823 65.2734 42.2478C65.603 43.1633 66.5112 43.5735 67.6392 43.5735C68.9136 43.5735 69.8071 42.9436 69.8071 42.0647C69.8071 41.303 69.2798 40.8342 67.9028 40.5486L66.7676 40.3142C64.6509 39.8821 63.6621 38.886 63.6621 37.3406C63.6621 35.4802 65.2954 34.2205 67.5879 34.2205C69.4556 34.2205 70.9058 35.0554 71.3379 36.4543C71.3818 36.5715 71.4038 36.7107 71.4038 36.8865C71.4038 37.3479 71.0742 37.6628 70.5835 37.6628C70.144 37.6628 69.873 37.4724 69.6753 37.0623C69.3164 36.1687 68.562 35.7878 67.5732 35.7878C66.4014 35.7878 65.5664 36.3445 65.5664 37.2307C65.5664 37.9485 66.0937 38.4099 67.4121 38.6882L68.5474 38.9226C70.7739 39.384 71.7114 40.2776 71.7114 41.845C71.7114 43.8665 70.1221 45.1409 67.5806 45.1409ZM74.216 45.1116C73.6813 45.1116 73.3005 44.7673 73.3005 44.1521V35.2092C73.3005 34.594 73.6813 34.2498 74.216 34.2498C74.7507 34.2498 75.1242 34.594 75.1242 35.2092V44.1521C75.1242 44.7673 74.7507 45.1116 74.216 45.1116ZM80.4267 45.1189C78.0536 45.1189 76.6547 43.6321 76.6547 41.1125C76.6547 38.637 78.0829 37.0403 80.3241 37.0403C82.4481 37.0403 83.8983 38.5491 83.8983 40.6584C83.8983 41.2004 83.5907 41.5227 83.0487 41.5227H78.4711V41.5813C78.4711 42.8777 79.2255 43.7126 80.412 43.7126C81.2323 43.7126 81.767 43.427 82.3529 42.6799C82.5434 42.4675 82.7118 42.387 82.9682 42.387C83.3783 42.387 83.7006 42.6506 83.7006 43.0901C83.7006 43.2292 83.6566 43.3904 83.5761 43.5515C83.0634 44.5403 81.9062 45.1189 80.4267 45.1189ZM78.4857 40.3215H82.1112C82.0746 39.1936 81.3568 38.4539 80.3314 38.4539C79.3061 38.4539 78.559 39.2083 78.4857 40.3215ZM88.8272 45.1189C86.4542 45.1189 85.0553 43.6321 85.0553 41.1125C85.0553 38.637 86.4835 37.0403 88.7247 37.0403C90.8487 37.0403 92.2989 38.5491 92.2989 40.6584C92.2989 41.2004 91.9913 41.5227 91.4493 41.5227H86.8717V41.5813C86.8717 42.8777 87.6261 43.7126 88.8126 43.7126C89.6329 43.7126 90.1676 43.427 90.7535 42.6799C90.9439 42.4675 91.1124 42.387 91.3687 42.387C91.7789 42.387 92.1012 42.6506 92.1012 43.0901C92.1012 43.2292 92.0572 43.3904 91.9767 43.5515C91.464 44.5403 90.3067 45.1189 88.8272 45.1189ZM86.8863 40.3215H90.5118C90.4752 39.1936 89.7574 38.4539 88.732 38.4539C87.7066 38.4539 86.9596 39.2083 86.8863 40.3215ZM94.6863 47.7263C94.1517 47.7263 93.7781 47.3821 93.7781 46.7668V37.9851C93.7781 37.3845 94.1443 37.0476 94.6644 37.0476C95.1844 37.0476 95.5579 37.3845 95.5579 37.9851V38.5417H95.5945C96.034 37.6409 96.9129 37.0696 98.0408 37.0696C100.011 37.0696 101.263 38.6003 101.263 41.0833C101.263 43.5588 100.018 45.0896 98.0701 45.0896C96.9422 45.0896 96.0633 44.5476 95.6385 43.676H95.6019V46.7668C95.6019 47.3821 95.221 47.7263 94.6863 47.7263ZM97.4842 43.5955C98.6634 43.5955 99.3958 42.6213 99.3958 41.0833C99.3958 39.5525 98.6634 38.571 97.4842 38.571C96.3489 38.571 95.5945 39.5745 95.5872 41.0833C95.5945 42.6067 96.3489 43.5955 97.4842 43.5955ZM107.166 44.9651C106.58 44.9651 106.221 44.5989 106.221 43.9836V35.3777C106.221 34.7625 106.58 34.3962 107.166 34.3962H110.609C112.528 34.3962 113.765 35.429 113.765 37.033C113.765 38.1682 112.923 39.157 111.839 39.3328V39.3914C113.275 39.5305 114.278 40.5632 114.278 41.9622C114.278 43.8225 112.908 44.9651 110.653 44.9651H107.166ZM108.111 38.8494H109.84C111.158 38.8494 111.898 38.2927 111.898 37.3113C111.898 36.3884 111.26 35.8684 110.133 35.8684H108.111V38.8494ZM108.111 43.4929H110.22C111.612 43.4929 112.352 42.9143 112.352 41.8303C112.352 40.7537 111.59 40.1897 110.14 40.1897H108.111V43.4929ZM118.02 45.0896C116.519 45.0896 115.428 44.1448 115.428 42.7458C115.428 41.3689 116.49 40.5413 118.379 40.4241L120.437 40.3069V39.7502C120.437 38.9373 119.888 38.4685 118.987 38.4685C118.277 38.4685 117.815 38.7102 117.361 39.3767C117.171 39.6257 116.929 39.7429 116.621 39.7429C116.175 39.7429 115.852 39.45 115.852 39.0105C115.852 38.842 115.896 38.6809 115.977 38.5125C116.372 37.6116 117.574 37.0403 119.06 37.0403C120.987 37.0403 122.239 38.0583 122.239 39.6184V44.196C122.239 44.782 121.866 45.1116 121.353 45.1116C120.855 45.1116 120.511 44.8113 120.481 44.2693V43.7273H120.445C119.998 44.5696 119.024 45.0896 118.02 45.0896ZM118.577 43.7126C119.602 43.7126 120.437 43.0242 120.437 42.0867V41.4934L118.636 41.6033C117.757 41.6619 117.251 42.0574 117.251 42.6726C117.251 43.3098 117.786 43.7126 118.577 43.7126ZM124.92 45.1116C124.385 45.1116 124.011 44.7673 124.011 44.1521V37.9705C124.011 37.4065 124.341 37.0476 124.883 37.0476C125.418 37.0476 125.784 37.4065 125.784 37.9705V38.5125H125.82C126.238 37.5896 127.044 37.0549 128.237 37.0549C129.951 37.0549 130.925 38.1536 130.925 39.948V44.1521C130.925 44.7673 130.552 45.1116 130.017 45.1116C129.483 45.1116 129.102 44.7673 129.102 44.1521V40.3142C129.102 39.2156 128.589 38.6003 127.549 38.6003C126.502 38.6003 125.835 39.3547 125.835 40.468V44.1521C125.835 44.7673 125.454 45.1116 124.92 45.1116ZM133.657 45.1116C133.122 45.1116 132.741 44.7673 132.741 44.1521V35.2092C132.741 34.594 133.122 34.2498 133.657 34.2498C134.192 34.2498 134.565 34.594 134.565 35.2092V40.4094H134.587L137.634 37.3992C137.868 37.1501 138.066 37.0476 138.345 37.0476C138.799 37.0476 139.143 37.3918 139.143 37.8313C139.143 38.1023 139.062 38.2708 138.813 38.5051L136.601 40.5999L139.033 43.6394C139.223 43.9031 139.282 44.0642 139.282 44.2986C139.282 44.7747 138.923 45.1116 138.418 45.1116C138.059 45.1116 137.846 44.9871 137.583 44.6062L135.254 41.6545L134.565 42.2991V44.1521C134.565 44.7673 134.192 45.1116 133.657 45.1116Z" fill="#8B8C8F"/>
<path d="M51.1516 78.1995C50.2727 78.1995 49.6633 77.5901 49.6633 76.676V63.9846H49.6047L46.8742 65.8831C46.5812 66.094 46.3469 66.176 46.0187 66.176C45.3859 66.176 44.9289 65.719 44.9289 65.051C44.9289 64.5823 45.1164 64.2307 45.6203 63.8791L49.0773 61.4534C49.8273 60.926 50.2961 60.8206 50.9289 60.8206C51.9953 60.8206 52.6398 61.4651 52.6398 62.5081V76.676C52.6398 77.5901 52.0305 78.1995 51.1516 78.1995ZM58.5808 78.1995C57.7253 78.1995 57.1159 77.6487 57.1159 76.6643V62.3206C57.1159 61.3948 57.6667 60.8206 58.5573 60.8206C59.4597 60.8206 59.9987 61.3948 59.9987 62.3206V67.676H60.0573C60.7253 66.1643 62.0964 65.3088 63.9831 65.3088C66.7253 65.3088 68.3308 67.1135 68.3308 69.9612V76.6643C68.3308 77.6487 67.7214 78.1995 66.8659 78.1995C66.0105 78.1995 65.4128 77.6487 65.4128 76.6643V70.5588C65.4128 68.8245 64.5456 67.7815 62.8581 67.7815C61.1003 67.7815 60.0339 69.0002 60.0339 70.8284V76.6643C60.0339 77.6487 59.4362 78.1995 58.5808 78.1995ZM82.7439 78.3049C80.1423 78.3049 77.8923 77.0627 77.0603 75.2229C76.8962 74.8596 76.7908 74.5081 76.7908 74.0745C76.7908 73.2893 77.2947 72.7971 78.0916 72.7971C78.7244 72.7971 79.1111 73.0432 79.4275 73.6643C80.0017 75.0354 81.1267 75.844 82.7556 75.844C84.7595 75.844 86.1775 74.426 86.1775 72.4221C86.1775 70.4768 84.7595 69.094 82.7673 69.094C81.7009 69.094 80.7752 69.5276 80.1306 70.1604C79.4275 70.8635 79.1345 71.0159 78.4431 71.0159C77.4705 71.0159 76.99 70.3245 77.0134 69.5041C77.0134 69.4338 77.0134 69.387 77.0252 69.3166L77.5642 62.9299C77.6697 61.594 78.3494 61.0549 79.6736 61.0549H86.9627C87.7361 61.0549 88.24 61.5471 88.24 62.2854C88.24 63.0354 87.7361 63.5276 86.9627 63.5276H80.1306L79.6853 68.5315H79.7439C80.4587 67.4768 81.8533 66.8206 83.5525 66.8206C86.7869 66.8206 89.0955 69.1057 89.0955 72.3401C89.0955 75.8791 86.4939 78.3049 82.7439 78.3049ZM97.8723 78.3049C95.2708 78.3049 93.0208 77.0627 92.1887 75.2229C92.0247 74.8596 91.9192 74.5081 91.9192 74.0745C91.9192 73.2893 92.4231 72.7971 93.22 72.7971C93.8528 72.7971 94.2395 73.0432 94.5559 73.6643C95.1302 75.0354 96.2552 75.844 97.8841 75.844C99.888 75.844 101.306 74.426 101.306 72.4221C101.306 70.4768 99.888 69.094 97.8958 69.094C96.8294 69.094 95.9036 69.5276 95.2591 70.1604C94.5559 70.8635 94.263 71.0159 93.5716 71.0159C92.5989 71.0159 92.1184 70.3245 92.1419 69.5041C92.1419 69.4338 92.1419 69.387 92.1536 69.3166L92.6927 62.9299C92.7981 61.594 93.4778 61.0549 94.802 61.0549H102.091C102.865 61.0549 103.368 61.5471 103.368 62.2854C103.368 63.0354 102.865 63.5276 102.091 63.5276H95.2591L94.8137 68.5315H94.8723C95.5872 67.4768 96.9817 66.8206 98.6809 66.8206C101.915 66.8206 104.224 69.1057 104.224 72.3401C104.224 75.8791 101.622 78.3049 97.8723 78.3049ZM108.149 78.1995C107.27 78.1995 106.696 77.637 106.696 76.6643V66.7854C106.696 65.8362 107.27 65.2971 108.091 65.2971C108.911 65.2971 109.497 65.8362 109.497 66.7854V67.6995H109.555C110.095 66.2581 111.407 65.3088 113.095 65.3088C114.852 65.3088 116.106 66.2112 116.563 67.8049H116.634C117.231 66.2698 118.708 65.3088 120.501 65.3088C122.95 65.3088 124.555 66.9612 124.555 69.4456V76.6643C124.555 77.637 123.97 78.1995 123.102 78.1995C122.223 78.1995 121.637 77.637 121.637 76.6643V70.1604C121.637 68.637 120.841 67.7698 119.411 67.7698C118.005 67.7698 117.044 68.801 117.044 70.2893V76.6643C117.044 77.637 116.493 78.1995 115.626 78.1995C114.747 78.1995 114.208 77.637 114.208 76.6643V70.0081C114.208 68.6252 113.364 67.7698 112.005 67.7698C110.598 67.7698 109.614 68.8596 109.614 70.3596V76.6643C109.614 77.637 109.016 78.1995 108.149 78.1995Z" fill="#222326"/>
<path d="M48.5806 99.1409C46.4712 99.1409 45.0649 98.262 44.6548 97.0608C44.5889 96.885 44.5522 96.6946 44.5522 96.5188C44.5522 95.9915 44.8892 95.6545 45.3872 95.6545C45.8047 95.6545 46.0684 95.823 46.2734 96.2478C46.603 97.1633 47.5112 97.5735 48.6392 97.5735C49.9136 97.5735 50.8071 96.9436 50.8071 96.0647C50.8071 95.303 50.2798 94.8342 48.9028 94.5486L47.7676 94.3142C45.6509 93.8821 44.6621 92.886 44.6621 91.3406C44.6621 89.4802 46.2954 88.2205 48.5879 88.2205C50.4556 88.2205 51.9058 89.0554 52.3379 90.4543C52.3818 90.5715 52.4038 90.7107 52.4038 90.8865C52.4038 91.3479 52.0742 91.6628 51.5835 91.6628C51.144 91.6628 50.873 91.4724 50.6753 91.0623C50.3164 90.1687 49.562 89.7878 48.5732 89.7878C47.4014 89.7878 46.5664 90.3445 46.5664 91.2307C46.5664 91.9485 47.0937 92.4099 48.4121 92.6882L49.5474 92.9226C51.7739 93.384 52.7114 94.2776 52.7114 95.845C52.7114 97.8665 51.1221 99.1409 48.5806 99.1409ZM56.9665 99.1042C55.2819 99.1042 54.2126 98.0129 54.2126 96.2185V92.0071C54.2126 91.3992 54.5861 91.0476 55.1208 91.0476C55.6555 91.0476 56.0363 91.3992 56.0363 92.0144V95.8523C56.0363 96.9656 56.5783 97.5662 57.6037 97.5662C58.6584 97.5662 59.3103 96.8191 59.3103 95.6912V92.0071C59.3103 91.3992 59.6911 91.0476 60.2258 91.0476C60.7531 91.0476 61.134 91.3992 61.134 92.0144V98.1887C61.134 98.7747 60.7824 99.1116 60.2624 99.1116C59.7351 99.1116 59.3762 98.7747 59.3762 98.1887V97.6174H59.3396C58.9294 98.5623 58.1457 99.1042 56.9665 99.1042ZM63.8363 99.1116C63.287 99.1116 62.9281 98.7527 62.9281 98.1521V91.9705C62.9281 91.3992 63.2797 91.0476 63.7997 91.0476C64.3051 91.0476 64.664 91.3992 64.664 91.9705V92.5637H64.7006C64.913 91.6555 65.5868 91.0696 66.3632 91.0696C66.6488 91.0696 66.8686 91.1428 67.0077 91.2673C67.1762 91.4065 67.2641 91.6262 67.2641 91.9265C67.2641 92.2122 67.1762 92.4246 66.9931 92.571C66.8173 92.7249 66.5463 92.8054 66.1874 92.8127C65.1474 92.8201 64.7519 93.4719 64.7519 94.4167V98.1521C64.7519 98.7527 64.3856 99.1116 63.8363 99.1116ZM69.2926 101.726C68.7579 101.726 68.3844 101.382 68.3844 100.767V91.9851C68.3844 91.3845 68.7506 91.0476 69.2706 91.0476C69.7906 91.0476 70.1642 91.3845 70.1642 91.9851V92.5417H70.2008C70.6402 91.6409 71.5191 91.0696 72.6471 91.0696C74.6173 91.0696 75.8697 92.6003 75.8697 95.0833C75.8697 97.5588 74.6246 99.0896 72.6764 99.0896C71.5484 99.0896 70.6695 98.5476 70.2447 97.676H70.2081V100.767C70.2081 101.382 69.8272 101.726 69.2926 101.726ZM72.0904 97.5955C73.2696 97.5955 74.002 96.6213 74.002 95.0833C74.002 93.5525 73.2696 92.571 72.0904 92.571C70.9552 92.571 70.2008 93.5745 70.1935 95.0833C70.2008 96.6067 70.9552 97.5955 72.0904 97.5955ZM78.3084 99.1116C77.7737 99.1116 77.3929 98.7673 77.3929 98.1521V89.2092C77.3929 88.594 77.7737 88.2498 78.3084 88.2498C78.8431 88.2498 79.2166 88.594 79.2166 89.2092V98.1521C79.2166 98.7673 78.8431 99.1116 78.3084 99.1116ZM83.7866 99.1042C82.102 99.1042 81.0327 98.0129 81.0327 96.2185V92.0071C81.0327 91.3992 81.4062 91.0476 81.9409 91.0476C82.4756 91.0476 82.8564 91.3992 82.8564 92.0144V95.8523C82.8564 96.9656 83.3984 97.5662 84.4238 97.5662C85.4785 97.5662 86.1304 96.8191 86.1304 95.6912V92.0071C86.1304 91.3992 86.5112 91.0476 87.0459 91.0476C87.5732 91.0476 87.9541 91.3992 87.9541 92.0144V98.1887C87.9541 98.7747 87.6025 99.1116 87.0825 99.1116C86.5552 99.1116 86.1963 98.7747 86.1963 98.1887V97.6174H86.1597C85.7495 98.5623 84.9658 99.1042 83.7866 99.1042ZM92.7438 99.1189C91.1032 99.1189 89.9533 98.489 89.5798 97.5588C89.5285 97.427 89.5065 97.3098 89.5065 97.2C89.5065 96.7605 89.8288 96.4822 90.2683 96.4822C90.5686 96.4822 90.8249 96.6213 91.0593 96.929C91.4694 97.5222 91.9382 97.7859 92.8098 97.7859C93.6594 97.7859 94.2233 97.427 94.2233 96.8411C94.2233 96.3723 93.9304 96.116 93.132 95.9329L91.8723 95.6472C90.3561 95.303 89.6091 94.5559 89.6091 93.428C89.6091 91.9851 90.8542 91.0403 92.7731 91.0403C94.2673 91.0403 95.4245 91.7727 95.6662 92.6663C95.6882 92.7615 95.7028 92.8494 95.7028 92.9373C95.7028 93.3181 95.4611 93.5891 94.9997 93.5891C94.736 93.5891 94.4724 93.4939 94.3039 93.2522C93.945 92.7175 93.4982 92.3806 92.7292 92.3806C91.9309 92.3806 91.3815 92.7688 91.3815 93.3254C91.3815 93.7795 91.7185 94.0872 92.5241 94.2703L93.7619 94.5413C95.4025 94.9148 96.0544 95.5081 96.0544 96.658C96.0544 98.1448 94.7214 99.1189 92.7438 99.1189Z" fill="#7B9EFD"/>
</g>
<line x1="44.2324" y1="128.142" x2="231.132" y2="128.142" stroke="#CACBCE" stroke-dasharray="2 2"/>
<path opacity="0.3" d="M229.199 126.99L151.326 126.99L149.972 127.043L155.501 121.859L159.676 116.728L165.93 109.387L172.445 120.489L180.15 108.832L191.208 98.4645L198.705 96.043L204.558 106.461L211.169 113.301L217.471 103.829L224.114 109.248L229.904 92.6449L229.199 126.99Z" fill="url(#paint2_linear_43889_10574)"/>
<path opacity="0.3" d="M121.827 128.212L108.891 128.517L107.536 128.57L115.657 116.946L121.827 128.212Z" fill="url(#paint3_linear_43889_10574)"/>
<path opacity="0.3" d="M44.876 151.727L44.8701 126.341L110.187 127.023L108.837 130.023L102.421 133.869L93.5224 138.474L89.9434 148.574L86.0978 146.216L83.2374 144.553L77.7563 147.606L70.5093 154.154L63.569 146.739L51.2206 154.318L44.876 151.727Z" fill="url(#paint4_linear_43889_10574)"/>
<path opacity="0.3" d="M135.07 141.103L140.977 128.25L121.953 127.928L127.714 131.57L135.07 141.103Z" fill="url(#paint5_linear_43889_10574)"/>
<path d="M44.5583 151.572L51.6488 154.416L64.3702 146.554L70.4743 154.652L77.1871 147.307L83.5312 143.929L89.9143 148.988L96.5604 135.279L102.578 133.139L108.936 129.16L116.197 114.741L122.087 128.335L127.983 131.549L134.572 141.069L140.899 127.914L146.839 129.249L153.524 123.978L159.967 116.212L166.382 109.699L172.414 120.11L179.227 109.198L185.635 102.999L192.334 97.1015L198.351 94.9882L204.668 106.015L210.779 112.978L217.271 103.018L223.396 109.355L231.232 92.767" stroke="url(#paint6_linear_43889_10574)" stroke-width="2.5" stroke-linejoin="round"/>
<g filter="url(#filter1_d_43889_10574)">
<circle cx="230.396" cy="95.2151" r="3.25" fill="#7B9EFD"/>
<circle cx="230.396" cy="95.2151" r="4.25" stroke="white" stroke-width="2"/>
</g>
</g>
<defs>
<filter id="filter0_dd_43889_10574" x="0.929688" y="0.965088" width="276.902" height="219.69" filterUnits="userSpaceOnUse" color-interpolation-filters="sRGB">
<feFlood flood-opacity="0" result="BackgroundImageFix"/>
<feColorMatrix in="SourceAlpha" type="matrix" values="0 0 0 0 0 0 0 0 0 0 0 0 0 0 0 0 0 0 127 0" result="hardAlpha"/>
<feOffset dx="2" dy="15"/>
<feGaussianBlur stdDeviation="15"/>
<feComposite in2="hardAlpha" operator="out"/>
<feColorMatrix type="matrix" values="0 0 0 0 0 0 0 0 0 0 0 0 0 0 0 0 0 0 0.1 0"/>
<feBlend mode="normal" in2="BackgroundImageFix" result="effect1_dropShadow_43889_10574"/>
<feColorMatrix in="SourceAlpha" type="matrix" values="0 0 0 0 0 0 0 0 0 0 0 0 0 0 0 0 0 0 127 0" result="hardAlpha"/>
<feOffset dx="2" dy="6"/>
<feGaussianBlur stdDeviation="6"/>
<feComposite in2="hardAlpha" operator="out"/>
<feColorMatrix type="matrix" values="0 0 0 0 0 0 0 0 0 0 0 0 0 0 0 0 0 0 0.01 0"/>
<feBlend mode="normal" in2="effect1_dropShadow_43889_10574" result="effect2_dropShadow_43889_10574"/>
<feBlend mode="normal" in="BackgroundImageFix" in2="effect2_dropShadow_43889_10574" result="BackgroundImageFix"/>
<feBlend mode="normal" in="SourceGraphic" in2="BackgroundImageFix" result="shape"/>
</filter>
<filter id="filter1_d_43889_10574" x="219.215" y="84.0338" width="22.3625" height="22.3625" filterUnits="userSpaceOnUse" color-interpolation-filters="sRGB">
<feFlood flood-opacity="0" result="BackgroundImageFix"/>
<feColorMatrix in="SourceAlpha" type="matrix" values="0 0 0 0 0 0 0 0 0 0 0 0 0 0 0 0 0 0 127 0" result="hardAlpha"/>
<feOffset/>
<feGaussianBlur stdDeviation="2.96563"/>
<feComposite in2="hardAlpha" operator="out"/>
<feColorMatrix type="matrix" values="0 0 0 0 0.482353 0 0 0 0 0.619608 0 0 0 0 0.992157 0 0 0 1 0"/>
<feBlend mode="normal" in2="BackgroundImageFix" result="effect1_dropShadow_43889_10574"/>
<feBlend mode="normal" in="SourceGraphic" in2="effect1_dropShadow_43889_10574" result="shape"/>
</filter>
<radialGradient id="paint0_radial_43889_10574" cx="0" cy="0" r="1" gradientUnits="userSpaceOnUse" gradientTransform="translate(137.381 95.8103) rotate(90) scale(79.8452 108.451)">
<stop stop-color="#7B9EFD"/>
<stop offset="0.95195" stop-color="#7BBAFD" stop-opacity="0"/>
</radialGradient>
<linearGradient id="paint1_linear_43889_10574" x1="223.068" y1="-3.88378" x2="114.053" y2="160.152" gradientUnits="userSpaceOnUse">
<stop stop-color="white" stop-opacity="0"/>
<stop offset="1" stop-color="white"/>
</linearGradient>
<linearGradient id="paint2_linear_43889_10574" x1="190.966" y1="94.2154" x2="192.181" y2="125.397" gradientUnits="userSpaceOnUse">
<stop offset="0.21467" stop-color="#7B9EFD"/>
<stop offset="1" stop-color="#7B9EFD" stop-opacity="0"/>
</linearGradient>
<linearGradient id="paint3_linear_43889_10574" x1="148.53" y1="95.7429" x2="149.745" y2="126.925" gradientUnits="userSpaceOnUse">
<stop offset="0.21467" stop-color="#7B9EFD"/>
<stop offset="1" stop-color="#7B9EFD" stop-opacity="0"/>
</linearGradient>
<linearGradient id="paint4_linear_43889_10574" x1="75.4652" y1="129.241" x2="76.2323" y2="153.354" gradientUnits="userSpaceOnUse">
<stop stop-color="#FF8948" stop-opacity="0"/>
<stop offset="1" stop-color="#FF8948"/>
</linearGradient>
<linearGradient id="paint5_linear_43889_10574" x1="134.012" y1="127.497" x2="135.381" y2="142.481" gradientUnits="userSpaceOnUse">
<stop stop-color="#FF8948" stop-opacity="0"/>
<stop offset="1" stop-color="#FF8948"/>
</linearGradient>
<linearGradient id="paint6_linear_43889_10574" x1="139.424" y1="54.4715" x2="144.589" y2="186.988" gradientUnits="userSpaceOnUse">
<stop offset="0.548641" stop-color="#7B9EFD"/>
<stop offset="0.555746" stop-color="#FF8947"/>
</linearGradient>
<clipPath id="clip0_43889_10574">
<rect width="174" height="75" fill="white" transform="translate(43.9297 27.9651)"/>
</clipPath>
</defs>
</svg>
