<svg width="105" height="104" viewBox="0 0 105 104" fill="none" xmlns="http://www.w3.org/2000/svg">
<g filter="url(#filter0_d_43889_10543)">
<rect x="18.7881" y="8.00366" width="67.82" height="67.82" rx="17" fill="white" shape-rendering="crispEdges"/>
<rect x="18.7881" y="8.00366" width="67.82" height="67.82" rx="17" fill="url(#paint0_radial_43889_10543)" fill-opacity="0.15" shape-rendering="crispEdges"/>
<rect x="20.0381" y="9.25366" width="65.32" height="65.32" rx="15.75" stroke="white" stroke-width="2.5" shape-rendering="crispEdges"/>
<g opacity="0.35" filter="url(#filter1_f_43889_10543)">
<g filter="url(#filter2_i_43889_10543)">
<path d="M51.4512 25.3728C51.9512 25.1853 52.5137 25.1853 53.0137 25.3728L67.0135 31.3732C67.8885 31.7483 68.3885 32.6858 68.2009 33.6233C68.0134 34.5608 67.2009 35.1857 66.2634 35.1857L66.2634 35.6857C66.2634 36.5607 65.5758 37.1857 64.7633 37.1857L39.7633 37.185C38.8883 37.185 38.2634 36.5599 38.2634 35.6849L38.2634 35.1849C37.2634 35.1849 36.4509 34.5599 36.2634 33.6224C36.076 32.6849 36.576 31.7474 37.451 31.3724L51.4512 25.3728ZM44.2633 39.1851L44.263 51.1851L46.763 51.1852L46.7633 39.1852L50.7633 39.1853L50.763 51.1853L53.763 51.1854L53.7633 39.1854L57.7633 39.1855L57.763 51.1855L60.263 51.1855L60.2633 39.1855L64.2633 39.1857L64.2005 51.4982C64.263 51.4982 64.3255 51.4982 64.3254 51.5607L67.3254 53.5607C68.0754 54.0608 68.3879 54.9358 68.1378 55.8108C67.8878 56.6233 67.1378 57.1857 66.2628 57.1857L38.2628 57.1849C37.3253 57.1849 36.5753 56.6224 36.3253 55.8099C36.0754 54.9349 36.3879 54.0599 37.1379 53.5599L40.1379 51.56C40.138 51.4975 40.2005 51.4975 40.263 51.4975L40.2633 39.185L44.2633 39.1851ZM52.2636 29.1853C51.1386 29.1853 50.2635 30.1228 50.2635 31.1853C50.2635 32.3103 51.1385 33.1853 52.2635 33.1853C53.326 33.1854 54.2635 32.3104 54.2635 31.1854C54.2635 30.1229 53.3261 29.1854 52.2636 29.1853Z" fill="url(#paint1_linear_43889_10543)"/>
</g>
</g>
<g filter="url(#filter3_i_43889_10543)">
<path d="M51.4521 25.3729C51.9521 25.1854 52.5146 25.1854 53.0146 25.3729L67.0145 31.3733C67.8895 31.7483 68.3894 32.6858 68.2019 33.6233C68.0144 34.5608 67.2019 35.1858 66.2644 35.1858L66.2644 35.6858C66.2643 36.5608 65.5768 37.1858 64.7643 37.1857L39.7643 37.185C38.8893 37.185 38.2643 36.56 38.2644 35.685L38.2644 35.185C37.2644 35.185 36.4519 34.56 36.2644 33.6224C36.0769 32.6849 36.577 31.7475 37.452 31.3725L51.4521 25.3729ZM44.2643 39.1852L44.2639 51.1852L46.7639 51.1852L46.7643 39.1852L50.7643 39.1853L50.7639 51.1853L53.7639 51.1854L53.7643 39.1854L57.7643 39.1855L57.7639 51.1855L60.2639 51.1856L60.2643 39.1856L64.2643 39.1857L64.2014 51.4982C64.2639 51.4982 64.3264 51.4982 64.3264 51.5607L67.3264 53.5608C68.0764 54.0608 68.3888 54.9358 68.1388 55.8108C67.8888 56.6233 67.1388 57.1858 66.2638 57.1858L38.2638 57.185C37.3263 57.185 36.5763 56.6225 36.3263 55.8099C36.0763 54.9349 36.3889 54.06 37.1389 53.56L40.1389 51.5601C40.1389 51.4976 40.2014 51.4976 40.2639 51.4976L40.2643 39.1851L44.2643 39.1852ZM52.2645 29.1854C51.1395 29.1854 50.2645 30.1228 50.2645 31.1853C50.2645 32.3103 51.1394 33.1854 52.2644 33.1854C53.3269 33.1854 54.2645 32.3104 54.2645 31.1854C54.2645 30.1229 53.327 29.1854 52.2645 29.1854Z" fill="url(#paint2_linear_43889_10543)"/>
</g>
</g>
<defs>
<filter id="filter0_d_43889_10543" x="0.788086" y="0.00366211" width="103.82" height="103.82" filterUnits="userSpaceOnUse" color-interpolation-filters="sRGB">
<feFlood flood-opacity="0" result="BackgroundImageFix"/>
<feColorMatrix in="SourceAlpha" type="matrix" values="0 0 0 0 0 0 0 0 0 0 0 0 0 0 0 0 0 0 127 0" result="hardAlpha"/>
<feOffset dy="10"/>
<feGaussianBlur stdDeviation="9"/>
<feComposite in2="hardAlpha" operator="out"/>
<feColorMatrix type="matrix" values="0 0 0 0 0 0 0 0 0 0 0 0 0 0 0 0 0 0 0.12 0"/>
<feBlend mode="normal" in2="BackgroundImageFix" result="effect1_dropShadow_43889_10543"/>
<feBlend mode="normal" in="BackgroundImageFix" in2="effect1_dropShadow_43889_10543" result="BackgroundImageFix"/>
<feBlend mode="normal" in="SourceGraphic" in2="BackgroundImageFix" result="shape"/>
</filter>
<filter id="filter1_f_43889_10543" x="28.0752" y="17.1849" width="48.3135" height="48.0009" filterUnits="userSpaceOnUse" color-interpolation-filters="sRGB">
<feFlood flood-opacity="0" result="BackgroundImageFix"/>
<feBlend mode="normal" in="SourceGraphic" in2="BackgroundImageFix" result="shape"/>
<feGaussianBlur stdDeviation="4" result="effect1_foregroundBlur_43889_10543"/>
</filter>
<filter id="filter2_i_43889_10543" x="36.0752" y="25.1849" width="32.3135" height="33.0009" filterUnits="userSpaceOnUse" color-interpolation-filters="sRGB">
<feFlood flood-opacity="0" result="BackgroundImageFix"/>
<feBlend mode="normal" in="SourceGraphic" in2="BackgroundImageFix" result="shape"/>
<feColorMatrix in="SourceAlpha" type="matrix" values="0 0 0 0 0 0 0 0 0 0 0 0 0 0 0 0 0 0 127 0" result="hardAlpha"/>
<feOffset dy="1"/>
<feGaussianBlur stdDeviation="1"/>
<feComposite in2="hardAlpha" operator="arithmetic" k2="-1" k3="1"/>
<feColorMatrix type="matrix" values="0 0 0 0 0 0 0 0 0 0 0 0 0 0 0 0 0 0 0.1 0"/>
<feBlend mode="normal" in2="shape" result="effect1_innerShadow_43889_10543"/>
</filter>
<filter id="filter3_i_43889_10543" x="36.0762" y="25.1849" width="32.3135" height="33.0009" filterUnits="userSpaceOnUse" color-interpolation-filters="sRGB">
<feFlood flood-opacity="0" result="BackgroundImageFix"/>
<feBlend mode="normal" in="SourceGraphic" in2="BackgroundImageFix" result="shape"/>
<feColorMatrix in="SourceAlpha" type="matrix" values="0 0 0 0 0 0 0 0 0 0 0 0 0 0 0 0 0 0 127 0" result="hardAlpha"/>
<feOffset dy="1"/>
<feGaussianBlur stdDeviation="1"/>
<feComposite in2="hardAlpha" operator="arithmetic" k2="-1" k3="1"/>
<feColorMatrix type="matrix" values="0 0 0 0 0 0 0 0 0 0 0 0 0 0 0 0 0 0 0.1 0"/>
<feBlend mode="normal" in2="shape" result="effect1_innerShadow_43889_10543"/>
</filter>
<radialGradient id="paint0_radial_43889_10543" cx="0" cy="0" r="1" gradientUnits="userSpaceOnUse" gradientTransform="translate(52.6981 41.9137) rotate(90) scale(33.91)">
<stop stop-color="#7B9EFD"/>
<stop offset="0.95195" stop-color="#7BBAFD" stop-opacity="0"/>
</radialGradient>
<linearGradient id="paint1_linear_43889_10543" x1="53.2923" y1="29.3424" x2="31.6132" y2="90.5887" gradientUnits="userSpaceOnUse">
<stop stop-color="#7B9EFD"/>
<stop offset="1" stop-color="#9FC7F1"/>
</linearGradient>
<linearGradient id="paint2_linear_43889_10543" x1="53.2933" y1="29.3425" x2="31.6141" y2="90.5888" gradientUnits="userSpaceOnUse">
<stop stop-color="#7B9EFD"/>
<stop offset="1" stop-color="#9FC7F1"/>
</linearGradient>
</defs>
</svg>
