<?xml version="1.0" encoding="iso-8859-1"?>
<!-- Generator: Adobe Illustrator 30.3.0, SVG Export Plug-In . SVG Version: 9.03 Build 0)  -->
<svg version="1.1" id="katman_1" xmlns="http://www.w3.org/2000/svg" xmlns:xlink="http://www.w3.org/1999/xlink" x="0px" y="0px"
	 viewBox="0 0 285.636 164.156" style="enable-background:new 0 0 285.636 164.156;" xml:space="preserve">
<g>
	<g>
		<g>
			<path style="fill:#E2130A;" d="M277.669,154.325h-26.581l-0.91-39.436c-2.361-23.83-5.144-49.289-24.222-65.964
				c-27.869-24.359-67.76-10.357-89.719,14.739c9.577,9.266,17.433,21.615,20.248,34.796c12.505,58.567-72.145,68.363-67.774,4.084
				c0.738-10.848,5.096-21.086,9.535-30.798C78.894,64.91,58.061,69.265,46.194,86.61c-13.437,19.638-10.905,44.998-11.553,67.716
				H8.059c0.087-19.889-1.295-39.507,4.273-58.857C25.229,50.655,69.976,28.59,112.974,48.68
				c14.634-16.398,32.264-30.148,53.849-36.053c33.506-9.166,64.317-0.666,86.649,25.869
				C279.468,69.386,277.509,116.228,277.669,154.325z M120.681,83.261c-7.61,1.473-14.065,43.037,2.7,43.428
				c9.751,0.228,10.672-14.332,9.981-21.244C132.886,100.691,126.361,82.161,120.681,83.261z"/>
		</g>
	</g>
</g>
</svg>
