<?xml version="1.0" encoding="iso-8859-1"?>
<!-- Generator: Adobe Illustrator 30.3.0, SVG Export Plug-In . SVG Version: 9.03 Build 0)  -->
<svg version="1.1" id="katman_1" xmlns="http://www.w3.org/2000/svg" xmlns:xlink="http://www.w3.org/1999/xlink" x="0px" y="0px"
	 viewBox="0 0 764.68 193.953" style="enable-background:new 0 0 764.68 193.953;" xml:space="preserve">
<g>
	<g>
		<path style="fill:#FFF3E1;" d="M543.697,171.296c0-5.215,3.041-8.835,11.441-8.835c3.428,0,6.614,0.338,9.366,0.676v-1.062
			c0-5.793-1.931-8.642-6.662-8.642c-1.786,0-3.283,0.338-4.876,1.352c-0.29,1.979-0.531,3.862-0.58,6.132l-8.497-1.256
			c1.015-8.256,6.083-12.407,15.063-12.407c9.896,0,14.001,4.586,14.001,12.986v10.718c0,2.945,0.048,5.312,0.192,8.063h-8.979
			l1.159-8.497h-0.531c-1.256,4.876-5.359,9.173-11.925,9.173C547.608,179.696,543.697,176.895,543.697,171.296z M564.505,168.109
			v-1.932l-7.338-0.097c-3.524,0-5.021,1.353-5.021,3.477c0,2.317,1.594,3.428,4.007,3.428
			C559.291,172.985,561.946,171.537,564.505,168.109z"/>
		<path style="fill:#FFF3E1;" d="M584.926,168.736c-0.917,1.207-1.835,2.173-3.524,3.139l0.241,0.627
			c4.394-1.11,7.725-1.496,11.152-1.496c11.298,0,15.69,3.621,15.69,10.283c0,1.304-0.145,2.801-0.482,4.152h-9.993
			c0.241-1.014,0.289-2.317,0.289-3.573c0-3.282-1.931-5.455-8.353-5.455h-3.862c-0.338,1.642-0.676,3.234-0.676,5.069
			c0,1.689,0.387,3.041,1.448,3.959h-10.91c-1.159-2.993,0.676-6.614,8.497-8.4v-0.628h-6.229l-1.158-3.669
			c1.786-1.353,3.282-3.09,4.393-5.021c-3.572-1.642-5.552-4.779-5.552-9.366c0-7.097,4.779-10.766,12.408-10.766
			c8.497,0,12.117,3.476,12.648,8.207h0.531c0-4.731,1.448-8.835,7.628-8.835l-0.048,9.56c-4.731-0.146-6.518,0.627-7.146,2.559
			c0,6.614-5.263,9.993-13.035,9.993C587.485,169.074,586.181,168.978,584.926,168.736z M592.941,163.474
			c0.338-1.642,0.482-2.993,0.482-4.78c0-3.476-1.448-5.117-5.166-5.117c-0.966,0-2.124,0.097-3.331,0.482
			c-0.29,1.642-0.482,2.993-0.482,4.731c0,3.524,1.448,5.166,5.165,5.166C590.574,163.957,591.734,163.86,592.941,163.474z"/>
		<path style="fill:#FFF3E1;" d="M609.21,163.474c0-10.622,5.601-16.125,15.256-16.125c9.173,0,14.677,5.021,14.822,15.207
			l-21.388,1.642c0.097,6.373,2.172,9.318,7,9.318c1.979,0,3.477-0.435,5.069-1.11c0.435-2.076,0.628-3.766,0.725-5.649h8.4
			c-0.917,8.835-6.18,12.843-14.629,12.843C614.811,179.599,609.21,174.096,609.21,163.474z M623.984,153.432
			c-1.979,0-3.669,0.386-5.407,1.545c-0.29,1.689-0.482,3.524-0.579,5.504l12.697-1.015
			C629.97,155.363,627.894,153.432,623.984,153.432z"/>
		<path style="fill:#FFF3E1;" d="M642.667,163.281c0-5.311,0-10.283-0.145-15.305h8.883l-0.82,7.29h0.53
			c2.222-5.745,5.891-7.917,10.67-7.917c7.001,0,10.042,4.151,10.042,12.263c0,6.614,0.049,13.614,0.193,19.456h-8.884
			c0.146-5.793,0.146-10.09,0.146-17.139c0-5.118-1.448-7.387-5.311-7.387c-3.09,0-5.504,1.496-6.76,4.828
			c0,8.352,0,14.628,0.193,19.697h-8.932C642.667,174.386,642.667,168.64,642.667,163.281z"/>
		<path style="fill:#FFF3E1;" d="M675.11,163.474c0-10.622,5.601-16.125,15.353-16.125c8.98,0,13.711,3.91,14.773,12.407
			l-8.304,0.869c-0.676-5.118-2.704-7.193-6.952-7.193c-2.028,0-3.718,0.386-5.504,1.545c-0.435,2.849-0.676,5.455-0.676,8.786
			c0,6.76,2.124,9.753,6.903,9.753c1.979,0,3.67-0.29,5.456-1.159c0.289-2.027,0.531-3.813,0.628-5.696h8.496
			c-0.82,8.593-5.793,12.938-15.015,12.938C680.71,179.599,675.11,174.096,675.11,163.474z"/>
		<path style="fill:#FFF3E1;" d="M709.676,185.441l0.725-6.132h8.594c2.221-1.062,2.944-5.021,3.331-6.565h-0.628
			c-0.628,2.076-1.932,2.896-4.152,2.896c-2.462,0-3.428-1.304-4.635-5.504l-6.614-22.16h8.69l6.518,22.401h0.918l5.89-22.401h8.642
			l-7.241,27.133c-2.125,8.546-5.069,11.056-12.553,11.056C714.842,186.165,711.559,185.876,709.676,185.441z"/>
	</g>
	<g>
		<g>
			<path style="fill:#FFF3E1;" d="M127.934,85.571c0,26.544-17.254,45.623-40.976,45.623c-15.43,0-27.872-8.461-34.176-22.397
				h-1.328l-2.986,19.078H26.404V8.425h26.378v53.754c6.47-13.77,18.912-22.23,34.176-22.23
				C110.68,39.948,127.934,59.027,127.934,85.571z M101.557,85.571c0-14.599-9.622-25.882-21.901-25.882
				c-12.442,0-21.898,11.283-21.898,25.882s9.456,25.879,21.898,25.879C91.934,111.449,101.557,100.169,101.557,85.571z"/>
		</g>
		<g>
			<path style="fill:#FFF3E1;" d="M201.077,44.095v22.397c-2.323-0.499-5.974-0.663-9.126-0.663
				c-16.589,0-29.031,10.119-29.031,28.202v37.162h-26.378V46.585h22.064l2.986,17.088h1.328
				c4.314-11.779,14.266-20.406,29.031-20.406C195.435,43.267,198.587,43.596,201.077,44.095z"/>
		</g>
		<g>
			<path style="fill:#FFF3E1;" d="M204.716,85.571c0-26.211,19.577-45.623,46.122-45.623c26.378,0,45.952,19.411,45.952,45.623
				s-19.575,45.623-45.952,45.623C224.294,131.193,204.716,111.782,204.716,85.571z M270.413,85.571
				c0-14.102-8.128-24.057-19.575-24.057c-11.616,0-19.744,9.955-19.744,24.057s8.128,24.055,19.744,24.055
				C262.284,109.625,270.413,99.673,270.413,85.571z"/>
		</g>
		<g>
			<path style="fill:#FFF3E1;" d="M630.955,82.582v46.122h-22.064l-2.988-17.088h-1.325c-6.141,12.278-18.582,19.577-32.352,19.577
				c-16.423,0-28.701-9.955-28.701-23.891s10.784-22.893,33.014-26.211l28.038-4.314c-0.499-8.794-7.965-13.437-21.901-13.437
				c-10.451,0-20.404,2.32-33.178,7.133V47.91c10.285-4.314,24.551-7.133,37.658-7.133
				C615.857,40.777,630.955,54.879,630.955,82.582z M604.577,91.043l-17.753,2.989c-10.948,1.99-16.922,6.47-16.922,12.608
				c0,5.475,4.646,8.957,11.613,8.957c10.95,0,23.062-10.618,23.062-22.064V91.043z"/>
		</g>
		<g>
			<path style="fill:#FFF3E1;" d="M682.368,91.708l-13.437,11.447v28.038h-26.378V11.744h26.378v59.229l26.209-24.387h39.984
				l-32.349,27.539l35.501,57.069h-31.024L682.368,91.708z"/>
		</g>
		<g>
			<path style="fill:#FFF3E1;" d="M534.72,131.193h-22.582l-0.773-33.503c-2.006-20.245-4.37-41.874-20.578-56.04
				c-23.677-20.694-57.566-8.799-76.221,12.522c8.136,7.872,14.81,18.363,17.201,29.561c10.624,49.756-61.291,58.078-57.578,3.469
				c0.627-9.216,4.33-17.913,8.101-26.164c-16.44-5.808-34.138-2.108-44.22,12.627c-11.415,16.683-9.264,38.228-9.815,57.528
				h-22.582c0.074-16.897-1.1-33.564,3.631-50.002c10.956-38.071,48.971-56.817,85.5-39.75
				c12.433-13.931,27.41-25.612,45.747-30.629c28.465-7.787,54.641-0.566,73.613,21.977
				C536.249,59.033,534.585,98.828,534.72,131.193z M401.351,70.82c-6.465,1.251-11.949,36.562,2.294,36.895
				c8.284,0.193,9.067-12.176,8.479-18.048C411.72,85.628,406.176,69.886,401.351,70.82z"/>
		</g>
	</g>
</g>
</svg>
